SplineFontDB: 3.2
FontName: BibleRomanExtraCondensed
FullName: Bible Roman Extra Condensed
FamilyName: Bible Roman Extra Condensed
Weight: Book
Copyright: 2002, Fredrick Nader. All rights reserved. apostrophe@apostrophiclab.com
Version: 1.0; December 2002
ItalicAngle: 0
UnderlinePosition: -150
UnderlineWidth: 40
Ascent: 819
Descent: 205
InvalidEm: 0
sfntRevision: 0x00010000
LayerCount: 2
Layer: 0 1 "Hinten" 1
Layer: 1 1 "Vorne" 0
XUID: [1021 256 -1967491057 18706]
StyleMap: 0x0040
FSType: 0
OS2Version: 2
OS2_WeightWidthSlopeOnly: 0
OS2_UseTypoMetrics: 0
CreationTime: 1039457615
ModificationTime: 1771267369
PfmFamily: 17
TTFWeight: 400
TTFWidth: 2
LineGap: 28
VLineGap: 0
Panose: 2 2 5 0 6 4 11 2 4 3
OS2TypoAscent: 816
OS2TypoAOffset: 0
OS2TypoDescent: -281
OS2TypoDOffset: 0
OS2TypoLinegap: 54
OS2WinAscent: 1026
OS2WinAOffset: 0
OS2WinDescent: 298
OS2WinDOffset: 0
HheadAscent: 1026
HheadAOffset: 0
HheadDescent: -298
HheadDOffset: 0
OS2SubXSize: 717
OS2SubYSize: 666
OS2SubXOff: 0
OS2SubYOff: 143
OS2SupXSize: 717
OS2SupYSize: 666
OS2SupXOff: 0
OS2SupYOff: 488
OS2StrikeYSize: 51
OS2StrikeYPos: 256
OS2FamilyClass: 258
OS2Vendor: 'APOS'
OS2CodePages: 20000111.00000000
OS2UnicodeRanges: 80000027.4000004a.00000000.00000000
Lookup: 1 0 0 "'smcp' Gemeine in Kapit+AOQA-lchen in Lateinisch Nachschlagetabelle 0" { "'smcp' Gemeine in Kapit+AOQA-lchen in Lateinisch Nachschlagetabelle 0 Subtabelle"  } ['smcp' ('latn' <'dflt' > ) ]
Lookup: 1 0 0 "'c2sc' Versalien in Kapit+AOQA-lchen in Lateinisch Nachschlagetabelle 0" { "'c2sc' Versalien in Kapit+AOQA-lchen in Lateinisch Nachschlagetabelle 0 Subtabelle"  } ['c2sc' ('latn' <'dflt' > ) ]
Lookup: 258 0 0 "'kern' Horizontale Unterschneidung in Lateinisch Nachschlagetabelle 0" { "'kern' Horizontale Unterschneidung in Lateinisch Nachschlagetabelle 0 Subtabelle"  } ['kern' ('DFLT' <'dflt' > 'latn' <'dflt' > ) ]
MarkAttachClasses: 1
DEI: 91125
ShortTable: maxp 16
  1
  0
  248
  235
  7
  0
  0
  1
  0
  0
  0
  0
  0
  0
  0
  0
EndShort

StartChar: breve
Encoding: 5 5 4
Width: 316
Flags: W
LayerCount: 2
Fore
SplineSet
162.360351562 593.5 m 0,0,1
 171.96484375 593.5 171.96484375 593.5 180.984375 598.966796875 c 0,2,3
 197.993164062 609.275390625 197.993164062 609.275390625 207.462890625 636.944335938 c 0,4,5
 211.530273438 648.830078125 211.530273438 648.830078125 211.530273438 664 c 2,6,-1
 211.530273438 671.5 l 1,7,-1
 216.48046875 671.5 l 1,8,-1
 244.200195312 671.5 l 1,9,-1
 249.150390625 671.5 l 1,10,-1
 249.150390625 664 l 2,11,12
 249.150390625 635.262695312 249.150390625 635.262695312 241.450195312 611.400390625 c 0,13,14
 233.75 587.537109375 233.75 587.537109375 221.578125 569.62109375 c 0,15,16
 209.34375 551.614257812 209.34375 551.614257812 193.286132812 541.564453125 c 0,17,18
 177.204101562 531.5 177.204101562 531.5 159.719726562 531.5 c 0,19,20
 156.520507812 531.5 156.520507812 531.5 151.637695312 533.557617188 c 0,21,22
 137.494140625 534.853515625 137.494140625 534.853515625 124.162109375 547.079101562 c 0,23,24
 110.91015625 559.232421875 110.91015625 559.232421875 100.475585938 578.203125 c 0,25,26
 90.1123046875 597.046875 90.1123046875 597.046875 83.85546875 619.166992188 c 0,27,28
 77.59765625 641.288085938 77.59765625 641.288085938 76.8955078125 663.637695312 c 2,29,-1
 76.6484375 671.5 l 1,30,-1
 81.83984375 671.5 l 1,31,-1
 113.51953125 671.5 l 1,32,-1
 118.104492188 671.5 l 1,33,-1
 118.455078125 664.58203125 l 2,34,35
 119.055664062 652.747070312 119.055664062 652.747070312 122.396484375 640.325195312 c 0,36,37
 125.719726562 627.963867188 125.719726562 627.963867188 131.45703125 617.8984375 c 0,38,39
 143.887695312 596.08984375 143.887695312 596.08984375 159.734375 594.375 c 0,40,41
 160.889648438 593.5 160.889648438 593.5 162.360351562 593.5 c 0,0,1
EndSplineSet
EndChar

StartChar: dotaccent
Encoding: 6 6 5
Width: 306
Flags: W
LayerCount: 2
Fore
SplineSet
131.423828125 689.23046875 m 0,0,1
 145.091796875 710.5 145.091796875 710.5 163.935546875 710.5 c 0,2,3
 182.779296875 710.5 182.779296875 710.5 197.814453125 689.38671875 c 0,4,5
 212.849609375 668.272460938 212.849609375 668.272460938 212.849609375 637.556640625 c 0,6,7
 212.849609375 606.83984375 212.849609375 606.83984375 198.154296875 585.130859375 c 0,8,9
 183.512695312 563.5 183.512695312 563.5 163.6796875 563.5 c 0,10,11
 160.037109375 563.5 160.037109375 563.5 158.536132812 564.76953125 c 0,12,13
 150.758789062 566.372070312 150.758789062 566.372070312 143.310546875 573.895507812 c 0,14,15
 128.79296875 588.559570312 128.79296875 588.559570312 121.48828125 615.120117188 c 0,16,17
 117.809570312 628.497070312 117.809570312 628.497070312 117.809570312 641 c 0,18,19
 117.809570312 668.045898438 117.809570312 668.045898438 131.423828125 689.23046875 c 0,0,1
EndSplineSet
EndChar

StartChar: ring
Encoding: 8 8 6
Width: 312
Flags: W
LayerCount: 2
Fore
SplineSet
195.690429688 635 m 0,0,1
 195.690429688 657.712890625 195.690429688 657.712890625 184.659179688 673.106445312 c 0,2,3
 173.62890625 688.5 173.62890625 688.5 160.130859375 688.5 c 0,4,5
 146.6328125 688.5 146.6328125 688.5 137.202148438 673.778320312 c 0,6,7
 127.709960938 658.9609375 127.709960938 658.9609375 127.709960938 639 c 0,8,9
 127.709960938 630.477539062 127.709960938 630.477539062 130.368164062 620.631835938 c 0,10,11
 135.92578125 600.047851562 135.92578125 600.047851562 146.62109375 589.245117188 c 0,12,13
 151.7109375 584.103515625 151.7109375 584.103515625 159.484375 581.961914062 c 0,14,15
 160.060546875 581.5 160.060546875 581.5 160.379882812 581.5 c 0,16,17
 175.491210938 581.5 175.491210938 581.5 185.590820312 596.802734375 c 0,18,19
 195.690429688 612.104492188 195.690429688 612.104492188 195.690429688 635 c 0,0,1
227.370117188 635 m 0,20,21
 227.370117188 613.458007812 227.370117188 613.458007812 222.022460938 594.55078125 c 0,22,23
 216.677734375 575.65625 216.677734375 575.65625 207.041992188 561.59765625 c 0,24,25
 197.458984375 547.615234375 197.458984375 547.615234375 184.720703125 539.573242188 c 0,26,27
 171.931640625 531.5 171.931640625 531.5 158.400390625 531.5 c 0,28,29
 153.864257812 531.5 153.864257812 531.5 150.987304688 533.647460938 c 0,30,31
 139.779296875 535.158203125 139.779296875 535.158203125 129.23828125 545.272460938 c 0,32,33
 118.697265625 555.387695312 118.697265625 555.387695312 110.952148438 570.857421875 c 0,34,35
 103.206054688 586.328125 103.206054688 586.328125 98.6279296875 604.469726562 c 0,36,37
 94.0498046875 622.611328125 94.0498046875 622.611328125 94.0498046875 640.569335938 c 0,38,39
 94.0498046875 658.528320312 94.0498046875 658.528320312 99.060546875 676.423828125 c 0,40,41
 104.016601562 694.123046875 104.016601562 694.123046875 112.522460938 708.083984375 c 0,42,43
 121.103515625 722.169921875 121.103515625 722.169921875 132.54296875 730.294921875 c 0,44,45
 144.095703125 738.5 144.095703125 738.5 157.080078125 738.5 c 0,46,47
 188.168945312 738.5 188.168945312 738.5 207.76953125 708.802734375 c 0,48,49
 227.370117188 679.104492188 227.370117188 679.104492188 227.370117188 635 c 0,20,21
EndSplineSet
EndChar

StartChar: hungarumlaut
Encoding: 10 10 7
Width: 351
Flags: W
LayerCount: 2
Fore
SplineSet
116.166992188 515.661132812 m 0,0,1
 107.489257812 506.993164062 107.489257812 506.993164062 98.9111328125 515.9296875 c 0,2,3
 94.5341796875 520.489257812 94.5341796875 520.489257812 94.5341796875 527.857421875 c 0,4,5
 94.5341796875 535.225585938 94.5341796875 535.225585938 97.15625 542.232421875 c 0,6,7
 105.352539062 574.298828125 105.352539062 574.298828125 139.100585938 678.790039062 c 0,8,9
 146.794921875 702.612304688 146.794921875 702.612304688 151.560546875 714.267578125 c 0,10,11
 157.993164062 730 157.993164062 730 164.360351562 730 c 0,12,13
 169.25390625 730 169.25390625 730 174.765625 723.763671875 c 0,14,15
 178.283203125 719.323242188 178.283203125 719.323242188 180.143554688 717.9140625 c 0,16,17
 183.750976562 715.180664062 183.750976562 715.180664062 189.870117188 707.969726562 c 0,18,19
 195.98828125 700.758789062 195.98828125 700.758789062 197.677734375 699.672851562 c 0,20,21
 205.259765625 695 205.259765625 695 205.279296875 683.3671875 c 0,22,23
 205.279296875 672.303710938 205.279296875 672.303710938 200.151367188 665.62109375 c 0,24,25
 195.522460938 657.540039062 195.522460938 657.540039062 183.509765625 634.421875 c 0,26,27
 154.842773438 579.247070312 154.842773438 579.247070312 137.481445312 549.288085938 c 0,28,29
 120.120117188 519.330078125 120.120117188 519.330078125 116.166992188 515.661132812 c 0,0,1
197.3515625 511.369140625 m 0,30,31
 193.137695312 511.369140625 193.137695312 511.369140625 188.9140625 516.0625 c 0,32,33
 184.690429688 520.755859375 184.690429688 520.755859375 184.690429688 528.033203125 c 0,34,35
 184.690429688 535.311523438 184.690429688 535.311523438 186.860351562 542.013671875 c 0,36,37
 193.124023438 566.5859375 193.124023438 566.5859375 207.203125 610.955078125 c 0,38,39
 228.498046875 678.065429688 228.498046875 678.065429688 241.89453125 715.76171875 c 0,40,41
 247.767578125 730 247.767578125 730 254.12109375 730 c 0,42,43
 259.013671875 730 259.013671875 730 264.525390625 723.763671875 c 0,44,45
 267.9296875 719.466796875 267.9296875 719.466796875 270.215820312 717.981445312 c 0,46,47
 272.502929688 716.497070312 272.502929688 716.497070312 274.40234375 714.194335938 c 0,48,49
 285.189453125 701.119140625 285.189453125 701.119140625 287.4375 699.672851562 c 0,50,51
 295.01953125 695 295.01953125 695 295.0390625 683.3671875 c 0,52,53
 295.0390625 672.303710938 295.0390625 672.303710938 289.911132812 665.62109375 c 0,54,55
 285.282226562 657.540039062 285.282226562 657.540039062 273.270507812 634.421875 c 0,56,57
 244.603515625 579.247070312 244.603515625 579.247070312 227.2421875 549.2890625 c 0,58,59
 209.879882812 519.330078125 209.879882812 519.330078125 205.756835938 515.349609375 c 0,60,61
 201.6328125 511.369140625 201.6328125 511.369140625 197.3515625 511.369140625 c 0,30,31
EndSplineSet
EndChar

StartChar: ogonek
Encoding: 11 11 8
Width: 319
Flags: W
LayerCount: 2
Fore
SplineSet
220.03125 32.0693359375 m 0,0,1
 240.11328125 48.884765625 240.11328125 48.884765625 266.047851562 48.884765625 c 0,2,3
 274.161132812 48.884765625 274.161132812 48.884765625 282.262695312 47.3505859375 c 1,4,5
 288.860351562 44.0185546875 288.860351562 44.0185546875 288.860351562 31.0693359375 c 0,6,7
 288.860351562 22.8056640625 288.860351562 22.8056640625 285.189453125 -7.2255859375 c 1,8,9
 279.694335938 -6.2998046875 279.694335938 -6.2998046875 277.068359375 -6.2998046875 c 0,10,11
 274.442382812 -6.2998046875 274.442382812 -6.2998046875 268.0625 -9.5224609375 c 0,12,13
 254.674804688 -16.2841796875 254.674804688 -16.2841796875 245.920898438 -34.8525390625 c 0,14,15
 241.813476562 -43.5654296875 241.813476562 -43.5654296875 241.341796875 -49.7001953125 c 0,16,17
 240.870117188 -55.8359375 240.870117188 -55.8359375 240.870117188 -59.5947265625 c 0,18,19
 240.870117188 -76.3427734375 240.870117188 -76.3427734375 247.315429688 -90.8115234375 c 0,20,21
 254.795898438 -107.6015625 254.795898438 -107.6015625 277.989257812 -108.502929688 c 2,22,-1
 278.078125 -108.502929688 l 2,23,24
 292.90625 -109.479492188 292.90625 -109.479492188 305.056640625 -107.541015625 c 0,25,26
 317.208007812 -105.603515625 317.208007812 -105.603515625 337.051757812 -97.5087890625 c 1,27,-1
 339.083984375 -101.203125 l 2,28,29
 343.370117188 -108.99609375 343.370117188 -108.99609375 343.766601562 -115.591796875 c 0,30,31
 344.162109375 -122.1875 344.162109375 -122.1875 345.296875 -135.9453125 c 1,32,33
 325.780273438 -147.034179688 325.780273438 -147.034179688 309.241210938 -156.239257812 c 0,34,35
 290.618164062 -166.604492188 290.618164062 -166.604492188 272.400390625 -166.604492188 c 0,36,37
 254.181640625 -166.60546875 254.181640625 -166.60546875 237.71484375 -158.122070312 c 0,38,39
 221.247070312 -149.638671875 221.247070312 -149.638671875 208.89453125 -133.596679688 c 0,40,41
 196.541992188 -117.5546875 196.541992188 -117.5546875 190.918945312 -97.6728515625 c 0,42,43
 185.294921875 -77.7919921875 185.294921875 -77.7919921875 185.294921875 -58.25 c 0,44,45
 185.294921875 -22.568359375 185.294921875 -22.568359375 197.32421875 1.9658203125 c 0,46,47
 206.547851562 20.779296875 206.547851562 20.779296875 220.03125 32.0693359375 c 0,0,1
EndSplineSet
EndChar

StartChar: caron
Encoding: 12 12 9
Width: 285
Flags: W
LayerCount: 2
Fore
SplineSet
220.440429688 723.5 m 0,0,1
 225.247070312 723.5 225.247070312 723.5 227.298828125 718.966796875 c 0,2,3
 229.349609375 714.434570312 229.349609375 714.434570312 229.349609375 709.4140625 c 0,4,5
 229.349609375 704.393554688 229.349609375 704.393554688 224.797851562 689.008789062 c 0,6,7
 220.24609375 673.624023438 220.24609375 673.624023438 212.934570312 653.985351562 c 0,8,9
 205.624023438 634.34765625 205.624023438 634.34765625 197.379882812 611.865234375 c 0,10,11
 183.331054688 573.549804688 183.331054688 573.549804688 166.833007812 535.397460938 c 0,12,13
 159.938476562 519.452148438 159.938476562 519.452148438 155.661132812 515.564453125 c 2,14,-1
 153.21484375 513.33984375 l 1,15,16
 146.987304688 518.58203125 146.987304688 518.58203125 144.938476562 521.232421875 c 0,17,18
 142.827148438 523.962890625 142.827148438 523.962890625 142.065429688 526.66015625 c 2,19,-1
 104.677734375 619.084960938 l 2,20,21
 86.6025390625 663.716796875 86.6025390625 663.716796875 77.1669921875 702.51953125 c 0,22,23
 75.5703125 709.778320312 75.5703125 709.778320312 75.5703125 713 c 0,24,25
 75.5703125 720.553710938 75.5703125 720.553710938 78.4814453125 724.08203125 c 0,26,27
 81.392578125 727.611328125 81.392578125 727.611328125 85.212890625 727.611328125 c 0,28,29
 86.3427734375 727.611328125 86.3427734375 727.611328125 88.259765625 727.067382812 c 0,30,31
 92.4130859375 725.888671875 92.4130859375 725.888671875 101.283203125 709.762695312 c 0,32,33
 110.15234375 693.63671875 110.15234375 693.63671875 119.711914062 674.158203125 c 0,34,35
 141.362304688 630.04296875 141.362304688 630.04296875 153.098632812 616.212890625 c 1,36,37
 158.794921875 623.125976562 158.794921875 623.125976562 166.849609375 638.81640625 c 0,38,39
 174.903320312 654.506835938 174.903320312 654.506835938 183.865234375 673.114257812 c 0,40,41
 192.826171875 691.720703125 192.826171875 691.720703125 202.228515625 707.610351562 c 0,42,43
 211.630859375 723.5 211.630859375 723.5 220.440429688 723.5 c 0,0,1
EndSplineSet
EndChar

StartChar: dotlessi
Encoding: 13 13 10
Width: 211
Flags: W
LayerCount: 2
Fore
SplineSet
139.587890625 134.100585938 m 1,0,-1
 139.194335938 91.7998046875 l 2,1,2
 139.194335938 77.8203125 139.194335938 77.8203125 140.219726562 63.8359375 c 2,3,-1
 140.229492188 63.6865234375 l 2,4,5
 141.315429688 45.5947265625 141.315429688 45.5947265625 146.640625 41.0341796875 c 0,6,7
 153.5 35.16015625 153.5 35.16015625 162.421875 32.74609375 c 0,8,9
 171.344726562 30.33203125 171.344726562 30.33203125 179.12109375 27.2578125 c 0,10,11
 190.41015625 22.7958984375 190.41015625 22.7958984375 190.41015625 5 c 0,12,13
 190.41015625 -2.3759765625 190.41015625 -2.3759765625 187.64453125 -7.9931640625 c 0,14,15
 184.879882812 -13.611328125 184.879882812 -13.611328125 178.0234375 -14.5556640625 c 0,16,17
 171.16796875 -15.5 171.16796875 -15.5 162.630859375 -15.5 c 0,18,19
 154.09375 -15.5 154.09375 -15.5 142.213867188 -13 c 0,20,21
 130.333984375 -10.5 130.333984375 -10.5 115.770507812 -10.5 c 0,22,23
 101.208007812 -10.5 101.208007812 -10.5 83.0576171875 -13 c 0,24,25
 64.9072265625 -15.5 64.9072265625 -15.5 47.51953125 -15.5 c 2,26,-1
 39.599609375 -15.5 l 2,27,28
 33.623046875 -15.5 33.623046875 -15.5 28.3388671875 -13.212890625 c 0,29,30
 20.1298828125 -9.6591796875 20.1298828125 -9.6591796875 20.1298828125 7 c 0,31,32
 20.1298828125 13.1044921875 20.1298828125 13.1044921875 22.900390625 17.302734375 c 2,33,-1
 25.5400390625 21.302734375 l 1,34,-1
 25.759765625 21.634765625 l 1,35,36
 32.9326171875 30.087890625 32.9326171875 30.087890625 41.5029296875 32.251953125 c 0,37,38
 50.0732421875 34.416015625 50.0732421875 34.416015625 56.859375 35.818359375 c 0,39,40
 63.64453125 37.2197265625 63.64453125 37.2197265625 68.2021484375 41.439453125 c 0,41,42
 72.759765625 45.66015625 72.759765625 45.66015625 74.1650390625 56.7041015625 c 0,43,44
 75.5703125 67.7490234375 75.5703125 67.7490234375 75.5703125 72 c 2,45,-1
 75.5703125 87 l 1,46,-1
 76.009765625 130.111328125 l 1,47,-1
 75.7900390625 171.888671875 l 2,48,49
 75.7900390625 213.568359375 75.7900390625 213.568359375 77.330078125 250.904296875 c 0,50,51
 78.8701171875 288.239257812 78.8701171875 288.239257812 78.8701171875 305.95703125 c 0,52,53
 78.8701171875 323.674804688 78.8701171875 323.674804688 77.9521484375 339.890625 c 0,54,55
 77.03515625 356.107421875 77.03515625 356.107421875 72.6533203125 365.38671875 c 0,56,57
 70.1259765625 369.860351562 70.1259765625 369.860351562 64.4716796875 373.467773438 c 0,58,59
 58.818359375 377.07421875 58.818359375 377.07421875 53.1357421875 380.620117188 c 0,60,61
 47.4521484375 384.165039062 47.4521484375 384.165039062 42.6708984375 387.787109375 c 0,62,63
 35.3095703125 393.364257812 35.3095703125 393.364257812 35.3095703125 402.646484375 c 0,64,65
 35.3095703125 411.928710938 35.3095703125 411.928710938 40.8876953125 417.780273438 c 0,66,67
 51.927734375 429.359375 51.927734375 429.359375 72.630859375 437.244140625 c 0,68,69
 78.6962890625 439.916992188 78.6962890625 439.916992188 95.25390625 454.251953125 c 0,70,71
 111.811523438 468.587890625 111.811523438 468.587890625 119.978515625 475.043945312 c 0,72,73
 128.145507812 481.5 128.145507812 481.5 131.702148438 481.5 c 0,74,75
 135.2578125 481.5 135.2578125 481.5 138.083984375 478.645507812 c 0,76,77
 140.91015625 475.791015625 140.91015625 475.791015625 140.91015625 469 c 0,78,79
 140.91015625 438.811523438 140.91015625 438.811523438 139.584960938 408.625 c 0,80,81
 136.962890625 285.353515625 136.962890625 285.353515625 139.587890625 134.200195312 c 1,82,-1
 139.587890625 134.100585938 l 1,0,-1
EndSplineSet
EndChar

StartChar: fraction
Encoding: 25 25 11
Width: 178
Flags: W
LayerCount: 2
Fore
SplineSet
243.540039062 697.5 m 2,0,1
 252.26171875 697.5 252.26171875 697.5 264.014648438 685.977539062 c 0,2,3
 275.767578125 674.454101562 275.767578125 674.454101562 287.64453125 664.638671875 c 1,4,5
 265.374023438 614.60546875 265.374023438 614.60546875 244.479492188 573.901367188 c 0,6,7
 223.684570312 533.391601562 223.684570312 533.391601562 201.904296875 492.391601562 c 0,8,9
 138.530273438 369.36328125 138.530273438 369.36328125 75.4853515625 249.334960938 c 0,10,11
 12.541015625 129.499023438 12.541015625 129.499023438 -49.0380859375 -2.1591796875 c 1,12,-1
 -52.6552734375 0.033203125 l 2,13,14
 -56.4912109375 2.357421875 -56.4912109375 2.357421875 -65.353515625 11.8076171875 c 0,15,16
 -74.216796875 21.2578125 -74.216796875 21.2578125 -88.7451171875 28.9140625 c 2,17,-1
 -95.1318359375 32.2802734375 l 1,18,19
 -9.203125 206.57421875 -9.203125 206.57421875 74.607421875 366.0546875 c 0,20,21
 158.418945312 525.5390625 158.418945312 525.5390625 241.021484375 697.5 c 1,22,-1
 243.540039062 697.5 l 2,0,1
EndSplineSet
EndChar

StartChar: fi
Encoding: 26 26 12
Width: 411
Flags: W
LayerCount: 2
Fore
SplineSet
340.228515625 134.100585938 m 1,0,-1
 339.833984375 91.7998046875 l 2,1,2
 339.833984375 77.8203125 339.833984375 77.8203125 340.859375 63.8359375 c 2,3,-1
 340.869140625 63.6865234375 l 2,4,5
 341.950195312 45.6806640625 341.950195312 45.6806640625 347.532226562 41.099609375 c 0,6,7
 354.768554688 35.16015625 354.768554688 35.16015625 363.384765625 32.7431640625 c 0,8,9
 372 30.3251953125 372 30.3251953125 379.76171875 27.2578125 c 0,10,11
 391.049804688 22.7958984375 391.049804688 22.7958984375 391.049804688 5 c 0,12,13
 391.049804688 -2.3759765625 391.049804688 -2.3759765625 388.28515625 -7.9931640625 c 0,14,15
 385.51953125 -13.611328125 385.51953125 -13.611328125 378.6640625 -14.5556640625 c 0,16,17
 371.807617188 -15.5 371.807617188 -15.5 363.270507812 -15.5 c 0,18,19
 354.734375 -15.5 354.734375 -15.5 342.854492188 -13 c 0,20,21
 330.974609375 -10.5 330.974609375 -10.5 316.411132812 -10.5 c 0,22,23
 301.84765625 -10.5 301.84765625 -10.5 283.697265625 -13 c 0,24,25
 265.547851562 -15.5 265.547851562 -15.5 248.16015625 -15.5 c 2,26,-1
 240.900390625 -15.5 l 2,27,28
 234.967773438 -15.5 234.967773438 -15.5 229.392578125 -13.248046875 c 0,29,30
 220.76953125 -9.763671875 220.76953125 -9.763671875 220.76953125 7 c 0,31,32
 220.76953125 13.1044921875 220.76953125 13.1044921875 223.540039062 17.302734375 c 2,33,-1
 226.180664062 21.302734375 l 1,34,-1
 226.400390625 21.634765625 l 1,35,36
 233.572265625 30.087890625 233.572265625 30.087890625 242.143554688 32.251953125 c 0,37,38
 250.713867188 34.416015625 250.713867188 34.416015625 257.499023438 35.818359375 c 0,39,40
 264.28515625 37.2197265625 264.28515625 37.2197265625 268.842773438 41.439453125 c 0,41,42
 273.400390625 45.66015625 273.400390625 45.66015625 274.8046875 56.7041015625 c 0,43,44
 276.209960938 67.7490234375 276.209960938 67.7490234375 276.209960938 72 c 2,45,-1
 276.209960938 87 l 1,46,-1
 276.650390625 130.111328125 l 1,47,-1
 276.4296875 171.888671875 l 2,48,49
 276.4296875 213.568359375 276.4296875 213.568359375 277.969726562 250.904296875 c 0,50,51
 279.509765625 288.239257812 279.509765625 288.239257812 279.509765625 307.833984375 c 0,52,53
 279.509765625 349.52734375 279.509765625 349.52734375 272.142578125 371.055664062 c 0,54,55
 262.990234375 397.797851562 262.990234375 397.797851562 241.431640625 399.5 c 1,56,-1
 170.940429688 399.5 l 2,57,58
 154.509765625 399.5 154.509765625 399.5 143.810546875 399.049804688 c 0,59,60
 133.111328125 398.599609375 133.111328125 398.599609375 127.806640625 398.51953125 c 1,61,62
 126.038085938 393.936523438 126.038085938 393.936523438 126.038085938 385.529296875 c 2,63,-1
 126.389648438 358 l 1,64,-1
 125.73046875 82 l 2,65,66
 125.73046875 61.3125 125.73046875 61.3125 129.88671875 52.0751953125 c 0,67,68
 134.043945312 42.837890625 134.043945312 42.837890625 140.317382812 38.0849609375 c 0,69,70
 146.591796875 33.3310546875 146.591796875 33.3310546875 156.532226562 31.8740234375 c 0,71,72
 166.473632812 30.416015625 166.473632812 30.416015625 179.381835938 25.814453125 c 1,73,-1
 180.379882812 24.302734375 l 2,74,75
 184.469726562 18.1044921875 184.469726562 18.1044921875 184.469726562 8.4453125 c 0,76,77
 184.469726562 -1.21484375 184.469726562 -1.21484375 180.336914062 -6.009765625 c 1,78,-1
 179.659179688 -9.0888671875 l 1,79,-1
 178.010742188 -10.5166015625 l 2,80,81
 172.254882812 -15.5 172.254882812 -15.5 161.180664062 -15.5 c 0,82,83
 150.107421875 -15.5 150.107421875 -15.5 136.907226562 -12.5 c 0,84,85
 123.70703125 -9.5 123.70703125 -9.5 107.850585938 -9.5 c 0,86,87
 91.994140625 -9.5 91.994140625 -9.5 72.5244140625 -12.5 c 0,88,89
 53.0546875 -15.5 53.0546875 -15.5 41.2578125 -15.5 c 0,90,91
 29.4619140625 -15.5 29.4619140625 -15.5 22.2958984375 -14.4658203125 c 0,92,93
 10.8896484375 -12.8203125 10.8896484375 -12.8203125 10.8896484375 2 c 0,94,95
 10.8896484375 21.626953125 10.8896484375 21.626953125 22.373046875 26.701171875 c 0,96,97
 30.4384765625 30.265625 30.4384765625 30.265625 40.1337890625 33.58203125 c 0,98,99
 49.828125 36.8994140625 49.828125 36.8994140625 56.4287109375 45.650390625 c 0,100,101
 63.0302734375 54.4013671875 63.0302734375 54.4013671875 63.0302734375 81 c 2,102,-1
 63.0302734375 375 l 2,103,104
 63.0302734375 384.76171875 63.0302734375 384.76171875 61.83203125 395.182617188 c 1,105,106
 47.5 397.618164062 47.5 397.618164062 37.9892578125 398.069335938 c 0,107,108
 28.4775390625 398.520507812 28.4775390625 398.520507812 21.4658203125 400.645507812 c 0,109,110
 10.8896484375 403.850585938 10.8896484375 403.850585938 10.8896484375 421 c 0,111,112
 10.8896484375 437.077148438 10.8896484375 437.077148438 13.7412109375 444.27734375 c 0,113,114
 16.5927734375 451.477539062 16.5927734375 451.477539062 23.994140625 454.428710938 c 0,115,116
 34.9033203125 458.778320312 34.9033203125 458.778320312 47.248046875 460.405273438 c 0,117,118
 59.5927734375 462.032226562 59.5927734375 462.032226562 62.615234375 463.322265625 c 1,119,120
 64.4150390625 500.881835938 64.4150390625 500.881835938 65.3837890625 541.459960938 c 0,121,122
 66.3515625 582.0390625 66.3515625 582.0390625 73.0703125 621.778320312 c 0,123,124
 79.154296875 661.676757812 79.154296875 661.676757812 91.6875 697.603515625 c 0,125,126
 104.221679688 733.530273438 104.221679688 733.530273438 122.59375 760.8515625 c 0,127,128
 141.067382812 788.32421875 141.067382812 788.32421875 164.67578125 803.942382812 c 0,129,130
 188.28515625 819.560546875 188.28515625 819.560546875 215.116210938 819.560546875 c 0,131,132
 233.041015625 819.560546875 233.041015625 819.560546875 247.958007812 816.407226562 c 0,133,134
 262.875976562 813.252929688 262.875976562 813.252929688 275.25390625 803.607421875 c 0,135,136
 287.6328125 793.961914062 287.6328125 793.961914062 296.005859375 778.516601562 c 0,137,138
 304.379882812 763.071289062 304.379882812 763.071289062 305.220703125 739.072265625 c 0,139,140
 305.84375 734.953125 305.84375 734.953125 305.84375 730.844726562 c 0,141,142
 305.84375 720.447265625 305.84375 720.447265625 301.234375 708.97265625 c 0,143,144
 296.624023438 697.497070312 296.624023438 697.497070312 288.29296875 690.038085938 c 0,145,146
 278.616210938 681.375 278.616210938 681.375 268.823242188 681.375 c 0,147,148
 250.485351562 681.375 250.485351562 681.375 245.073242188 708.31640625 c 0,149,150
 243.104492188 718.12109375 243.104492188 718.12109375 237.315429688 727.330078125 c 0,151,152
 231.404296875 736.734375 231.404296875 736.734375 218.784179688 745.12890625 c 0,153,154
 206.19921875 753.5 206.19921875 753.5 180.83984375 753.5 c 0,155,156
 168.217773438 753.5 168.217773438 753.5 159.392578125 741.46484375 c 0,157,158
 142.751953125 718.7734375 142.751953125 718.7734375 133.837890625 663.709960938 c 0,159,160
 124.41015625 605.47265625 124.41015625 605.47265625 124.41015625 518 c 2,161,-1
 124.41015625 504 l 2,162,163
 124.41015625 468.260742188 124.41015625 468.260742188 126.224609375 460.5 c 1,164,-1
 278.51953125 460.5 l 2,165,166
 293.306640625 460.5 293.306640625 460.5 311.706054688 473.775390625 c 0,167,168
 324.680664062 483.13671875 324.680664062 483.13671875 329.14453125 483.13671875 c 0,169,170
 333.609375 483.13671875 333.609375 483.13671875 336.139648438 479.302734375 c 0,171,172
 336.393554688 478.916992188 336.393554688 478.916992188 336.581054688 478.73828125 c 0,173,174
 341.549804688 476.708007812 341.549804688 476.708007812 341.549804688 469 c 0,175,176
 341.549804688 438.811523438 341.549804688 438.811523438 340.224609375 408.625 c 0,177,178
 337.602539062 285.353515625 337.602539062 285.353515625 340.228515625 134.200195312 c 1,179,-1
 340.228515625 134.100585938 l 1,0,-1
EndSplineSet
EndChar

StartChar: fl
Encoding: 27 27 13
Width: 415
Flags: W
LayerCount: 2
Fore
SplineSet
335.610351562 798 m 1,0,-1
 336.26953125 741.98828125 l 1,1,-1
 335.610351562 79 l 2,2,3
 335.610351562 49.75390625 335.610351562 49.75390625 344.649414062 43.2861328125 c 0,4,5
 355.788085938 35.31640625 355.788085938 35.31640625 374.510742188 32.1640625 c 1,6,-1
 375.200195312 31.1181640625 l 1,7,8
 376.771484375 31.5 376.771484375 31.5 378.1796875 31.5 c 2,9,-1
 378.474609375 31.4873046875 l 2,10,11
 384.96875 30.908203125 384.96875 30.908203125 388.940429688 26.306640625 c 0,12,13
 394.349609375 20.0380859375 394.349609375 20.0380859375 394.349609375 8 c 0,14,15
 394.349609375 -7.58203125 394.349609375 -7.58203125 385.142578125 -12.7197265625 c 0,16,17
 383.278320312 -14.5 383.278320312 -14.5 378.83984375 -14.5 c 2,18,-1
 376.200195312 -14.5 l 2,19,20
 360.09375 -14.5 360.09375 -14.5 344.583984375 -12 c 0,21,22
 329.07421875 -9.5 329.07421875 -9.5 311.518554688 -9.5 c 0,23,24
 293.962890625 -9.5 293.962890625 -9.5 275.153320312 -12.5 c 0,25,26
 256.342773438 -15.5 256.342773438 -15.5 236.280273438 -15.5 c 0,27,28
 232.607421875 -15.5 232.607421875 -15.5 225.640625 -13.9169921875 c 0,29,30
 214.830078125 -11.4599609375 214.830078125 -11.4599609375 214.830078125 3 c 0,31,32
 214.830078125 21.857421875 214.830078125 21.857421875 222.537109375 24.7763671875 c 0,33,34
 226.206054688 26.166015625 226.206054688 26.166015625 234.69140625 31.111328125 c 1,35,36
 245.8671875 36.091796875 245.8671875 36.091796875 256.200195312 42.4521484375 c 0,37,38
 269.33203125 50.53515625 269.33203125 50.53515625 270.946289062 81.10546875 c 0,39,40
 271.58984375 93.3037109375 271.58984375 93.3037109375 271.58984375 102.013671875 c 2,41,-1
 272.25 646 l 2,42,43
 272.25 682.258789062 272.25 682.258789062 264.5390625 706.091796875 c 0,44,45
 256.829101562 729.923828125 256.829101562 729.923828125 244.3828125 742.801757812 c 0,46,47
 229.059570312 758.658203125 229.059570312 758.658203125 207.357421875 758.658203125 c 0,48,49
 195.069335938 758.658203125 195.069335938 758.658203125 182.008789062 753.7109375 c 0,50,51
 162.216796875 746.44140625 162.216796875 746.44140625 151.0625 718.7421875 c 0,52,53
 139.908203125 691.043945312 139.908203125 691.043945312 133.788085938 655.419921875 c 0,54,55
 124.41015625 600.82421875 124.41015625 600.82421875 124.41015625 518 c 2,56,-1
 124.41015625 504 l 2,57,58
 124.41015625 468.260742188 124.41015625 468.260742188 126.224609375 460.5 c 1,59,-1
 199.3203125 460.5 l 2,60,61
 209.94921875 460.5 209.94921875 460.5 216.01953125 451.302734375 c 2,62,-1
 217.469726562 449.104492188 l 1,63,-1
 217.469726562 446 l 1,64,-1
 218.129882812 428 l 2,65,66
 218.129882812 414.501953125 218.129882812 414.501953125 213.182617188 404.505859375 c 2,67,-1
 212.043945312 402.206054688 l 1,68,69
 203.114257812 399.5 203.114257812 399.5 194.040039062 399.5 c 2,70,-1
 138.599609375 399.5 l 2,71,72
 133.741210938 399.5 133.741210938 399.5 127.91796875 398.797851562 c 1,73,74
 126.059570312 394 126.059570312 394 126.038085938 385.529296875 c 2,75,-1
 126.389648438 358 l 1,76,-1
 125.73046875 82 l 2,77,78
 125.73046875 61.3125 125.73046875 61.3125 129.88671875 52.0751953125 c 0,79,80
 134.043945312 42.837890625 134.043945312 42.837890625 140.317382812 38.0849609375 c 0,81,82
 146.591796875 33.3310546875 146.591796875 33.3310546875 156.532226562 31.8740234375 c 0,83,84
 166.473632812 30.416015625 166.473632812 30.416015625 179.381835938 25.814453125 c 1,85,-1
 180.379882812 24.302734375 l 2,86,87
 184.469726562 18.1044921875 184.469726562 18.1044921875 184.469726562 8.4453125 c 0,88,89
 184.469726562 -1.21484375 184.469726562 -1.21484375 180.336914062 -6.009765625 c 1,90,-1
 179.659179688 -9.0888671875 l 1,91,-1
 178.010742188 -10.5166015625 l 2,92,93
 172.254882812 -15.5 172.254882812 -15.5 161.180664062 -15.5 c 0,94,95
 150.107421875 -15.5 150.107421875 -15.5 136.907226562 -12.5 c 0,96,97
 123.70703125 -9.5 123.70703125 -9.5 107.850585938 -9.5 c 0,98,99
 91.994140625 -9.5 91.994140625 -9.5 72.5244140625 -12.5 c 0,100,101
 53.0546875 -15.5 53.0546875 -15.5 41.2578125 -15.5 c 0,102,103
 29.4619140625 -15.5 29.4619140625 -15.5 22.2958984375 -14.4658203125 c 0,104,105
 10.8896484375 -12.8203125 10.8896484375 -12.8203125 10.8896484375 2 c 0,106,107
 10.8896484375 21.626953125 10.8896484375 21.626953125 22.373046875 26.701171875 c 0,108,109
 30.4384765625 30.265625 30.4384765625 30.265625 40.1337890625 33.58203125 c 0,110,111
 49.828125 36.8994140625 49.828125 36.8994140625 56.4287109375 45.650390625 c 0,112,113
 63.0302734375 54.4013671875 63.0302734375 54.4013671875 63.0302734375 81 c 2,114,-1
 63.0302734375 375 l 2,115,116
 63.0302734375 384.76171875 63.0302734375 384.76171875 61.83203125 395.182617188 c 1,117,118
 47.5 397.618164062 47.5 397.618164062 37.9892578125 398.069335938 c 0,119,120
 28.4775390625 398.520507812 28.4775390625 398.520507812 21.4658203125 400.645507812 c 0,121,122
 10.8896484375 403.850585938 10.8896484375 403.850585938 10.8896484375 421 c 0,123,124
 10.8896484375 437.077148438 10.8896484375 437.077148438 13.7412109375 444.27734375 c 0,125,126
 16.5927734375 451.477539062 16.5927734375 451.477539062 23.994140625 454.428710938 c 0,127,128
 34.9033203125 458.778320312 34.9033203125 458.778320312 47.248046875 460.405273438 c 0,129,130
 59.5927734375 462.032226562 59.5927734375 462.032226562 62.615234375 463.322265625 c 1,131,132
 64.4150390625 500.881835938 64.4150390625 500.881835938 65.3837890625 541.459960938 c 0,133,134
 66.3515625 582.0390625 66.3515625 582.0390625 73.0703125 621.778320312 c 0,135,136
 79.154296875 661.676757812 79.154296875 661.676757812 91.6875 697.603515625 c 0,137,138
 104.221679688 733.530273438 104.221679688 733.530273438 122.59375 760.8515625 c 0,139,140
 141.067382812 788.32421875 141.067382812 788.32421875 164.67578125 803.942382812 c 0,141,142
 188.28515625 819.560546875 188.28515625 819.560546875 215.116210938 819.560546875 c 0,143,144
 236.930664062 819.560546875 236.930664062 819.560546875 254.651367188 812.4375 c 0,145,146
 272.372070312 805.313476562 272.372070312 805.313476562 283.9609375 786.728515625 c 1,147,148
 297.234375 793.776367188 297.234375 793.776367188 308.877929688 800.452148438 c 0,149,150
 320.522460938 807.126953125 320.522460938 807.126953125 327.540039062 810.165039062 c 1,151,-1
 329.440429688 808.245117188 l 1,152,-1
 333.400390625 804.245117188 l 1,153,-1
 335.610351562 802.013671875 l 1,154,-1
 335.610351562 798 l 1,0,-1
EndSplineSet
EndChar

StartChar: Lslash
Encoding: 28 28 14
Width: 423
Flags: W
LayerCount: 2
Fore
SplineSet
22.015625 311.8984375 m 0,0,1
 22.015625 323.064453125 22.015625 323.064453125 38.05078125 335.212890625 c 0,2,3
 44.0400390625 339.75 44.0400390625 339.75 50.2236328125 344.1875 c 0,4,5
 56.40625 348.625 56.40625 348.625 59.7861328125 351.697265625 c 0,6,7
 69.0263671875 357.697265625 69.0263671875 357.697265625 78.1787109375 366.017578125 c 0,8,9
 87.3310546875 374.337890625 87.3310546875 374.337890625 96.0302734375 381.483398438 c 1,10,-1
 96.0302734375 614 l 2,11,12
 96.0302734375 635.608398438 96.0302734375 635.608398438 92.8037109375 658.708007812 c 0,13,14
 90.6220703125 677.708007812 90.6220703125 677.708007812 81.5439453125 683.602539062 c 0,15,16
 70.6318359375 690.688476562 70.6318359375 690.688476562 57.701171875 693.137695312 c 0,17,18
 44.771484375 695.586914062 44.771484375 695.586914062 34.0634765625 698.62890625 c 0,19,20
 19.4697265625 702.774414062 19.4697265625 702.774414062 19.4697265625 723 c 0,21,22
 19.4697265625 743.309570312 19.4697265625 743.309570312 31.1572265625 746.388671875 c 0,23,24
 39.1689453125 748.5 39.1689453125 748.5 55.353515625 748.5 c 0,25,26
 71.537109375 748.5 71.537109375 748.5 93.9775390625 745 c 0,27,28
 116.416992188 741.5 116.416992188 741.5 140.634765625 741.5 c 0,29,30
 164.852539062 741.5 164.852539062 741.5 187.291992188 743.5 c 0,31,32
 209.732421875 745.5 209.732421875 745.5 238.259765625 745.5 c 2,33,-1
 240.140625 745.5 l 1,34,-1
 241.545898438 743.606445312 l 2,35,36
 248.881835938 733.727539062 248.881835938 733.727539062 249.809570312 722.47265625 c 1,37,38
 249.809570312 704.592773438 249.809570312 704.592773438 238.504882812 698.8828125 c 0,39,40
 230.04296875 694.609375 230.04296875 694.609375 218.58984375 693.032226562 c 2,41,-1
 197.147460938 690.033203125 l 2,42,43
 188.052734375 688.741210938 188.052734375 688.741210938 181.931640625 682.110351562 c 0,44,45
 171.9296875 668.80859375 171.9296875 668.80859375 171.9296875 608 c 0,46,47
 171.9296875 561.958007812 171.9296875 561.958007812 171.62109375 519.854492188 c 0,48,49
 171.3125 477.750976562 171.3125 477.750976562 171.275390625 437.827148438 c 1,50,51
 187.249023438 449.33203125 187.249023438 449.33203125 204.067382812 462.528320312 c 0,52,53
 226.665039062 480.259765625 226.665039062 480.259765625 230.84375 482.98828125 c 0,54,55
 235.021484375 485.715820312 235.021484375 485.715820312 236.356445312 485.715820312 c 0,56,57
 239.97265625 485.715820312 239.97265625 485.715820312 242.857421875 480.794921875 c 0,58,59
 245.7421875 475.874023438 245.7421875 475.874023438 249.831054688 463.094726562 c 2,60,-1
 260.77734375 429.370117188 l 2,61,62
 261.162109375 427.622070312 261.162109375 427.622070312 261.162109375 425.780273438 c 0,63,64
 261.162109375 419.8984375 261.162109375 419.8984375 257.81640625 415.463867188 c 0,65,66
 250.306640625 405.506835938 250.306640625 405.506835938 243.041992188 400.370117188 c 0,67,68
 235.776367188 395.233398438 235.776367188 395.233398438 233.834960938 393.76171875 c 0,69,70
 231.892578125 392.290039062 231.892578125 392.290039062 170.610351562 344.427734375 c 1,71,-1
 170.610351562 204 l 2,72,73
 170.610351562 151.37890625 170.610351562 151.37890625 172.228515625 126.8515625 c 0,74,75
 175.34375 79.6611328125 175.34375 79.6611328125 182.11328125 68.6875 c 0,76,77
 198.107421875 51.17578125 198.107421875 51.17578125 218.721679688 47.447265625 c 0,78,79
 228.833007812 45.6171875 228.833007812 45.6171875 239.25 45.6171875 c 0,80,81
 249.66796875 45.6171875 249.66796875 45.6171875 265.150390625 48.96875 c 0,82,83
 280.6328125 52.3203125 280.6328125 52.3203125 296.856445312 60.9951171875 c 0,84,85
 313.079101562 69.6708984375 313.079101562 69.6708984375 318.676757812 76.267578125 c 1,86,87
 328.723632812 84.830078125 328.723632812 84.830078125 340.525390625 107.061523438 c 0,88,89
 352.327148438 129.29296875 352.327148438 129.29296875 362.127929688 154.041992188 c 0,90,91
 371.928710938 178.791015625 371.928710938 178.791015625 379.670898438 199.193359375 c 0,92,93
 387.4140625 219.594726562 387.4140625 219.594726562 390.080078125 223.634765625 c 0,94,95
 396.040039062 230.658203125 396.040039062 230.658203125 403.009765625 230.658203125 c 0,96,97
 405.428710938 230.658203125 405.428710938 230.658203125 407.944335938 229.829101562 c 0,98,99
 417.984375 226.522460938 417.984375 226.522460938 421.645507812 214.040039062 c 2,100,-1
 422.720703125 210.376953125 l 1,101,102
 404.452148438 166.728515625 404.452148438 166.728515625 395.334960938 126.768554688 c 0,103,104
 386.21875 86.80859375 386.21875 86.80859375 380.62890625 54.9248046875 c 0,105,106
 375.0390625 23.041015625 375.0390625 23.041015625 371.842773438 5.4306640625 c 0,107,108
 368.646484375 -12.1806640625 368.646484375 -12.1806640625 365.326171875 -17.33984375 c 0,109,110
 362.005859375 -22.5 362.005859375 -22.5 358.379882812 -22.5 c 0,111,112
 313.166015625 -22.5 313.166015625 -22.5 265.686523438 -13.44140625 c 0,113,114
 197.9453125 -4.6376953125 197.9453125 -4.6376953125 174.97265625 -4.5693359375 c 0,115,116
 152.000976562 -4.5 152.000976562 -4.5 135.607421875 -6.4873046875 c 0,117,118
 119.21484375 -8.4736328125 119.21484375 -8.4736328125 104.053710938 -10.4716796875 c 0,119,120
 88.85546875 -12.4736328125 88.85546875 -12.4736328125 72.248046875 -14.4873046875 c 0,121,122
 55.640625 -16.5 55.640625 -16.5 33 -16.5 c 0,123,124
 26.662109375 -16.5 26.662109375 -16.5 22.736328125 -9.064453125 c 0,125,126
 18.8095703125 -1.62890625 18.8095703125 -1.62890625 18.8095703125 7 c 0,127,128
 18.8095703125 26.0791015625 18.8095703125 26.0791015625 28.5244140625 31.966796875 c 0,129,130
 35.8515625 36.4072265625 35.8515625 36.4072265625 46.37890625 37.4365234375 c 0,131,132
 56.9052734375 38.4658203125 56.9052734375 38.4658203125 67.576171875 40.775390625 c 0,133,134
 78.2470703125 43.0849609375 78.2470703125 43.0849609375 86.3232421875 54.3974609375 c 0,135,136
 99.06640625 73.919921875 99.06640625 73.919921875 99.06640625 169.5 c 0,137,138
 99.06640625 198.490234375 99.06640625 198.490234375 98.001953125 229.532226562 c 0,139,140
 96.9375 260.575195312 96.9375 260.575195312 96.298828125 287.067382812 c 1,141,142
 66.0458984375 264.1484375 66.0458984375 264.1484375 59.1953125 259.997070312 c 0,143,144
 48.240234375 253.357421875 48.240234375 253.357421875 44.0830078125 253.357421875 c 0,145,146
 39.9267578125 253.357421875 39.9267578125 253.357421875 38.4013671875 258.55859375 c 0,147,148
 35.71484375 264.015625 35.71484375 264.015625 32.7646484375 273.453125 c 0,149,150
 22.015625 307.834960938 22.015625 307.834960938 22.015625 311.8984375 c 0,0,1
EndSplineSet
EndChar

StartChar: lslash
Encoding: 29 29 15
Width: 213
Flags: W
LayerCount: 2
Fore
SplineSet
138.9296875 666 m 1,0,-1
 138.26953125 527 l 1,1,-1
 138.26953125 465.193359375 l 1,2,3
 153.58984375 477.055664062 153.58984375 477.055664062 168.034179688 488.83984375 c 0,4,5
 182.473632812 500.62109375 182.473632812 500.62109375 193.94140625 509.819335938 c 0,6,7
 195.420898438 510.715820312 195.420898438 510.715820312 196.752929688 510.715820312 c 0,8,9
 200.413085938 510.715820312 200.413085938 510.715820312 203.225585938 505.725585938 c 0,10,11
 206.038085938 500.734375 206.038085938 500.734375 209.844726562 488.045898438 c 0,12,13
 213.651367188 475.356445312 213.651367188 475.356445312 221.036132812 455.012695312 c 0,14,15
 221.561523438 452.622070312 221.561523438 452.622070312 221.561523438 450.759765625 c 0,16,17
 221.561523438 441.240234375 221.561523438 441.240234375 210.159179688 430.607421875 c 0,18,19
 205.559570312 426.319335938 205.559570312 426.319335938 200.857421875 423.265625 c 0,20,21
 196.154296875 420.211914062 196.154296875 420.211914062 192.348632812 417.333007812 c 2,22,-1
 138.26953125 373.505859375 l 1,23,-1
 138.26953125 78 l 2,24,25
 138.26953125 48.75390625 138.26953125 48.75390625 147.309570312 42.2861328125 c 0,26,27
 158.448242188 34.31640625 158.448242188 34.31640625 177.170898438 31.1640625 c 1,28,-1
 177.860351562 30.1181640625 l 1,29,30
 179.431640625 30.5 179.431640625 30.5 180.83984375 30.5 c 2,31,-1
 181.134765625 30.4873046875 l 2,32,33
 187.62890625 29.908203125 187.62890625 29.908203125 191.599609375 25.306640625 c 0,34,35
 197.009765625 19.0380859375 197.009765625 19.0380859375 197.009765625 7 c 0,36,37
 197.009765625 -8.58203125 197.009765625 -8.58203125 187.802734375 -13.7197265625 c 0,38,39
 185.938476562 -15.5 185.938476562 -15.5 181.5 -15.5 c 2,40,-1
 178.860351562 -15.5 l 2,41,42
 162.75390625 -15.5 162.75390625 -15.5 147.244140625 -13 c 0,43,44
 131.734375 -10.5 131.734375 -10.5 114.178710938 -10.5 c 0,45,46
 96.623046875 -10.5 96.623046875 -10.5 77.8134765625 -13.5 c 0,47,48
 59.0029296875 -16.5 59.0029296875 -16.5 38.9404296875 -16.5 c 0,49,50
 35.2666015625 -16.5 35.2666015625 -16.5 28.30078125 -14.9169921875 c 0,51,52
 17.490234375 -12.4599609375 17.490234375 -12.4599609375 17.490234375 2 c 0,53,54
 17.490234375 20.857421875 17.490234375 20.857421875 25.197265625 23.7763671875 c 0,55,56
 28.8662109375 25.166015625 28.8662109375 25.166015625 37.3515625 30.111328125 c 1,57,58
 48.52734375 35.091796875 48.52734375 35.091796875 58.8603515625 41.4521484375 c 0,59,60
 71.9921875 49.53515625 71.9921875 49.53515625 73.60546875 80.10546875 c 0,61,62
 74.25 92.3037109375 74.25 92.3037109375 74.25 101 c 2,63,-1
 74.25 323.529296875 l 1,64,-1
 49.1220703125 303.328125 l 2,65,66
 44.92578125 300.1484375 44.92578125 300.1484375 34.775390625 293.997070312 c 0,67,68
 20.51953125 285.357421875 20.51953125 285.357421875 16.36328125 285.357421875 c 0,69,70
 12.2060546875 285.357421875 12.2060546875 285.357421875 10.681640625 290.55859375 c 0,71,72
 7.9951171875 296.015625 7.9951171875 296.015625 5.044921875 305.453125 c 0,73,74
 -5.7041015625 339.834960938 -5.7041015625 339.834960938 -5.7041015625 345.11328125 c 0,75,76
 -5.7041015625 350.391601562 -5.7041015625 350.391601562 -0.8994140625 355.8515625 c 0,77,78
 7.556640625 365.4609375 7.556640625 365.4609375 18.12109375 373.04296875 c 0,79,80
 28.6865234375 380.625 28.6865234375 380.625 32.1640625 383.786132812 c 1,81,82
 37.513671875 386.826171875 37.513671875 386.826171875 45.4365234375 393.548828125 c 0,83,84
 53.3125 400.231445312 53.3125 400.231445312 74.91015625 416.633789062 c 1,85,-1
 74.91015625 472 l 1,86,-1
 75.5703125 584 l 1,87,-1
 75.5703125 645 l 2,88,89
 75.5703125 659.68359375 75.5703125 659.68359375 74.6591796875 676.25 c 0,90,91
 73.748046875 692.81640625 73.748046875 692.81640625 67.642578125 703.90234375 c 0,92,93
 65.537109375 706.96484375 65.537109375 706.96484375 60.6767578125 710.646484375 c 0,94,95
 48.63671875 719.768554688 48.63671875 719.768554688 41.6435546875 726.2890625 c 0,96,97
 34.650390625 732.809570312 34.650390625 732.809570312 34.650390625 742 c 2,98,-1
 34.650390625 746 l 2,99,100
 34.650390625 753.635742188 34.650390625 753.635742188 38.7109375 756.712890625 c 2,101,-1
 39.7509765625 757.5 l 1,102,-1
 40.919921875 757.5 l 2,103,104
 46.15625 757.5 46.15625 757.5 60.5810546875 763.814453125 c 0,105,106
 93.51171875 778.228515625 93.51171875 778.228515625 115.930664062 795.212890625 c 0,107,108
 121.32421875 799.298828125 121.32421875 799.298828125 124.41015625 802.940429688 c 1,109,-1
 124.41015625 815.013671875 l 1,110,-1
 132.100585938 807.245117188 l 1,111,-1
 136.060546875 803.245117188 l 1,112,-1
 138.26953125 801.013671875 l 1,113,-1
 138.26953125 797 l 1,114,-1
 138.9296875 741 l 1,115,-1
 138.9296875 666 l 1,0,-1
EndSplineSet
EndChar

StartChar: Zcaron
Encoding: 30 30 16
Width: 511
Flags: W
LayerCount: 2
Fore
SplineSet
367.620117188 687.5 m 2,0,-1
 345.1796875 686.5 l 1,1,-1
 298.3203125 686.5 l 2,2,3
 275.26171875 686.5 275.26171875 686.5 216.260742188 685.001953125 c 0,4,5
 157.259765625 683.50390625 157.259765625 683.50390625 142.161132812 682.509765625 c 0,6,7
 120.983398438 680.559570312 120.983398438 680.559570312 104.420898438 672.983398438 c 0,8,9
 87.859375 665.408203125 87.859375 665.408203125 72.8701171875 640.8046875 c 0,10,11
 68.0068359375 633.435546875 68.0068359375 633.435546875 63.5625 621.411132812 c 0,12,13
 59.1181640625 609.387695312 59.1181640625 609.387695312 54.7197265625 597.083007812 c 0,14,15
 50.3203125 584.778320312 50.3203125 584.778320312 44.46875 574.139648438 c 0,16,17
 38.6171875 563.5 38.6171875 563.5 32.33984375 563.5 c 0,18,19
 28.2734375 563.5 28.2734375 563.5 21.279296875 566.846679688 c 0,20,21
 13.0546875 570.782226562 13.0546875 570.782226562 13.0546875 581.448242188 c 0,22,23
 13.0546875 584.19921875 13.0546875 584.19921875 13.71484375 587.091796875 c 0,24,25
 17.830078125 615.061523438 17.830078125 615.061523438 23.0458984375 640.995117188 c 0,26,27
 33.5439453125 693.188476562 33.5439453125 693.188476562 36.208984375 704.801757812 c 0,28,29
 38.873046875 716.416015625 38.873046875 716.416015625 42.822265625 734.370117188 c 0,30,31
 47.9111328125 757.5 47.9111328125 757.5 60.7197265625 757.5 c 0,32,33
 73.76953125 757.5 73.76953125 757.5 80.0888671875 752.712890625 c 0,34,35
 86.7392578125 747.674804688 86.7392578125 747.674804688 96.7392578125 746.296875 c 1,36,37
 106.438476562 736.5 106.438476562 736.5 136.620117188 736.5 c 2,38,-1
 149.16015625 736.5 l 2,39,40
 179.46484375 736.5 179.46484375 736.5 216.720703125 737.499023438 c 0,41,42
 254.03515625 738.499023438 254.03515625 738.499023438 292.997070312 739 c 0,43,44
 331.915039062 739.499023438 331.915039062 739.499023438 369.180664062 740.499023438 c 0,45,46
 406.5078125 741.5 406.5078125 741.5 437.580078125 741.5 c 0,47,48
 443.766601562 741.5 443.766601562 741.5 453.571289062 743.9765625 c 0,49,50
 468.318359375 747.700195312 468.318359375 747.700195312 475.873046875 747.700195312 c 0,51,52
 483.370117188 747.700195312 483.370117188 747.700195312 488.853515625 743.790039062 c 0,53,54
 495.846679688 738.803710938 495.846679688 738.803710938 495.846679688 726.716796875 c 0,55,56
 495.846679688 720.456054688 495.846679688 720.456054688 495.134765625 718.465820312 c 0,57,58
 490.93359375 706.7109375 490.93359375 706.7109375 452.215820312 639.098632812 c 0,59,60
 386.83203125 524.506835938 386.83203125 524.506835938 359.3046875 475.313476562 c 0,61,62
 331.778320312 426.120117188 331.778320312 426.120117188 305.689453125 380.586914062 c 0,63,64
 283.001953125 340.9921875 283.001953125 340.9921875 244.7734375 272.704101562 c 0,65,66
 206.544921875 204.416992188 206.544921875 204.416992188 201.958007812 195.495117188 c 0,67,68
 196.583007812 184.311523438 196.583007812 184.311523438 185.311523438 163.716796875 c 0,69,70
 174.102539062 143.237304688 174.102539062 143.237304688 162.291015625 121.36328125 c 0,71,72
 150.479492188 99.4892578125 150.479492188 99.4892578125 142.068359375 81.08203125 c 0,73,74
 133.657226562 62.673828125 133.657226562 62.673828125 132.3359375 51.43359375 c 0,75,76
 132.552734375 41.8330078125 132.552734375 41.8330078125 150.259765625 41.8330078125 c 2,77,-1
 166.98046875 42.5 l 1,78,-1
 298.98046875 43.5 l 2,79,80
 322.649414062 43.5 322.649414062 43.5 349.634765625 44.9775390625 c 0,81,82
 376.62109375 46.4560546875 376.62109375 46.4560546875 399.724609375 56.130859375 c 0,83,84
 415.4375 65.3662109375 415.4375 65.3662109375 424.11328125 82.2666015625 c 0,85,86
 432.7890625 99.16796875 432.7890625 99.16796875 441.844726562 122.676757812 c 0,87,88
 445.520507812 132.916015625 445.520507812 132.916015625 448.15625 146.892578125 c 0,89,90
 450.791992188 160.869140625 450.791992188 160.869140625 455.037109375 172.564453125 c 0,91,92
 459.283203125 184.259765625 459.283203125 184.259765625 466.463867188 187.66015625 c 0,93,94
 468.237304688 188.5 468.237304688 188.5 470.157226562 188.5 c 0,95,96
 476.594726562 188.5 476.594726562 188.5 485.701171875 177.001953125 c 1,97,98
 488.0703125 156.663085938 488.0703125 156.663085938 488.0703125 139.3671875 c 0,99,100
 488.0703125 122.071289062 488.0703125 122.071289062 485.046875 103.749023438 c 0,101,102
 479.87890625 72.4287109375 479.87890625 72.4287109375 478.322265625 50.41015625 c 0,103,104
 476.764648438 28.3916015625 476.764648438 28.3916015625 473.81640625 14.9892578125 c 0,105,106
 470.8671875 1.5859375 470.8671875 1.5859375 464.021484375 -6.95703125 c 0,107,108
 457.174804688 -15.5 457.174804688 -15.5 444.83984375 -15.5 c 0,109,110
 418.970703125 -15.5 418.970703125 -15.5 393.23046875 -13.5 c 0,111,112
 367.490234375 -11.5 367.490234375 -11.5 341.879882812 -11.5 c 2,113,-1
 283.139648438 -11.5 l 2,114,115
 221.854492188 -11.5 221.854492188 -11.5 155.194335938 -15 c 0,116,117
 88.5341796875 -18.5 88.5341796875 -18.5 27.0595703125 -18.5 c 0,118,119
 20.7177734375 -18.5 20.7177734375 -18.5 16.1337890625 -13.291015625 c 0,120,121
 11.5498046875 -8.08203125 11.5498046875 -8.08203125 11.5498046875 4 c 0,122,123
 11.5498046875 7.2578125 11.5498046875 7.2578125 14.4560546875 13.5302734375 c 0,124,125
 17.36328125 19.8017578125 17.36328125 19.8017578125 25.8828125 36.2314453125 c 0,126,127
 61.9912109375 105.862304688 61.9912109375 105.862304688 90.21484375 157.93359375 c 0,128,129
 144.712890625 258.481445312 144.712890625 258.481445312 201.454101562 362.620117188 c 0,130,131
 258.1953125 466.758789062 258.1953125 466.758789062 272.701171875 493.732421875 c 0,132,133
 294.4609375 534.1953125 294.4609375 534.1953125 310.129882812 560.979492188 c 0,134,135
 350.512695312 629.814453125 350.512695312 629.814453125 361.16796875 649.283203125 c 0,136,137
 371.9296875 668.9453125 371.9296875 668.9453125 374.002929688 676.276367188 c 0,138,139
 376.217773438 679.631835938 376.217773438 679.631835938 378.73046875 686.268554688 c 1,140,141
 374.049804688 687.5 374.049804688 687.5 367.620117188 687.5 c 2,0,-1
339.900390625 971.5 m 0,142,143
 344.90234375 971.5 344.90234375 971.5 347.325195312 965.381835938 c 0,144,145
 348.809570312 961.6328125 348.809570312 961.6328125 348.809570312 956.487304688 c 0,146,147
 348.809570312 946.075195312 348.809570312 946.075195312 332.334960938 901.823242188 c 0,148,149
 325.083984375 882.34765625 325.083984375 882.34765625 316.83984375 859.865234375 c 0,150,151
 302.791015625 821.549804688 302.791015625 821.549804688 286.293945312 783.397460938 c 0,152,153
 279.544921875 767.791015625 279.544921875 767.791015625 276.206054688 763.99609375 c 2,154,-1
 273.641601562 761.08203125 l 1,155,156
 263.720703125 769.43359375 263.720703125 769.43359375 261.754882812 774.091796875 c 0,157,158
 241.961914062 823.07421875 241.961914062 823.07421875 224.014648438 866.88671875 c 0,159,160
 206.06640625 910.69921875 206.06640625 910.69921875 196.626953125 949.51953125 c 0,161,162
 195.030273438 956.778320312 195.030273438 956.778320312 195.030273438 962.666015625 c 0,163,164
 195.030273438 968.553710938 195.030273438 968.553710938 197.94140625 972.08203125 c 0,165,166
 200.852539062 975.611328125 200.852539062 975.611328125 204.672851562 975.611328125 c 0,167,168
 205.802734375 975.611328125 205.802734375 975.611328125 207.719726562 975.067382812 c 0,169,170
 211.873046875 973.888671875 211.873046875 973.888671875 220.729492188 957.786132812 c 0,171,172
 229.5859375 941.68359375 229.5859375 941.68359375 239.48828125 922.180664062 c 0,173,174
 249.389648438 902.677734375 249.389648438 902.677734375 258.106445312 886.829101562 c 0,175,176
 266.823242188 870.98046875 266.823242188 870.98046875 273.112304688 864.083984375 c 1,177,178
 282.379882812 875.250976562 282.379882812 875.250976562 303.506835938 920.8046875 c 0,179,180
 312.256835938 939.670898438 312.256835938 939.670898438 321.673828125 955.584960938 c 0,181,182
 331.090820312 971.5 331.090820312 971.5 339.900390625 971.5 c 0,142,143
EndSplineSet
EndChar

StartChar: zcaron
Encoding: 31 31 17
Width: 314
Flags: W
LayerCount: 2
Fore
SplineSet
225.719726562 713.5 m 0,0,1
 230.72265625 713.5 230.72265625 713.5 233.145507812 707.381835938 c 0,2,3
 234.629882812 703.6328125 234.629882812 703.6328125 234.629882812 698.487304688 c 0,4,5
 234.629882812 688.075195312 234.629882812 688.075195312 218.154296875 643.823242188 c 0,6,7
 210.903320312 624.34765625 210.903320312 624.34765625 202.66015625 601.865234375 c 0,8,9
 188.611328125 563.549804688 188.611328125 563.549804688 172.11328125 525.397460938 c 0,10,11
 165.365234375 509.791015625 165.365234375 509.791015625 162.025390625 505.99609375 c 2,12,-1
 159.4609375 503.08203125 l 1,13,14
 149.540039062 511.43359375 149.540039062 511.43359375 147.575195312 516.091796875 c 0,15,16
 127.782226562 565.07421875 127.782226562 565.07421875 109.833984375 608.88671875 c 128,-1,17
 91.88671875 652.69921875 91.88671875 652.69921875 82.447265625 691.51953125 c 0,18,19
 80.8017578125 697.052734375 80.8017578125 697.052734375 80.8017578125 699.233398438 c 128,-1,20
 80.8017578125 701.415039062 80.8017578125 701.415039062 80.849609375 702 c 0,21,22
 80.849609375 710.313476562 80.849609375 710.313476562 84.185546875 713.90625 c 128,-1,23
 87.5205078125 717.5 87.5205078125 717.5 91.740234375 717.5 c 2,24,-1
 92.234375 717.5 l 2,25,26
 95.45703125 716.5234375 95.45703125 716.5234375 98.890625 712.014648438 c 0,27,28
 105.287109375 703.615234375 105.287109375 703.615234375 120.248046875 674.146484375 c 128,-1,29
 135.208984375 644.677734375 135.208984375 644.677734375 143.92578125 628.829101562 c 128,-1,30
 152.642578125 612.98046875 152.642578125 612.98046875 158.932617188 606.083984375 c 1,31,32
 168.200195312 617.250976562 168.200195312 617.250976562 189.327148438 662.8046875 c 0,33,34
 198.077148438 681.670898438 198.077148438 681.670898438 207.494140625 697.584960938 c 128,-1,35
 216.911132812 713.5 216.911132812 713.5 225.719726562 713.5 c 0,0,1
275.971679688 137.666992188 m 0,36,37
 289.41015625 137.666992188 289.41015625 137.666992188 289.41015625 112 c 2,38,-1
 289.41015625 88 l 2,39,40
 289.41015625 41.2509765625 289.41015625 41.2509765625 285.353515625 10.5234375 c 0,41,42
 284.260742188 2.2392578125 284.260742188 2.2392578125 281.060546875 -4.8798828125 c 128,-1,43
 277.860351562 -12 277.860351562 -12 272.799804688 -12.1669921875 c 0,44,45
 270.310546875 -12.1669921875 270.310546875 -12.1669921875 267.23046875 -9.8330078125 c 128,-1,46
 264.150390625 -7.5 264.150390625 -7.5 260.700195312 -7.5 c 0,47,48
 209.913085938 -7.5 209.913085938 -7.5 162.760742188 -8.4990234375 c 128,-1,49
 115.532226562 -9.5 115.532226562 -9.5 64.6796875 -9.5 c 2,50,-1
 55.4404296875 -9.5 l 2,51,52
 14.8349609375 -9.5 14.8349609375 -9.5 14.8349609375 8.2744140625 c 0,53,54
 14.8349609375 8.6328125 14.8349609375 8.6328125 14.849609375 9 c 0,55,56
 14.849609375 16.26953125 14.849609375 16.26953125 16.44140625 19.88671875 c 2,57,-1
 19.638671875 29.15234375 l 1,58,59
 25.1591796875 41.7001953125 25.1591796875 41.7001953125 32.13671875 52.7763671875 c 128,-1,60
 39.115234375 63.8525390625 39.115234375 63.8525390625 44.91796875 75.5751953125 c 0,61,62
 75.248046875 133.518554688 75.248046875 133.518554688 103.239257812 192.393554688 c 2,63,-1
 159.61328125 310.276367188 l 2,64,65
 163.676757812 319.493164062 163.676757812 319.493164062 171.919921875 335.48046875 c 0,66,67
 179.94921875 351.052734375 179.94921875 351.052734375 193.983398438 381.084960938 c 128,-1,68
 208.017578125 411.1171875 208.017578125 411.1171875 210.47265625 418.165039062 c 1,69,70
 202.525390625 420.25 202.525390625 420.25 190.740234375 420.25 c 2,71,-1
 171.599609375 419.5 l 1,72,-1
 150.48046875 419.5 l 2,73,74
 132.70703125 419.5 132.70703125 419.5 113.87109375 419.0078125 c 0,75,76
 97.431640625 418.578125 97.431640625 418.578125 82.044921875 413.614257812 c 0,77,78
 72.2861328125 411.004882812 72.2861328125 411.004882812 66.37890625 402.501953125 c 128,-1,79
 60.4716796875 393.999023438 60.4716796875 393.999023438 55.541015625 384.038085938 c 128,-1,80
 50.6103515625 374.077148438 50.6103515625 374.077148438 44.8095703125 365.2890625 c 128,-1,81
 39.0087890625 356.5 39.0087890625 356.5 29.0400390625 356.5 c 0,82,83
 15.1328125 356.5 15.1328125 356.5 15.1328125 370.44921875 c 0,84,85
 15.1328125 375.83984375 15.1328125 375.83984375 17.50390625 385.41796875 c 128,-1,86
 19.8740234375 394.99609375 19.8740234375 394.99609375 20.84375 397.934570312 c 0,87,88
 22.271484375 402.259765625 22.271484375 402.259765625 25.5849609375 418.991210938 c 0,89,90
 28.9208984375 439.181640625 28.9208984375 439.181640625 31.3955078125 450.427734375 c 128,-1,91
 33.8701171875 461.674804688 33.8701171875 461.674804688 37.8720703125 469.086914062 c 128,-1,92
 41.875 476.5 41.875 476.5 50.794921875 476.5 c 128,-1,93
 59.7158203125 476.5 59.7158203125 476.5 66.9755859375 472 c 128,-1,94
 74.2353515625 467.5 74.2353515625 467.5 87.7802734375 467.5 c 2,95,-1
 193.379882812 467.5 l 2,96,97
 205.127929688 467.5 205.127929688 467.5 217.666992188 468.5 c 128,-1,98
 230.20703125 469.5 230.20703125 469.5 242.879882812 469.5 c 2,99,-1
 252.780273438 469.5 l 2,100,101
 262.305664062 469.5 262.305664062 469.5 274.850585938 467.327148438 c 128,-1,102
 287.396484375 465.155273438 287.396484375 465.155273438 292.2109375 457.860351562 c 1,103,104
 295.203125 451.513671875 295.203125 451.513671875 295.203125 445.459960938 c 0,105,106
 295.203125 437.047851562 295.203125 437.047851562 293.098632812 432.622070312 c 0,107,108
 260.744140625 364.591796875 260.744140625 364.591796875 229.377929688 300.059570312 c 128,-1,109
 198.033203125 235.5703125 198.033203125 235.5703125 165.694335938 167.571289062 c 0,110,111
 151.118164062 137.455078125 151.118164062 137.455078125 134.212890625 105.201171875 c 128,-1,112
 117.30859375 72.9482421875 117.30859375 72.9482421875 108.435546875 43.5 c 1,113,-1
 145.200195312 43.5 l 2,114,115
 185.716796875 43.5 185.716796875 43.5 203.688476562 46.4599609375 c 128,-1,116
 221.661132812 49.419921875 221.661132812 49.419921875 232.47265625 52.6962890625 c 128,-1,117
 243.284179688 55.9716796875 243.284179688 55.9716796875 246.920898438 60.6962890625 c 0,118,119
 252.606445312 68.0791015625 252.606445312 68.0791015625 256.874023438 95.2412109375 c 2,120,-1
 260.173828125 116.241210938 l 2,121,122
 262.204101562 129.161132812 262.204101562 129.161132812 267.434570312 135.763671875 c 2,123,-1
 268.809570312 137.5 l 1,124,-1
 270.599609375 137.5 l 1,125,-1
 273.661132812 137.5 l 2,126,127
 274.866210938 137.666992188 274.866210938 137.666992188 275.971679688 137.666992188 c 0,36,37
EndSplineSet
EndChar

StartChar: exclam
Encoding: 33 33 18
Width: 163
Flags: W
LayerCount: 2
Fore
SplineSet
125.73046875 46 m 0,0,1
 125.73046875 13.396484375 125.73046875 13.396484375 110.922851562 -4.5517578125 c 128,-1,2
 96.115234375 -22.5 96.115234375 -22.5 77.2197265625 -22.5 c 128,-1,3
 58.42578125 -22.5 58.42578125 -22.5 46.2080078125 -0.623046875 c 128,-1,4
 33.990234375 21.2548828125 33.990234375 21.2548828125 33.990234375 49.1201171875 c 128,-1,5
 33.990234375 76.986328125 33.990234375 76.986328125 47.2265625 98.15625 c 128,-1,6
 60.572265625 119.5 60.572265625 119.5 79.916015625 119.5 c 128,-1,7
 99.259765625 119.5 99.259765625 119.5 112.495117188 96.662109375 c 128,-1,8
 125.73046875 73.8232421875 125.73046875 73.8232421875 125.73046875 46 c 0,0,1
69.189453125 216.001953125 m 1,9,10
 65.6962890625 274.216796875 65.6962890625 274.216796875 61.57421875 327.83984375 c 0,11,12
 46.658203125 521.90234375 46.658203125 521.90234375 44.0263671875 564.436523438 c 128,-1,13
 41.39453125 606.970703125 41.39453125 606.970703125 38.90625 662.88671875 c 128,-1,14
 36.4189453125 718.802734375 36.4189453125 718.802734375 36.4189453125 720.427734375 c 128,-1,15
 36.4189453125 722.052734375 36.4189453125 722.052734375 36.4833984375 723.172851562 c 0,16,17
 36.4833984375 735.473632812 36.4833984375 735.473632812 39.6640625 742.359375 c 0,18,19
 43.240234375 750.099609375 43.240234375 750.099609375 52.6015625 750.099609375 c 0,20,21
 57.4873046875 750.099609375 57.4873046875 750.099609375 64.912109375 748.299804688 c 128,-1,22
 72.337890625 746.5 72.337890625 746.5 82.87890625 746.5 c 128,-1,23
 93.4208984375 746.5 93.4208984375 746.5 101.670898438 748 c 128,-1,24
 109.920898438 749.5 109.920898438 749.5 117.552734375 749.5 c 128,-1,25
 125.185546875 749.5 125.185546875 749.5 129.923828125 743.625976562 c 128,-1,26
 134.662109375 737.752929688 134.662109375 737.752929688 134.662109375 724.715820312 c 0,27,28
 134.662109375 714.220703125 134.662109375 714.220703125 127.8671875 633.146484375 c 128,-1,29
 121.072265625 552.073242188 121.072265625 552.073242188 115.463867188 481.594726562 c 0,30,31
 103.008789062 325.065429688 103.008789062 325.065429688 92.009765625 218.830078125 c 0,32,33
 90.7744140625 208.333007812 90.7744140625 208.333007812 83.041015625 208.333007812 c 0,34,35
 75.9375 208.333007812 75.9375 208.333007812 70.9541015625 213.99609375 c 2,36,-1
 69.189453125 216.001953125 l 1,9,10
EndSplineSet
EndChar

StartChar: quotedbl
Encoding: 34 34 19
Width: 200
Flags: W
LayerCount: 2
Fore
SplineSet
145.860351562 752.5 m 1,0,-1
 166.82421875 751.500976562 l 2,1,2
 168.665039062 752.357421875 168.665039062 752.357421875 170.415039062 752.357421875 c 0,3,4
 176.733398438 752.357421875 176.733398438 752.357421875 179.71875 742.665039062 c 0,5,6
 181.650390625 736.393554688 181.650390625 736.393554688 181.650390625 732.1171875 c 0,7,8
 181.650390625 727.840820312 181.650390625 727.840820312 181.016601562 725.03125 c 0,9,10
 178.803710938 706.086914062 178.803710938 706.086914062 174.686523438 649.060546875 c 0,11,12
 170.5703125 592.034179688 170.5703125 592.034179688 167.881835938 564.537109375 c 0,13,14
 165.192382812 537.0390625 165.192382812 537.0390625 162.974609375 529.130859375 c 0,15,16
 160.817382812 521.077148438 160.817382812 521.077148438 155.139648438 517.94921875 c 0,17,18
 151.420898438 515.900390625 151.420898438 515.900390625 149.0546875 515.900390625 c 0,19,20
 141.56640625 515.900390625 141.56640625 515.900390625 136.42578125 521.3515625 c 0,21,22
 131.362304688 526.721679688 131.362304688 526.721679688 130.40625 536.866210938 c 0,23,24
 119.45703125 646.083007812 119.45703125 646.083007812 117.325195312 679.676757812 c 0,25,26
 114.981445312 716.606445312 114.981445312 716.606445312 114.981445312 728.450195312 c 0,27,28
 114.981445312 740.29296875 114.981445312 740.29296875 116.909179688 744.966796875 c 0,29,30
 120.016601562 752.5 120.016601562 752.5 130.6796875 752.5 c 2,31,-1
 145.860351562 752.5 l 1,0,-1
50.8203125 752.5 m 1,32,-1
 71.7841796875 751.500976562 l 2,33,34
 74.53515625 752.358398438 74.53515625 752.358398438 75.375 752.357421875 c 0,35,36
 81.693359375 752.357421875 81.693359375 752.357421875 84.6787109375 742.665039062 c 0,37,38
 86.6103515625 736.393554688 86.6103515625 736.393554688 86.6103515625 732.1171875 c 0,39,40
 86.6103515625 727.840820312 86.6103515625 727.840820312 85.9765625 725.03125 c 0,41,42
 84.689453125 714.016601562 84.689453125 714.016601562 82.421875 685.049804688 c 0,43,44
 71.3505859375 543.661132812 71.3505859375 543.661132812 67.2744140625 529.130859375 c 0,45,46
 65.154296875 521.208007812 65.154296875 521.208007812 59.9150390625 518.033203125 c 0,47,48
 56.3955078125 515.900390625 56.3955078125 515.900390625 54.021484375 515.900390625 c 0,49,50
 46.701171875 515.900390625 46.701171875 515.900390625 41.2373046875 521.16796875 c 0,51,52
 35.681640625 526.525390625 35.681640625 526.525390625 34.7060546875 536.866210938 c 0,53,54
 19.94140625 684.142578125 19.94140625 684.142578125 19.94140625 732.734375 c 0,55,56
 19.94140625 740.29296875 19.94140625 740.29296875 21.869140625 744.966796875 c 0,57,58
 24.9765625 752.5 24.9765625 752.5 34.98046875 752.5 c 2,59,-1
 50.8203125 752.5 l 1,32,-1
EndSplineSet
EndChar

StartChar: numbersign
Encoding: 35 35 20
Width: 345
Flags: W
LayerCount: 2
Fore
SplineSet
195.928710938 245.5 m 1,0,1
 198.879882812 267.432617188 198.879882812 267.432617188 201.974609375 287.462890625 c 0,2,3
 205.068359375 307.494140625 205.068359375 307.494140625 207.82421875 328.478515625 c 1,4,5
 196.0625 328.397460938 196.0625 328.397460938 182.422851562 327.975585938 c 0,6,7
 168.783203125 327.553710938 168.783203125 327.553710938 152.489257812 327.505859375 c 1,8,9
 148.450195312 299.329101562 148.450195312 299.329101562 145.966796875 280.095703125 c 0,10,11
 143.483398438 260.86328125 143.483398438 260.86328125 141.002929688 245.5 c 1,12,-1
 195.928710938 245.5 l 1,0,1
163.880859375 406.484375 m 1,13,-1
 217.584960938 405.508789062 l 1,14,15
 221.217773438 437.745117188 221.217773438 437.745117188 225.319335938 475.504882812 c 0,16,17
 229.418945312 513.255859375 229.418945312 513.255859375 235.883789062 569.8515625 c 1,18,19
 246.110351562 574.5 246.110351562 574.5 255.133789062 574.5 c 0,20,21
 271.75390625 574.5 271.75390625 574.5 278.834960938 572.354492188 c 2,22,-1
 283.3046875 571 l 1,23,24
 279.455078125 520.844726562 279.455078125 520.844726562 274.431640625 482.306640625 c 0,25,26
 269.407226562 443.768554688 269.407226562 443.768554688 264.150390625 405.5 c 1,27,-1
 326.798828125 405.5 l 1,28,-1
 327.59375 399.4765625 l 1,29,-1
 329.57421875 384.4765625 l 1,30,-1
 329.669921875 383.749023438 l 1,31,-1
 329.669921875 383 l 1,32,-1
 329.669921875 369 l 2,33,34
 329.669921875 360.62109375 329.669921875 360.62109375 328.922851562 349.294921875 c 0,35,36
 328.174804688 337.967773438 328.174804688 337.967773438 323.904296875 330.203125 c 2,37,-1
 322.219726562 327.140625 l 1,38,39
 313.25 328.5 313.25 328.5 306.240234375 328.5 c 2,40,-1
 253.482421875 328.5 l 1,41,42
 244.120117188 262.299804688 244.120117188 262.299804688 241.341796875 245.5 c 1,43,-1
 296.23046875 245.5 l 1,44,-1
 297.715820312 242.384765625 l 2,45,46
 306.0859375 224.82421875 306.0859375 224.82421875 306.0859375 208.677734375 c 0,47,48
 306.0859375 191.41796875 306.0859375 191.41796875 296.748046875 164.693359375 c 1,49,50
 265.125976562 162.610351562 265.125976562 162.610351562 230.44921875 162.505859375 c 1,51,52
 226.8984375 134.984375 226.8984375 134.984375 223.138671875 99.859375 c 0,53,54
 219.381835938 64.7578125 219.381835938 64.7578125 211.412109375 -5.5 c 1,55,-1
 207.240234375 -5.5 l 1,56,-1
 189.200195312 -6.8330078125 l 2,57,58
 181.52734375 -6.8330078125 181.52734375 -6.8330078125 164.473632812 -4.845703125 c 1,59,60
 171.568359375 57.2607421875 171.568359375 57.2607421875 175.623046875 88.181640625 c 0,61,62
 179.678710938 119.1015625 179.678710938 119.1015625 182.103515625 137.592773438 c 0,63,64
 184.52734375 156.083007812 184.52734375 156.083007812 185.369140625 162.5 c 1,65,-1
 129.467773438 162.5 l 1,66,67
 125.918945312 134.986328125 125.918945312 134.986328125 118.864257812 68.4931640625 c 0,68,69
 111.80859375 1.9990234375 111.80859375 1.9990234375 111.80859375 0.8193359375 c 2,70,-1
 111.1484375 -5.5 l 1,71,-1
 106.919921875 -5.5 l 1,72,-1
 88.3662109375 -6.8330078125 l 2,73,74
 80.546875 -6.8330078125 80.546875 -6.8330078125 63.494140625 -4.845703125 c 1,75,76
 70.080078125 52.810546875 70.080078125 52.810546875 84.40625 163.513671875 c 1,77,78
 50.66796875 163.66796875 50.66796875 163.66796875 24.08984375 165.905273438 c 1,79,-1
 24.08984375 173 l 2,80,81
 24.08984375 180.778320312 24.08984375 180.778320312 22.4404296875 188.278320312 c 0,82,83
 20.7900390625 195.778320312 20.7900390625 195.778320312 20.7900390625 204.403320312 c 0,84,85
 20.7900390625 213.02734375 20.7900390625 213.02734375 22.4873046875 222.287109375 c 0,86,87
 24.1845703125 231.545898438 24.1845703125 231.545898438 25.40625 244.5 c 1,88,-1
 29.7001953125 244.5 l 2,89,90
 41.5341796875 244.5 41.5341796875 244.5 58.8359375 244.9765625 c 0,91,92
 76.1376953125 245.453125 76.1376953125 245.453125 95.6044921875 245.49609375 c 1,93,94
 98.5126953125 267.31640625 98.5126953125 267.31640625 101.325195312 286.920898438 c 0,95,96
 104.138671875 306.525390625 104.138671875 306.525390625 106.85546875 327.5 c 1,97,-1
 56.70703125 327.5 l 1,98,99
 46.482421875 351.44140625 46.482421875 351.44140625 46.482421875 366.53125 c 0,100,101
 46.482421875 381.622070312 46.482421875 381.622070312 56.5751953125 407.5 c 1,102,-1
 59.400390625 407.5 l 1,103,-1
 116.619140625 406.509765625 l 1,104,105
 128.608398438 510.61328125 128.608398438 510.61328125 134.862304688 569.833007812 c 1,106,-1
 137.836914062 571.185546875 l 2,107,108
 145.129882812 574.5 145.129882812 574.5 154.48828125 574.5 c 0,109,110
 170.774414062 574.5 170.774414062 574.5 177.854492188 572.354492188 c 2,111,-1
 182.32421875 571 l 1,112,113
 176.518554688 495.353515625 176.518554688 495.353515625 163.880859375 406.484375 c 1,13,-1
EndSplineSet
EndChar

StartChar: dollar
Encoding: 36 36 21
Width: 371
Flags: W
LayerCount: 2
Fore
SplineSet
164.194335938 600.743164062 m 128,-1,1
 164.51953125 659.938476562 164.51953125 659.938476562 164.544921875 711.252929688 c 1,2,3
 136.860351562 704.119140625 136.860351562 704.119140625 116.045898438 676.919921875 c 0,4,5
 96.3603515625 649.720703125 96.3603515625 649.720703125 96.3603515625 602.879882812 c 128,-1,6
 96.3603515625 556.0390625 96.3603515625 556.0390625 117.073242188 524.221679688 c 0,7,8
 137 495.1953125 137 495.1953125 163.842773438 472.091796875 c 1,9,0
 163.870117188 541.546875 163.870117188 541.546875 164.194335938 600.743164062 c 128,-1,1
272.599609375 153.35546875 m 128,-1,11
 272.599609375 206.946289062 272.599609375 206.946289062 250.84375 241.396484375 c 0,12,13
 230.771484375 271.924804688 230.771484375 271.924804688 202.034179688 296.845703125 c 1,14,-1
 202.034179688 25.9755859375 l 1,15,16
 232.7265625 35.0322265625 232.7265625 35.0322265625 253.110351562 67.3974609375 c 0,17,10
 272.599609375 99.763671875 272.599609375 99.763671875 272.599609375 153.35546875 c 128,-1,11
175.510742188 819 m 2,18,-1
 181.875976562 819 l 2,19,20
 185.619140625 819 185.619140625 819 191.293945312 818.3828125 c 128,-1,21
 196.969726562 817.765625 196.969726562 817.765625 201.1875 811.802734375 c 2,22,23
 202.153320312 803.104492188 202.153320312 803.104492188 203.119140625 809.116210938 c 1,24,25
 202.034179688 800.069335938 202.034179688 800.069335938 202.034179688 793.799804688 c 2,26,27
 202.034179688 779.946289062 202.034179688 779.946289062 202.034179688 780.029296875 c 1,28,29
 202.034179688 765.91796875 202.034179688 765.91796875 202.034179688 765.275390625 c 2,30,31
 202.034179688 761.223632812 202.034179688 761.223632812 201.807617188 756.884765625 c 1,32,33
 214.573242188 753.927734375 214.573242188 753.927734375 230.521484375 744.224609375 c 128,-1,34
 246.469726562 734.522460938 246.469726562 734.522460938 254.3671875 728.44140625 c 0,35,36
 262.120117188 722.360351562 262.120117188 722.360351562 263.147460938 722.360351562 c 128,-1,37
 264.174804688 722.360351562 264.174804688 722.360351562 264.459960938 722.786132812 c 0,38,39
 267.485351562 727.29296875 267.485351562 727.29296875 270.752929688 737.520507812 c 128,-1,40
 274.020507812 747.748046875 274.020507812 747.748046875 280.274414062 758.233398438 c 128,-1,41
 286.528320312 768.717773438 286.528320312 768.717773438 298.650390625 768.717773438 c 0,42,43
 307.328125 768.717773438 307.328125 768.717773438 309.444335938 752.958007812 c 0,44,45
 310.860351562 742.405273438 310.860351562 742.405273438 310.860351562 727.594726562 c 128,-1,46
 310.860351562 712.784179688 310.860351562 712.784179688 309.872070312 697.563476562 c 128,-1,47
 308.8828125 682.342773438 308.8828125 682.342773438 308.947265625 671.891601562 c 128,-1,48
 309.01171875 661.44140625 309.01171875 661.44140625 309.01171875 635.119140625 c 128,-1,49
 309.01171875 608.796875 309.01171875 608.796875 306.88671875 566.036132812 c 0,50,51
 305.796875 555.004882812 305.796875 555.004882812 302.2578125 549.73046875 c 128,-1,52
 298.71875 544.45703125 298.71875 544.45703125 294.748046875 544.45703125 c 128,-1,53
 290.77734375 544.45703125 290.77734375 544.45703125 288.13671875 545.440429688 c 128,-1,54
 285.497070312 546.423828125 285.497070312 546.423828125 284.129882812 546.423828125 c 0,55,56
 277.110351562 546.423828125 277.110351562 546.423828125 272.76953125 559.361328125 c 0,57,58
 269.538085938 568.994140625 269.538085938 568.994140625 267.487304688 582.235351562 c 128,-1,59
 265.4375 595.4765625 265.4375 595.4765625 263.5390625 608.677734375 c 128,-1,60
 261.640625 621.879882812 261.640625 621.879882812 257.75390625 631.142578125 c 1,61,62
 248.229492188 663.306640625 248.229492188 663.306640625 230.9375 682.266601562 c 0,63,64
 216.515625 698.079101562 216.515625 698.079101562 201.327148438 703.912109375 c 1,65,66
 201.327148438 569.157226562 201.327148438 569.157226562 201.327148438 441.3125 c 1,67,68
 221.078125 426.502929688 221.078125 426.502929688 240.828125 413.846679688 c 2,69,70
 264.751953125 396.981445312 264.751953125 396.981445312 278.313476562 383.856445312 c 0,71,72
 307.739257812 354.280273438 307.739257812 354.280273438 324.162109375 307.37109375 c 128,-1,73
 340.537109375 260.596679688 340.537109375 260.596679688 341.219726562 207.716796875 c 1,74,75
 341.219726562 210.173828125 341.219726562 210.173828125 341.219726562 207.572265625 c 2,76,77
 341.219726562 104.2109375 341.219726562 104.2109375 303.227539062 47.08984375 c 128,-1,78
 265.236328125 -10.0302734375 265.236328125 -10.0302734375 201.64453125 -22.2646484375 c 1,79,80
 201.330078125 -30.7578125 201.330078125 -30.7578125 201.327148438 -33.41015625 c 2,81,82
 201.327148438 -35.1513671875 201.327148438 -35.1513671875 201.327148438 -50.130859375 c 1,83,84
 201.327148438 -51.115234375 201.327148438 -51.115234375 201.327148438 -65.869140625 c 2,85,86
 201.327148438 -74.267578125 201.327148438 -74.267578125 199.916992188 -88 c 1,87,-1
 195.315429688 -88 l 1,88,-1
 180.461914062 -88 l 2,89,90
 171.109375 -88 171.109375 -88 168.17578125 -86.6171875 c 2,91,92
 166.659179688 -78.40234375 166.659179688 -78.40234375 165.143554688 -85.1884765625 c 1,93,94
 163.83984375 -74.3076171875 163.83984375 -74.3076171875 163.83984375 -66.806640625 c 2,95,96
 163.83984375 -51.990234375 163.83984375 -51.990234375 163.83984375 -51.068359375 c 1,97,98
 163.83984375 -31.8154296875 163.83984375 -31.8154296875 163.83984375 -25.7841796875 c 1,99,100
 152.41796875 -24.9072265625 152.41796875 -24.9072265625 140.80078125 -19.830078125 c 128,-1,101
 129.18359375 -14.7529296875 129.18359375 -14.7529296875 119.204101562 -9.30078125 c 0,102,103
 109.41796875 -3.8486328125 109.41796875 -3.8486328125 100.85546875 1.0595703125 c 0,104,105
 90.8896484375 5.291015625 90.8896484375 5.291015625 86.2919921875 5.3896484375 c 128,-1,106
 81.6962890625 5.4892578125 81.6962890625 5.4892578125 78.673828125 0.609375 c 128,-1,107
 75.65234375 -4.26953125 75.65234375 -4.26953125 72.3037109375 -13.2490234375 c 128,-1,108
 68.95703125 -22.2294921875 68.95703125 -22.2294921875 63.3349609375 -30.009765625 c 128,-1,109
 57.712890625 -37.7900390625 57.712890625 -37.7900390625 45.2099609375 -37.7900390625 c 0,110,111
 36.3427734375 -37.7900390625 36.3427734375 -37.7900390625 34.3779296875 -18.7548828125 c 0,112,113
 33 -5.4091796875 33 -5.4091796875 33 11.7490234375 c 128,-1,114
 33 28.90625 33 28.90625 33.990234375 47.103515625 c 128,-1,115
 34.98046875 65.2998046875 34.98046875 65.2998046875 34.98046875 84.3740234375 c 0,116,117
 34.98046875 139.673828125 34.98046875 139.673828125 36.990234375 172.048828125 c 0,118,119
 37.8857421875 184.064453125 37.8857421875 184.064453125 42.04296875 188.7109375 c 128,-1,120
 46.201171875 193.358398438 46.201171875 193.358398438 50.013671875 193.358398438 c 128,-1,121
 53.8271484375 193.358398438 53.8271484375 193.358398438 56.13671875 192.374023438 c 128,-1,122
 58.4462890625 191.390625 58.4462890625 191.390625 59.73046875 191.390625 c 0,123,124
 67.4921875 191.390625 67.4921875 191.390625 71.4716796875 178.788085938 c 0,125,126
 74.3349609375 169.717773438 74.3349609375 169.717773438 76.3603515625 156.641601562 c 0,127,128
 81.306640625 124.694335938 81.306640625 124.694335938 86.734375 106.215820312 c 0,129,130
 96.669921875 71.048828125 96.669921875 71.048828125 118.08984375 52.076171875 c 0,131,132
 140.618164062 33.1025390625 140.618164062 33.1025390625 163.83984375 28.91015625 c 1,133,134
 163.83984375 181.557617188 163.83984375 181.557617188 163.83984375 328.094726562 c 1,135,136
 139.75390625 345.8515625 139.75390625 345.8515625 115.39453125 365.208007812 c 0,137,138
 92.4462890625 384.564453125 92.4462890625 384.564453125 73.7734375 409.864257812 c 128,-1,139
 55.099609375 435.163085938 55.099609375 435.163085938 43.0595703125 468.999023438 c 128,-1,140
 31.01953125 502.833984375 31.01953125 502.833984375 31.01953125 548.744140625 c 128,-1,141
 31.01953125 594.654296875 31.01953125 594.654296875 41.2890625 631.895507812 c 128,-1,142
 51.5751953125 669.198242188 51.5751953125 669.198242188 69.7939453125 695.836914062 c 128,-1,143
 87.947265625 722.379882812 87.947265625 722.379882812 111.518554688 737.504882812 c 0,144,145
 136.736328125 752.629882812 136.736328125 752.629882812 164.546875 757.204101562 c 1,146,147
 164.546875 779.151367188 164.546875 779.151367188 164.546875 814.907226562 c 1,148,149
 173.2421875 819.004882812 173.2421875 819.004882812 175.510742188 819 c 2,18,-1
EndSplineSet
EndChar

StartChar: percent
Encoding: 37 37 22
Width: 546
Flags: W
LayerCount: 2
Fore
SplineSet
440.266601562 223.904296875 m 0,0,1
 423.5546875 250.5 423.5546875 250.5 399.268554688 250.5 c 0,2,3
 379.645507812 250.5 379.645507812 250.5 362.765625 225.799804688 c 128,-1,4
 345.764648438 200.922851562 345.764648438 200.922851562 345.126953125 159.532226562 c 2,5,6
 345.126953125 163.02734375 345.126953125 163.02734375 345.126953125 159.41015625 c 2,7,8
 345.03515625 156.0390625 345.03515625 156.0390625 345.032226562 152.798828125 c 0,9,10
 345.032226562 110.918945312 345.032226562 110.918945312 360.950195312 88.458984375 c 128,-1,11
 376.866210938 66 376.866210938 66 399.3671875 66 c 128,-1,12
 421.8671875 66 421.8671875 66 439.141601562 87.59375 c 0,13,14
 456.091796875 109.188476562 456.091796875 109.188476562 456.719726562 152.081054688 c 0,15,16
 456.706054688 197.309570312 456.706054688 197.309570312 440.266601562 223.904296875 c 0,0,1
184.458007812 631.404296875 m 128,-1,18
 167.49609375 658 167.49609375 658 143.208984375 658 c 0,19,20
 123.612304688 658 123.612304688 658 106.807617188 632.749023438 c 0,21,22
 90.3779296875 607.498046875 90.3779296875 607.498046875 89.7587890625 566.071289062 c 2,23,24
 89.7587890625 562.396484375 89.7587890625 562.396484375 89.7587890625 565.94921875 c 2,25,26
 89.669921875 562.577148438 89.669921875 562.577148438 89.6669921875 559.340820312 c 0,27,28
 89.6669921875 517.532226562 89.6669921875 517.532226562 105.079101562 495.515625 c 0,29,30
 120.778320312 473.5 120.778320312 473.5 143.29296875 473.5 c 128,-1,31
 165.807617188 473.5 165.807617188 473.5 183.297851562 495.09375 c 128,-1,32
 200.787109375 516.688476562 200.787109375 516.688476562 201.435546875 559.581054688 c 0,33,17
 201.421875 604.809570312 201.421875 604.809570312 184.458007812 631.404296875 c 128,-1,18
417.086914062 697.5 m 1,34,-1
 419.69921875 697.5 l 2,35,36
 428.662109375 697.5 428.662109375 697.5 440.862304688 685.989257812 c 128,-1,37
 452.94921875 674.477539062 452.94921875 674.477539062 464.854492188 664.638671875 c 1,38,39
 442.583984375 614.60546875 442.583984375 614.60546875 421.348632812 573.901367188 c 0,40,41
 399.892578125 533.391601562 399.892578125 533.391601562 377.41796875 492.391601562 c 0,42,43
 312.02734375 369.36328125 312.02734375 369.36328125 246.975585938 249.334960938 c 128,-1,44
 182.028320312 129.499023438 182.028320312 129.499023438 118.489257812 -2.1591796875 c 1,45,-1
 114.755859375 0.033203125 l 2,46,47
 110.819335938 2.357421875 110.819335938 2.357421875 101.956054688 11.8076171875 c 128,-1,48
 93.0927734375 21.2578125 93.0927734375 21.2578125 78.5654296875 28.9140625 c 2,49,-1
 72.1787109375 32.2802734375 l 1,50,51
 159.591796875 206.57421875 159.591796875 206.57421875 246.06640625 366.048828125 c 128,-1,52
 332.54296875 525.52734375 332.54296875 525.52734375 417.086914062 697.5 c 1,34,-1
479.278320312 279.95703125 m 128,-1,54
 494.818359375 257.947265625 494.818359375 257.947265625 504.123046875 227.807617188 c 128,-1,55
 513.48046875 197.502929688 513.48046875 197.502929688 513.48046875 162.265625 c 128,-1,56
 513.48046875 127.028320312 513.48046875 127.028320312 505.228515625 95.431640625 c 128,-1,57
 496.962890625 63.783203125 496.962890625 63.783203125 482.116210938 40.2421875 c 128,-1,58
 467.255859375 16.677734375 467.255859375 16.677734375 446.895507812 2.8681640625 c 0,59,60
 426.26171875 -11 426.26171875 -11 400.399414062 -11 c 128,-1,61
 374.537109375 -11 374.537109375 -11 352.813476562 0.2548828125 c 128,-1,62
 331.08984375 11.5087890625 331.08984375 11.5087890625 315.638671875 33.7041015625 c 128,-1,63
 300.225585938 55.845703125 300.225585938 55.845703125 292.005859375 86.6494140625 c 128,-1,64
 283.837890625 117.2578125 283.837890625 117.2578125 283.837890625 153.826171875 c 128,-1,65
 283.837890625 190.395507812 283.837890625 190.395507812 291.99609375 221.4765625 c 128,-1,66
 300.18359375 252.670898438 300.18359375 252.670898438 315.518554688 276.236328125 c 128,-1,67
 330.889648438 299.856445312 330.889648438 299.856445312 352.294921875 313.181640625 c 128,-1,68
 373.69140625 326.5 373.69140625 326.5 398.216796875 326.5 c 128,-1,69
 422.743164062 326.5 422.743164062 326.5 443.40234375 314.223632812 c 0,70,53
 463.744140625 301.958007812 463.744140625 301.958007812 479.278320312 279.95703125 c 128,-1,54
224.711914062 687.453125 m 128,-1,72
 240.758789062 665.42578125 240.758789062 665.42578125 250.361328125 634.770507812 c 128,-1,73
 260.001953125 603.9921875 260.001953125 603.9921875 260.001953125 568.754882812 c 128,-1,74
 260.001953125 533.516601562 260.001953125 533.516601562 251.477539062 502.389648438 c 128,-1,75
 242.94921875 471.250976562 242.94921875 471.250976562 227.640625 447.723632812 c 128,-1,76
 212.33203125 424.197265625 212.33203125 424.197265625 191.286132812 409.848632812 c 128,-1,77
 170.239257812 395.5 170.239257812 395.5 144.333007812 395.5 c 128,-1,78
 118.426757812 395.5 118.426757812 395.5 97.560546875 407.234375 c 128,-1,79
 76.7783203125 419.04296875 76.7783203125 419.04296875 61.83984375 441.185546875 c 128,-1,80
 46.939453125 463.2734375 46.939453125 463.2734375 38.642578125 493.506835938 c 128,-1,81
 30.3603515625 523.689453125 30.3603515625 523.689453125 30.3603515625 560.315429688 c 128,-1,82
 30.3603515625 596.94140625 30.3603515625 596.94140625 38.6123046875 628.540039062 c 128,-1,83
 46.876953125 660.190429688 46.876953125 660.190429688 61.7236328125 683.733398438 c 128,-1,84
 76.609375 707.337890625 76.609375 707.337890625 97.0078125 720.662109375 c 0,85,86
 117.616210938 734 117.616210938 734 142.150390625 734 c 128,-1,87
 166.684570312 734 166.684570312 734 187.693359375 721.72265625 c 128,-1,71
 208.68359375 709.45703125 208.68359375 709.45703125 224.711914062 687.453125 c 128,-1,72
EndSplineSet
EndChar

StartChar: ampersand
Encoding: 38 38 23
Width: 535
Flags: W
LayerCount: 2
Fore
SplineSet
225.204101562 444.493164062 m 0,0,1
 241.696289062 461.288085938 241.696289062 461.288085938 250.373046875 488.989257812 c 0,2,3
 259.049804688 516.69140625 259.049804688 516.69140625 259.049804688 550.521484375 c 0,4,5
 259.049804688 584.3515625 259.049804688 584.3515625 246.483398438 607.92578125 c 0,6,7
 233.916015625 631.5 233.916015625 631.5 209.219726562 631.5 c 0,8,9
 187.60546875 631.5 187.60546875 631.5 174.487304688 610.26953125 c 0,10,11
 161.370117188 589.0390625 161.370117188 589.0390625 161.370117188 556 c 0,12,13
 161.370117188 512.915039062 161.370117188 512.915039062 189.216796875 472.41015625 c 0,14,15
 207.494140625 445.82421875 207.494140625 445.82421875 217.341796875 437.340820312 c 0,16,17
 218.788085938 438.427734375 218.788085938 438.427734375 220.58203125 440.370117188 c 0,18,19
 222.376953125 442.3125 222.376953125 442.3125 225.204101562 444.493164062 c 0,0,1
103.950195312 198 m 0,20,21
 103.950195312 166.567382812 103.950195312 166.567382812 111.458984375 140.494140625 c 0,22,23
 118.98046875 114.379882812 118.98046875 114.379882812 132.444335938 94.927734375 c 0,24,25
 145.986328125 75.365234375 145.986328125 75.365234375 163.646484375 63.8974609375 c 0,26,27
 181.198242188 52.5 181.198242188 52.5 201.959960938 52.5 c 0,28,29
 232.95703125 52.5 232.95703125 52.5 255.188476562 72.2294921875 c 0,30,31
 277.419921875 91.958984375 277.419921875 91.958984375 298.728515625 125.221679688 c 0,32,33
 303.025390625 131.733398438 303.025390625 131.733398438 306.181640625 139.122070312 c 0,34,35
 309.336914062 146.51171875 309.336914062 146.51171875 312.51953125 153.782226562 c 1,36,37
 309.010742188 165.515625 309.010742188 165.515625 302.455078125 176.802734375 c 0,38,39
 291.505859375 195.653320312 291.505859375 195.653320312 287.861328125 202.3046875 c 0,40,41
 241.079101562 290.427734375 241.079101562 290.427734375 176.930664062 356.568359375 c 1,42,43
 145.553710938 337.228515625 145.553710938 337.228515625 124.751953125 295.361328125 c 0,44,45
 103.950195312 253.494140625 103.950195312 253.494140625 103.950195312 198 c 0,20,21
164.612304688 661.8359375 m 0,46,47
 183.0703125 674.5 183.0703125 674.5 204.67578125 674.5 c 0,48,49
 251.100585938 674.5 251.100585938 674.5 280.157226562 646.856445312 c 0,50,51
 295.392578125 632.362304688 295.392578125 632.362304688 304.588867188 608.244140625 c 0,52,53
 313.830078125 584.010742188 313.830078125 584.010742188 313.830078125 549 c 0,54,55
 313.830078125 501.182617188 313.830078125 501.182617188 286.586914062 461.118164062 c 0,56,57
 267.547851562 433.12109375 267.547851562 433.12109375 240.081054688 412.244140625 c 1,58,59
 243.14453125 408.57421875 243.14453125 408.57421875 248.124023438 403.29296875 c 0,60,61
 253.102539062 398.01171875 253.102539062 398.01171875 262.837890625 386.313476562 c 0,62,63
 272.573242188 374.615234375 272.573242188 374.615234375 285.649414062 354.802734375 c 0,64,65
 304.174804688 326.733398438 304.174804688 326.733398438 325.30078125 290.399414062 c 0,66,67
 346.42578125 254.06640625 346.42578125 254.06640625 356.10546875 237.634765625 c 1,68,69
 360.875976562 249.150390625 360.875976562 249.150390625 371.518554688 267.857421875 c 0,70,71
 382.162109375 286.563476562 382.162109375 286.563476562 388.212890625 300.073242188 c 0,72,73
 402.26953125 331.4609375 402.26953125 331.4609375 402.26953125 357 c 0,74,75
 402.26953125 373.59765625 402.26953125 373.59765625 399.889648438 378.647460938 c 0,76,77
 397.486328125 383.744140625 397.486328125 383.744140625 394.4453125 385.419921875 c 0,78,79
 391.404296875 387.095703125 391.404296875 387.095703125 387.8515625 389.787109375 c 0,80,81
 381.809570312 394.364257812 381.809570312 394.364257812 381.809570312 412 c 0,82,83
 381.809570312 421.857421875 381.809570312 421.857421875 390.836914062 425.276367188 c 0,84,85
 396.70703125 427.5 396.70703125 427.5 401.940429688 427.5 c 2,86,-1
 446.16015625 427.5 l 2,87,88
 461.112304688 427.5 461.112304688 427.5 475.6328125 429.5 c 0,89,90
 490.15234375 431.5 490.15234375 431.5 506.219726562 431.5 c 0,91,92
 511.739257812 431.5 511.739257812 431.5 516.734375 426.202148438 c 0,93,94
 521.73046875 420.904296875 521.73046875 420.904296875 521.73046875 410.150390625 c 0,95,96
 521.73046875 399.396484375 521.73046875 399.396484375 517.130859375 393.822265625 c 0,97,98
 509.16015625 384.161132812 509.16015625 384.161132812 496.284179688 383.012695312 c 0,99,100
 490.52734375 382.5 490.52734375 382.5 486.419921875 382.5 c 0,101,102
 478.89453125 382.5 478.89453125 382.5 468.852539062 370.51171875 c 0,103,104
 458.810546875 358.524414062 458.810546875 358.524414062 448.875976562 341.530273438 c 0,105,106
 438.861328125 324.3984375 438.861328125 324.3984375 431.329101562 307.52734375 c 0,107,108
 412.099609375 264.458007812 412.099609375 264.458007812 374.444335938 193.630859375 c 1,109,110
 401.239257812 134.794921875 401.239257812 134.794921875 427.670898438 99.099609375 c 0,111,112
 442.415039062 79.189453125 442.415039062 79.189453125 458.881835938 65.7548828125 c 0,113,114
 475.348632812 52.3203125 475.348632812 52.3203125 495.583984375 49.353515625 c 1,115,116
 500.637695312 46.0712890625 500.637695312 46.0712890625 506.516601562 43.4521484375 c 0,117,118
 512.39453125 40.83203125 512.39453125 40.83203125 517.303710938 35.4228515625 c 0,119,120
 522.7421875 29.4306640625 522.7421875 29.4306640625 522.7421875 19.2568359375 c 0,121,122
 522.7421875 9.0830078125 522.7421875 9.0830078125 516.711914062 -5.275390625 c 1,123,124
 505.538085938 -10.9189453125 505.538085938 -10.9189453125 489.958984375 -11.9912109375 c 0,125,126
 469.048828125 -13.5 469.048828125 -13.5 463.98046875 -13.5 c 0,127,128
 430.520507812 -13.5 430.520507812 -13.5 408.87109375 2.1201171875 c 0,129,130
 387.220703125 17.740234375 387.220703125 17.740234375 372.580078125 38.8916015625 c 0,131,132
 357.939453125 60.0439453125 357.939453125 60.0439453125 348.430664062 79.8525390625 c 0,133,134
 338.922851562 99.6611328125 338.922851562 99.6611328125 330.772460938 111.705078125 c 1,135,136
 323.62890625 95.6162109375 323.62890625 95.6162109375 312.375976562 76.6181640625 c 0,137,138
 290.828125 40.23828125 290.828125 40.23828125 259.237304688 6.8447265625 c 0,139,140
 244.560546875 -8.669921875 244.560546875 -8.669921875 231.453125 -16.0048828125 c 0,141,142
 204.244140625 -32.47265625 204.244140625 -32.47265625 170.330078125 -33.5 c 0,143,144
 147.873046875 -33.5 147.873046875 -33.5 129.428710938 -25.26171875 c 0,145,146
 108.208007812 -17.9599609375 108.208007812 -17.9599609375 90.7060546875 -0.8017578125 c 0,147,148
 73.1455078125 16.4150390625 73.1455078125 16.4150390625 61.068359375 40.46484375 c 0,149,150
 49.044921875 64.4072265625 49.044921875 64.4072265625 42.1875 94.0185546875 c 0,151,152
 35.3095703125 123.717773438 35.3095703125 123.717773438 35.3095703125 157 c 2,153,-1
 35.3095703125 176 l 2,154,155
 35.3095703125 231.490234375 35.3095703125 231.490234375 56.5263671875 274.524414062 c 0,156,157
 77.7421875 317.557617188 77.7421875 317.557617188 106.875976562 346.301757812 c 0,158,159
 118.362304688 357.5625 118.362304688 357.5625 131.846679688 367.333984375 c 0,160,161
 145.331054688 377.10546875 145.331054688 377.10546875 153.6015625 387.163085938 c 1,162,163
 152.0546875 388.975585938 152.0546875 388.975585938 150.059570312 391.091796875 c 0,164,165
 132.799804688 414.10546875 132.799804688 414.10546875 118.705078125 448.482421875 c 0,166,167
 104.610351562 482.860351562 104.610351562 482.860351562 104.610351562 517.178710938 c 0,168,169
 104.610351562 551.498046875 104.610351562 551.498046875 112.24609375 579.370117188 c 0,170,171
 119.857421875 607.15234375 119.857421875 607.15234375 133.03125 628.163085938 c 0,172,173
 146.240234375 649.231445312 146.240234375 649.231445312 164.612304688 661.8359375 c 0,46,47
EndSplineSet
EndChar

StartChar: quotesingle
Encoding: 39 39 24
Width: 104
Flags: W
LayerCount: 2
Fore
SplineSet
50.8203125 752.5 m 1,0,-1
 71.7841796875 751.500976562 l 2,1,2
 74.53515625 752.358398438 74.53515625 752.358398438 75.375 752.357421875 c 0,3,4
 81.693359375 752.357421875 81.693359375 752.357421875 84.6787109375 742.665039062 c 0,5,6
 86.6103515625 736.393554688 86.6103515625 736.393554688 86.6103515625 732.1171875 c 0,7,8
 86.6103515625 727.840820312 86.6103515625 727.840820312 85.9765625 725.03125 c 0,9,10
 84.689453125 714.016601562 84.689453125 714.016601562 82.421875 685.049804688 c 0,11,12
 71.3505859375 543.661132812 71.3505859375 543.661132812 67.2744140625 529.130859375 c 0,13,14
 65.154296875 521.208007812 65.154296875 521.208007812 59.9150390625 518.033203125 c 0,15,16
 56.3955078125 515.900390625 56.3955078125 515.900390625 54.021484375 515.900390625 c 0,17,18
 46.701171875 515.900390625 46.701171875 515.900390625 41.2373046875 521.16796875 c 0,19,20
 35.681640625 526.525390625 35.681640625 526.525390625 34.7060546875 536.866210938 c 0,21,22
 19.94140625 684.142578125 19.94140625 684.142578125 19.94140625 732.734375 c 0,23,24
 19.94140625 740.29296875 19.94140625 740.29296875 21.869140625 744.966796875 c 0,25,26
 24.9765625 752.5 24.9765625 752.5 34.98046875 752.5 c 2,27,-1
 50.8203125 752.5 l 1,0,-1
EndSplineSet
EndChar

StartChar: parenleft
Encoding: 40 40 25
Width: 238
Flags: W
LayerCount: 2
Fore
SplineSet
95.3701171875 269 m 0,0,1
 95.3701171875 148.251953125 95.3701171875 148.251953125 120.844726562 35.42578125 c 0,2,3
 129.259765625 -1.84375 129.259765625 -1.84375 141.571289062 -33.259765625 c 2,4,-1
 172.29296875 -116.345703125 l 2,5,6
 187.374023438 -157.185546875 187.374023438 -157.185546875 210.84375 -187.806640625 c 1,7,8
 215.423828125 -196.728515625 215.423828125 -196.728515625 215.423828125 -206.334960938 c 0,9,10
 215.423828125 -210.405273438 215.423828125 -210.405273438 214.640625 -214.561523438 c 0,11,12
 211.634765625 -230.5 211.634765625 -230.5 200.639648438 -230.5 c 0,13,14
 192.918945312 -230.5 192.918945312 -230.5 182.573242188 -217.528320312 c 0,15,16
 172.228515625 -204.556640625 172.228515625 -204.556640625 168.063476562 -198.245117188 c 0,17,18
 106.118164062 -102.370117188 106.118164062 -102.370117188 70.0537109375 9.9501953125 c 0,19,20
 33.990234375 122.270507812 33.990234375 122.270507812 33.990234375 259 c 0,21,22
 33.990234375 375.502929688 33.990234375 375.502929688 66.02734375 495.801757812 c 0,23,24
 97.1357421875 612.609375 97.1357421875 612.609375 152.709960938 698.975585938 c 0,25,26
 162.295898438 716.97265625 162.295898438 716.97265625 172.352539062 729.440429688 c 0,27,28
 182.41015625 741.908203125 182.41015625 741.908203125 189.534179688 750.00390625 c 0,29,30
 196.658203125 758.098632812 196.658203125 758.098632812 201.801757812 759.397460938 c 2,31,-1
 203.569335938 759.84375 l 1,32,33
 214.225585938 750.42578125 214.225585938 750.42578125 218.848632812 737.583984375 c 2,34,-1
 219.6640625 735.318359375 l 1,35,-1
 219.3828125 732.759765625 l 2,36,37
 218.439453125 724.188476562 218.439453125 724.188476562 212.58984375 716.500976562 c 0,38,39
 188.583007812 680.09765625 188.583007812 680.09765625 173.036132812 645.74609375 c 0,40,41
 135.180664062 562.676757812 135.180664062 562.676757812 115.2734375 466.750976562 c 0,42,43
 95.3701171875 370.84375 95.3701171875 370.84375 95.3701171875 269 c 0,0,1
EndSplineSet
EndChar

StartChar: parenright
Encoding: 41 41 26
Width: 238
Flags: W
LayerCount: 2
Fore
SplineSet
200.969726562 269 m 0,0,1
 200.969726562 178.8515625 200.969726562 178.8515625 182.947265625 91.3701171875 c 0,2,3
 159.721679688 -21.37109375 159.721679688 -21.37109375 115.545898438 -113.404296875 c 0,4,5
 92.51953125 -161.376953125 92.51953125 -161.376953125 65.6845703125 -198.069335938 c 0,6,7
 51.755859375 -217.114257812 51.755859375 -217.114257812 35.642578125 -231.064453125 c 1,8,-1
 33.654296875 -230.227539062 l 2,9,10
 18.99609375 -224.05859375 18.99609375 -224.05859375 15.6572265625 -203.822265625 c 2,11,-1
 15.0400390625 -200.08203125 l 1,12,13
 39.0400390625 -157.301757812 39.0400390625 -157.301757812 59.9853515625 -115.649414062 c 0,14,15
 80.9306640625 -73.9970703125 80.9306640625 -73.9970703125 96.576171875 -27.5751953125 c 0,16,17
 139.58984375 99.046875 139.58984375 99.046875 139.58984375 262 c 0,18,19
 139.58984375 423.736328125 139.58984375 423.736328125 98.7861328125 558.88671875 c 0,20,21
 84.80078125 605.208984375 84.80078125 605.208984375 65.9501953125 644.604492188 c 0,22,23
 47.041015625 684.12109375 47.041015625 684.12109375 36.482421875 700.119140625 c 0,24,25
 23.6201171875 719.608398438 23.6201171875 719.608398438 19.9892578125 728.653320312 c 0,26,27
 19.1591796875 731.168945312 19.1591796875 731.168945312 19.1591796875 735.85546875 c 0,28,29
 19.1591796875 740.541015625 19.1591796875 740.541015625 23.375 749.384765625 c 0,30,31
 29.1494140625 761.5 29.1494140625 761.5 34.98046875 761.5 c 0,32,33
 40.9951171875 761.5 40.9951171875 761.5 52.666015625 746.763671875 c 0,34,35
 56.6103515625 741.783203125 56.6103515625 741.783203125 60.3271484375 737.17578125 c 0,36,37
 64.0439453125 732.568359375 64.0439453125 732.568359375 66.19921875 729.302734375 c 0,38,39
 128.182617188 635.388671875 128.182617188 635.388671875 164.576171875 520.045898438 c 0,40,41
 200.969726562 404.702148438 200.969726562 404.702148438 200.969726562 269 c 0,0,1
EndSplineSet
EndChar

StartChar: asterisk
Encoding: 42 42 27
Width: 351
Flags: W
LayerCount: 2
Fore
SplineSet
187.150390625 510.649414062 m 0,0,1
 185.928710938 515.14453125 185.928710938 515.14453125 185.928710938 521.216796875 c 128,-1,2
 185.928710938 527.290039062 185.928710938 527.290039062 189.37109375 533.569335938 c 128,-1,3
 192.8125 539.84765625 192.8125 539.84765625 209.032226562 554.18359375 c 0,4,5
 240.075195312 581.620117188 240.075195312 581.620117188 268.846679688 605.473632812 c 128,-1,6
 297.618164062 629.326171875 297.618164062 629.326171875 303.138671875 635.599609375 c 1,7,8
 307.264648438 638.099609375 307.264648438 638.099609375 310.009765625 638.099609375 c 128,-1,9
 312.754882812 638.099609375 312.754882812 638.099609375 313.857421875 637.98046875 c 0,10,11
 321.95703125 637.104492188 321.95703125 637.104492188 323.563476562 623.275390625 c 0,12,13
 326.639648438 613.928710938 326.639648438 613.928710938 328.239257812 608.59765625 c 128,-1,14
 329.8515625 603.22265625 329.8515625 603.22265625 331.836914062 597.206054688 c 0,15,16
 337.8125 579.09765625 337.8125 579.09765625 338.2109375 571.311523438 c 0,17,18
 338.2109375 559.654296875 338.2109375 559.654296875 326.494140625 552.997070312 c 0,19,20
 317.67578125 547.857421875 317.67578125 547.857421875 300.411132812 540.815429688 c 128,-1,21
 283.147460938 533.7734375 283.147460938 533.7734375 264.701171875 525.787109375 c 0,22,23
 234.354492188 512.650390625 234.354492188 512.650390625 203.29296875 501.767578125 c 0,24,25
 200.141601562 500.219726562 200.141601562 500.219726562 197.465820312 500.219726562 c 0,26,27
 189.985351562 500.219726562 189.985351562 500.219726562 187.150390625 510.649414062 c 0,0,1
172.259765625 755.5 m 2,28,29
 174.734375 755.5 174.734375 755.5 177.97265625 754.518554688 c 128,-1,30
 181.2109375 753.537109375 181.2109375 753.537109375 188.255859375 753.500976562 c 0,31,32
 189.788085938 753.944335938 189.788085938 753.944335938 191.204101562 753.944335938 c 0,33,34
 198.405273438 753.944335938 198.405273438 753.944335938 201.232421875 743.94921875 c 0,35,36
 202.818359375 738.341796875 202.818359375 738.341796875 202.818359375 734.1796875 c 128,-1,37
 202.818359375 730.017578125 202.818359375 730.017578125 202.13671875 727.028320312 c 0,38,39
 200.881835938 716.108398438 200.881835938 716.108398438 199.265625 687.212890625 c 0,40,41
 194.942382812 609.920898438 194.942382812 609.920898438 191.956054688 575.009765625 c 128,-1,42
 188.96875 540.098632812 188.96875 540.098632812 185.91015625 532.533203125 c 0,43,44
 182.090820312 518.997070312 182.090820312 518.997070312 173.197265625 517.5 c 1,45,46
 163.399414062 517.5 163.399414062 517.5 161.446289062 538.642578125 c 0,47,48
 159.479492188 551.654296875 159.479492188 551.654296875 153.846679688 606.825195312 c 0,49,50
 145.482421875 688.737304688 145.482421875 688.737304688 143.52734375 730.202148438 c 1,51,52
 144.352539062 740.205078125 144.352539062 740.205078125 146.379882812 746.346679688 c 0,53,54
 149.400390625 755.5 149.400390625 755.5 160.379882812 755.5 c 2,55,-1
 172.259765625 755.5 l 2,28,29
57.787109375 360.16015625 m 0,56,57
 71.3310546875 382.912109375 71.3310546875 382.912109375 103.974609375 426.62109375 c 0,58,59
 155.14453125 495.13671875 155.14453125 495.13671875 163.559570312 495.13671875 c 0,60,61
 163.7265625 495.13671875 163.7265625 495.13671875 163.850585938 495.0859375 c 0,62,63
 167.598632812 495.0859375 167.598632812 495.0859375 170.694335938 491.400390625 c 0,64,65
 175.530273438 485.643554688 175.530273438 485.643554688 175.530273438 476.272460938 c 0,66,67
 175.530273438 471.712890625 175.530273438 471.712890625 174.135742188 465.64453125 c 128,-1,68
 172.7421875 459.576171875 172.7421875 459.576171875 162.666992188 436.677734375 c 128,-1,69
 152.591796875 413.780273438 152.591796875 413.780273438 140.3515625 387.213867188 c 128,-1,70
 128.163085938 360.76171875 128.163085938 360.76171875 117.442382812 336.642578125 c 128,-1,71
 106.721679688 312.5234375 106.721679688 312.5234375 101.965820312 303.139648438 c 0,72,73
 99.7265625 296.025390625 99.7265625 296.025390625 93.6865234375 292.102539062 c 0,74,75
 91.498046875 290.681640625 91.498046875 290.681640625 89.318359375 290.681640625 c 0,76,77
 83.919921875 290.681640625 83.919921875 290.681640625 80.14453125 298.83203125 c 0,78,79
 74.630859375 305.342773438 74.630859375 305.342773438 72.3515625 308.303710938 c 128,-1,80
 70.0673828125 311.26953125 70.0673828125 311.26953125 68.013671875 313.862304688 c 128,-1,81
 65.9599609375 316.455078125 65.9599609375 316.455078125 64.310546875 318.955078125 c 2,82,-1
 58.5400390625 326.697265625 l 2,83,84
 51.8095703125 336.895507812 51.8095703125 336.895507812 51.8095703125 343.977539062 c 128,-1,85
 51.8095703125 351.060546875 51.8095703125 351.060546875 57.787109375 360.16015625 c 0,56,57
256.96484375 288.333007812 m 0,86,87
 249.844726562 288.333007812 249.844726562 288.333007812 243.510742188 299.530273438 c 1,88,89
 238.787109375 310.776367188 238.787109375 310.776367188 219.8671875 359.545898438 c 0,90,91
 192.126953125 431.051757812 192.126953125 431.051757812 180.407226562 466.5390625 c 0,92,93
 174.748046875 482.375 174.748046875 482.375 181.630859375 492.802734375 c 0,94,95
 185.146484375 498.129882812 185.146484375 498.129882812 189.4140625 498.129882812 c 128,-1,96
 193.680664062 498.129882812 193.680664062 498.129882812 197.763671875 493.643554688 c 0,97,98
 207.989257812 487.263671875 207.989257812 487.263671875 272.244140625 382.60546875 c 0,99,100
 285.158203125 361.572265625 285.158203125 361.572265625 289.690429688 355.836914062 c 128,-1,101
 294.223632812 350.100585938 294.223632812 350.100585938 295.5703125 340.576171875 c 0,102,103
 295.8359375 338.6953125 295.8359375 338.6953125 295.8359375 336.889648438 c 0,104,105
 295.8359375 327.227539062 295.8359375 327.227539062 289.114257812 322.565429688 c 0,106,107
 283.860351562 315.440429688 283.860351562 315.440429688 281.25 310.991210938 c 0,108,109
 277.534179688 304.657226562 277.534179688 304.657226562 272.680664062 299.754882812 c 2,110,-1
 266.872070312 293.887695312 l 2,111,112
 262.03125 288.333007812 262.03125 288.333007812 256.96484375 288.333007812 c 0,86,87
23.099609375 551.115234375 m 0,113,114
 12.650390625 557.182617188 12.650390625 557.182617188 12.650390625 570.052734375 c 0,115,116
 12.650390625 576.10546875 12.650390625 576.10546875 18.33984375 593.346679688 c 0,117,118
 19.1728515625 595.873046875 19.1728515625 595.873046875 19.8154296875 598.791992188 c 128,-1,119
 20.4580078125 601.7109375 20.4580078125 601.7109375 23.2744140625 611.315429688 c 128,-1,120
 26.091796875 620.918945312 26.091796875 620.918945312 26.1923828125 621.948242188 c 0,121,122
 27.673828125 637.514648438 27.673828125 637.514648438 35.7880859375 637.514648438 c 0,123,124
 36.041015625 637.514648438 36.041015625 637.514648438 36.2998046875 637.5 c 0,125,126
 43.2109375 637.5 43.2109375 637.5 48.4814453125 631.04296875 c 0,127,128
 54.349609375 625.168945312 54.349609375 625.168945312 70.9541015625 611.357421875 c 0,129,130
 106.827148438 581.515625 106.827148438 581.515625 131.50390625 559.241210938 c 0,131,132
 156.724609375 536.4765625 156.724609375 536.4765625 160.146484375 530.935546875 c 0,133,134
 164.309570312 523.724609375 164.309570312 523.724609375 164.309570312 517.318359375 c 128,-1,135
 164.309570312 510.912109375 164.309570312 510.912109375 162.881835938 506.313476562 c 0,136,137
 159.590820312 495.717773438 159.590820312 495.717773438 150.891601562 495.717773438 c 0,138,139
 148.159179688 495.717773438 148.159179688 495.717773438 145.302734375 496.729492188 c 0,140,141
 104.2109375 512.501953125 104.2109375 512.501953125 85.0673828125 521.15234375 c 128,-1,142
 65.923828125 529.802734375 65.923828125 529.802734375 48.671875 537.342773438 c 128,-1,143
 31.419921875 544.8828125 31.419921875 544.8828125 23.099609375 551.115234375 c 0,113,114
EndSplineSet
EndChar

StartChar: plus
Encoding: 43 43 28
Width: 324
Flags: W
LayerCount: 2
Fore
SplineSet
259.458984375 216.099609375 m 2,0,-1
 185.790039062 215.501953125 l 1,1,-1
 185.790039062 43.8505859375 l 1,2,3
 174.734375 40.5 174.734375 40.5 170.940429688 40.5 c 2,4,-1
 161.700195312 40.5 l 2,5,6
 156.293945312 40.5 156.293945312 40.5 148.80859375 41.0673828125 c 0,7,8
 141.323242188 41.6337890625 141.323242188 41.6337890625 136.09375 48.236328125 c 2,9,-1
 134.135742188 50.708984375 l 1,10,11
 135.366210938 75.8818359375 135.366210938 75.8818359375 135.366210938 104.879882812 c 2,12,-1
 134.971679688 214.5 l 1,13,-1
 29.6474609375 214.5 l 1,14,15
 19.4228515625 238.44140625 19.4228515625 238.44140625 19.4228515625 253.529296875 c 0,16,17
 19.4228515625 268.616210938 19.4228515625 268.616210938 29.52734375 295.701171875 c 1,18,19
 46.974609375 294.5 46.974609375 294.5 60.0595703125 294.5 c 2,20,-1
 134.309570312 294.5 l 1,21,-1
 134.309570312 454.080078125 l 1,22,23
 150.111328125 469.571289062 150.111328125 469.571289062 160.071289062 469.571289062 c 0,24,25
 170.030273438 469.571289062 170.030273438 469.571289062 187.240234375 454.163085938 c 1,26,27
 186.450195312 427.818359375 186.450195312 427.818359375 186.450195312 407 c 2,28,-1
 186.450195312 293.5 l 1,29,-1
 300.3984375 293.5 l 1,30,31
 302.610351562 276.749023438 302.610351562 276.749023438 302.610351562 270 c 2,32,-1
 302.610351562 256 l 2,33,34
 302.610351562 247.809570312 302.610351562 247.809570312 302.229492188 236.275390625 c 0,35,36
 301.848632812 224.7421875 301.848632812 224.7421875 296.5390625 216.697265625 c 2,37,-1
 294.934570312 214.266601562 l 1,38,39
 278.598632812 216.099609375 278.598632812 216.099609375 259.458984375 216.099609375 c 2,0,-1
EndSplineSet
EndChar

StartChar: comma
Encoding: 44 44 29
Width: 174
Flags: W
LayerCount: 2
Fore
SplineSet
148.169921875 -9 m 0,0,1
 148.169921875 -46.771484375 148.169921875 -46.771484375 137.1640625 -80.1220703125 c 0,2,3
 118.7421875 -135.947265625 118.7421875 -135.947265625 78.2373046875 -175.317382812 c 0,4,5
 59.9228515625 -193.119140625 59.9228515625 -193.119140625 45.7197265625 -196.393554688 c 0,6,7
 45.19140625 -196.775390625 45.19140625 -196.775390625 44.7373046875 -196.775390625 c 128,-1,8
 44.2822265625 -196.775390625 44.2822265625 -196.775390625 43.9306640625 -196.642578125 c 0,9,10
 38.884765625 -196.642578125 38.884765625 -196.642578125 34.4072265625 -189.240234375 c 128,-1,11
 29.9287109375 -181.837890625 29.9287109375 -181.837890625 29.9287109375 -174.5625 c 0,12,13
 29.9287109375 -163.189453125 29.9287109375 -163.189453125 44.2421875 -149.635742188 c 0,14,15
 71.71875 -123.615234375 71.71875 -123.615234375 87.1171875 -92.505859375 c 0,16,17
 96.0302734375 -74.501953125 96.0302734375 -74.501953125 96.0302734375 -50 c 128,-1,18
 96.0302734375 -25.646484375 96.0302734375 -25.646484375 87.548828125 -17.935546875 c 0,19,20
 83.1279296875 -13.9169921875 83.1279296875 -13.9169921875 76.7333984375 -11.0107421875 c 0,21,22
 67.419921875 -6.77734375 67.419921875 -6.77734375 61.2568359375 -2.7900390625 c 0,23,24
 49.4462890625 5.630859375 49.4462890625 5.630859375 39.73828125 18.0771484375 c 128,-1,25
 30.0302734375 30.5234375 30.0302734375 30.5234375 30.0302734375 54 c 0,26,27
 30.0302734375 71.18359375 30.0302734375 71.18359375 35.3408203125 83.8291015625 c 128,-1,28
 40.65234375 96.4736328125 40.65234375 96.4736328125 48.3740234375 103.716796875 c 0,29,30
 64.134765625 118.5 64.134765625 118.5 82.0419921875 118.5 c 128,-1,31
 99.94921875 118.5 99.94921875 118.5 111.868164062 105.365234375 c 128,-1,32
 123.788085938 92.23046875 123.788085938 92.23046875 131.825195312 73.169921875 c 128,-1,33
 139.86328125 54.109375 139.86328125 54.109375 144.020507812 32.0615234375 c 128,-1,34
 148.169921875 10.0556640625 148.169921875 10.0556640625 148.169921875 -9 c 0,0,1
EndSplineSet
EndChar

StartChar: hyphen
Encoding: 45 45 30
Width: 254
Flags: W
LayerCount: 2
Fore
SplineSet
26.2900390625 233.888671875 m 2,0,-1
 26.73046875 278 l 2,1,2
 26.73046875 290.032226562 26.73046875 290.032226562 41.5869140625 291.484375 c 0,3,4
 51.978515625 292.5 51.978515625 292.5 61.3798828125 292.5 c 2,5,-1
 73.259765625 292.5 l 1,6,-1
 169.434570312 291.25 l 2,7,8
 198.200195312 291.25 198.200195312 291.25 226.780273438 293.490234375 c 2,9,-1
 226.91015625 293.5 l 2,10,11
 235.950195312 293.5 235.950195312 293.5 235.950195312 267 c 2,12,-1
 235.950195312 226 l 2,13,14
 235.950195312 214.494140625 235.950195312 214.494140625 224.775390625 212.075195312 c 0,15,16
 217.495117188 210.5 217.495117188 210.5 208.559570312 210.5 c 2,17,-1
 56.099609375 210.5 l 2,18,19
 35.1025390625 210.5 35.1025390625 210.5 30.18359375 214.673828125 c 0,20,21
 27.00390625 217.37109375 27.00390625 217.37109375 26.7490234375 222.267578125 c 0,22,23
 26.400390625 227 26.400390625 227 26.2900390625 233.888671875 c 2,0,-1
EndSplineSet
EndChar

StartChar: period
Encoding: 46 46 31
Width: 169
Flags: W
LayerCount: 2
Fore
SplineSet
46.7568359375 97.4443359375 m 0,0,1
 60.728515625 117.5 60.728515625 117.5 81.4130859375 117.5 c 0,2,3
 102.096679688 117.5 102.096679688 117.5 113.252929688 95.5244140625 c 0,4,5
 124.41015625 73.548828125 124.41015625 73.548828125 124.41015625 43.623046875 c 0,6,7
 124.41015625 13.697265625 124.41015625 13.697265625 111.344726562 -4.4013671875 c 0,8,9
 98.2802734375 -22.5 98.2802734375 -22.5 78.8681640625 -22.5 c 0,10,11
 59.4560546875 -22.5 59.4560546875 -22.5 46.0625 -3.8984375 c 0,12,13
 32.669921875 14.703125 32.669921875 14.703125 32.669921875 46 c 0,14,15
 32.669921875 77.2236328125 32.669921875 77.2236328125 46.7568359375 97.4443359375 c 0,0,1
EndSplineSet
EndChar

StartChar: slash
Encoding: 47 47 32
Width: 255
Flags: W
LayerCount: 2
Fore
SplineSet
50.8203125 -38.5 m 1,0,-1
 32.2666015625 -39.8330078125 l 2,1,2
 24.447265625 -39.8330078125 24.447265625 -39.8330078125 6.3271484375 -37.7216796875 c 1,3,4
 55.4189453125 167.614257812 55.4189453125 167.614257812 103.586914062 358.063476562 c 0,5,6
 151.75390625 548.515625 151.75390625 548.515625 195.426757812 749.0625 c 1,7,8
 205.190429688 753.5 205.190429688 753.5 214.548828125 753.5 c 0,9,10
 230.833984375 753.5 230.833984375 753.5 237.915039062 751.354492188 c 2,11,-1
 243.147460938 749.768554688 l 1,12,13
 232.40234375 691.623046875 232.40234375 691.623046875 220.154296875 643.977539062 c 0,14,15
 207.907226562 596.331054688 207.907226562 596.331054688 196.030273438 547.345703125 c 0,16,17
 171.197265625 448.041015625 171.197265625 448.041015625 129.512695312 281.76953125 c 0,18,19
 87.828125 115.494140625 87.828125 115.494140625 54.404296875 -38.5 c 1,20,-1
 50.8203125 -38.5 l 1,0,-1
EndSplineSet
EndChar

StartChar: zero
Encoding: 48 48 33
Width: 409
Flags: W
LayerCount: 2
Fore
SplineSet
105.748046875 324.504882812 m 132,-1,1
 105.748046875 267.000976562 105.748046875 267.000976562 110.943359375 213.970703125 c 132,-1,2
 116.137695312 160.938476562 116.137695312 160.938476562 128.852539062 117.25390625 c 132,-1,3
 141.625 73.5673828125 141.625 73.5673828125 161.3203125 47.0068359375 c 4,4,5
 182.2734375 18.7470703125 182.2734375 18.7470703125 212.248046875 18.7470703125 c 4,6,7
 236.71875 18.7470703125 236.71875 18.7470703125 255.098632812 43.61328125 c 132,-1,8
 273.48046875 68.4814453125 273.48046875 68.4814453125 286.267578125 111.392578125 c 132,-1,9
 299.0546875 154.301757812 299.0546875 154.301757812 305.5234375 208.645507812 c 132,-1,10
 311.979492188 262.989257812 311.979492188 262.989257812 312.630859375 319.9765625 c 4,11,12
 312.626953125 378.732421875 312.626953125 378.732421875 306.806640625 438.201171875 c 4,13,14
 294.076171875 565.40234375 294.076171875 565.40234375 254.827148438 621.287109375 c 4,15,16
 234.76953125 649.845703125 234.76953125 649.845703125 206.16015625 649.845703125 c 6,17,18
 206.060546875 641.15625 206.060546875 641.15625 205.9609375 649.852539062 c 6,19,20
 204.595703125 649.940429688 204.595703125 649.940429688 203.255859375 649.940429688 c 4,21,22
 180.028320312 649.940429688 180.028320312 649.940429688 161.923828125 622.6796875 c 132,-1,23
 143.818359375 595.416992188 143.818359375 595.416992188 131.333984375 549.91015625 c 132,-1,24
 118.849609375 504.404296875 118.849609375 504.404296875 112.612304688 446.575195312 c 4,25,0
 105.748046875 382.0078125 105.748046875 382.0078125 105.748046875 324.504882812 c 132,-1,1
331.1171875 602.012695312 m 128,-1,27
 354.30859375 554.825195312 354.30859375 554.825195312 367.873046875 488.841796875 c 128,-1,28
 381.41015625 422.994140625 381.41015625 422.994140625 381.41015625 347.791992188 c 128,-1,29
 381.41015625 272.58984375 381.41015625 272.58984375 369.252929688 204.696289062 c 128,-1,30
 357.071289062 136.658203125 357.071289062 136.658203125 335.26953125 85.107421875 c 128,-1,31
 313.46875 33.5556640625 313.46875 33.5556640625 281.37890625 2.966796875 c 0,32,33
 248.572265625 -27.623046875 248.572265625 -27.623046875 209.416992188 -27.623046875 c 128,-1,34
 170.262695312 -27.623046875 170.262695312 -27.623046875 137.109375 -1.525390625 c 0,35,36
 104.586914062 24.5732421875 104.586914062 24.5732421875 82.0361328125 72.5888671875 c 128,-1,37
 59.4833984375 120.604492188 59.4833984375 120.604492188 47.291015625 185.76953125 c 128,-1,38
 35.099609375 250.935546875 35.099609375 250.935546875 35.099609375 328.973632812 c 128,-1,39
 35.099609375 407.012695312 35.099609375 407.012695312 47.275390625 475.013671875 c 128,-1,40
 59.451171875 543.015625 59.451171875 543.015625 81.5966796875 593.103515625 c 128,-1,41
 103.743164062 643.190429688 103.743164062 643.190429688 135.494140625 673.767578125 c 0,42,43
 167.922851562 704.34375 167.922851562 704.34375 205.723632812 704.34375 c 128,-1,44
 243.525390625 704.34375 243.525390625 704.34375 275.928710938 676.772460938 c 0,45,26
 307.92578125 649.201171875 307.92578125 649.201171875 331.1171875 602.012695312 c 128,-1,27
EndSplineSet
EndChar

StartChar: one
Encoding: 49 49 34
Width: 255
Flags: W
LayerCount: 2
Fore
SplineSet
96.3828125 691.334960938 m 0,0,1
 110.803710938 702.217773438 110.803710938 702.217773438 137.763671875 702.217773438 c 2,2,3
 146.926757812 694.458984375 146.926757812 694.458984375 156.08984375 701.700195312 c 1,4,-1
 156.877929688 701.700195312 l 1,5,6
 157.248046875 694.017578125 157.248046875 694.017578125 157.619140625 701.334960938 c 1,7,8
 161.579101562 691.884765625 161.579101562 691.884765625 165.5390625 697.434570312 c 1,9,10
 166.810546875 689.30859375 166.810546875 689.30859375 168.081054688 696.182617188 c 1,11,12
 170.280273438 684.255859375 170.280273438 684.255859375 170.280273438 670.6796875 c 128,-1,13
 170.280273438 657.103515625 170.280273438 657.103515625 168.932617188 638.10546875 c 2,14,15
 168.92578125 631.903320312 168.92578125 631.903320312 168.918945312 637.939453125 c 2,16,17
 167.456054688 621 167.456054688 621 165.294921875 615.405273438 c 0,18,19
 160.31640625 603.026367188 160.31640625 603.026367188 160.31640625 587.59375 c 0,20,21
 160.31640625 585.946289062 160.31640625 585.946289062 160.374023438 584.251953125 c 2,22,23
 160.377929688 579.13671875 160.377929688 579.13671875 160.3828125 583.994140625 c 1,24,25
 160.051757812 554.596679688 160.051757812 554.596679688 159.719726562 534.119140625 c 2,26,27
 159.719726562 446.961914062 159.719726562 446.961914062 158.729492188 360.155273438 c 128,-1,28
 157.740234375 273.2421875 157.740234375 273.2421875 157.740234375 186.370117188 c 2,29,30
 157.740234375 178.774414062 157.740234375 178.774414062 157.740234375 163.95703125 c 2,31,32
 158.393554688 143.084960938 158.393554688 143.084960938 160.270507812 120.919921875 c 128,-1,33
 162.1484375 98.755859375 162.1484375 98.755859375 168.622070312 86.90234375 c 0,34,35
 173.504882812 76.642578125 173.504882812 76.642578125 183.280273438 72.5625 c 128,-1,36
 193.0546875 68.4833984375 193.0546875 68.4833984375 202.80859375 64.5908203125 c 128,-1,37
 212.561523438 60.6982421875 212.561523438 60.6982421875 220.572265625 55.2373046875 c 0,38,39
 231 47.9208984375 231 47.9208984375 231 29.7744140625 c 0,40,41
 231 0.75 231 0.75 216.955078125 -2.3173828125 c 0,42,43
 203.493164062 -4.787109375 203.493164062 -4.787109375 201.362304688 -4.787109375 c 0,44,45
 197.755859375 -4.787109375 197.755859375 -4.787109375 196.313476562 -4.7236328125 c 128,-1,46
 194.76171875 -4.7587890625 194.76171875 -4.7587890625 193.2109375 -4.7587890625 c 0,47,48
 175.228515625 -4.7587890625 175.228515625 -4.7587890625 157.340820312 -0.1259765625 c 128,-1,49
 139.453125 4.5078125 139.453125 4.5078125 121 4.5078125 c 0,50,51
 120.6796875 4.5078125 120.6796875 4.5078125 120.357421875 4.5087890625 c 0,52,53
 103.700195312 4.5556640625 103.700195312 4.5556640625 90.2900390625 -0.6572265625 c 0,54,55
 81.8095703125 -3.833984375 81.8095703125 -3.833984375 74.62109375 -4.6025390625 c 128,-1,56
 67.4326171875 -5.3701171875 67.4326171875 -5.3701171875 62.7001953125 -5.78515625 c 1,57,58
 62.7001953125 1.4775390625 62.7001953125 1.4775390625 62.7001953125 -6.259765625 c 1,59,-1
 57.75 -6.259765625 l 1,60,-1
 48.4541015625 -6.259765625 l 2,61,62
 40.6591796875 -6.130859375 40.6591796875 -6.130859375 32.9462890625 0.0341796875 c 0,63,64
 23.759765625 7.462890625 23.759765625 7.462890625 23.759765625 29.8271484375 c 0,65,66
 23.759765625 47.3642578125 23.759765625 47.3642578125 32.6640625 55.609375 c 0,67,68
 39.8935546875 62.5302734375 39.8935546875 62.5302734375 49.8193359375 66.267578125 c 0,69,70
 58.9228515625 70.3876953125 58.9228515625 70.3876953125 69 75.1689453125 c 0,71,72
 77.263671875 79.7734375 77.263671875 79.7734375 83.66015625 91.7724609375 c 0,73,74
 89.2353515625 101.606445312 89.2353515625 101.606445312 90.8173828125 132.271484375 c 128,-1,75
 92.400390625 162.936523438 92.400390625 162.936523438 92.400390625 192.463867188 c 2,76,77
 92.400390625 211.295898438 92.400390625 211.295898438 92.400390625 224.153320312 c 2,78,79
 93.0595703125 333.858398438 93.0595703125 333.858398438 93.0595703125 334.016601562 c 2,80,81
 93.3896484375 410.306640625 93.3896484375 410.306640625 93.7197265625 489.124023438 c 1,82,83
 93.7197265625 500.982421875 93.7197265625 500.982421875 93.7197265625 519.243164062 c 2,84,85
 93.7197265625 562.880859375 93.7197265625 562.880859375 92.4453125 571.930664062 c 0,86,87
 89.177734375 579.455078125 89.177734375 579.455078125 83.1533203125 580.125 c 0,88,89
 83.1171875 580.12890625 83.1171875 580.12890625 64.1806640625 582.017578125 c 2,90,-1
 52.4697265625 582.017578125 l 2,91,92
 43.43359375 582.017578125 43.43359375 582.017578125 33.2080078125 589.393554688 c 0,93,94
 21.0595703125 597.62890625 21.0595703125 597.62890625 24.8076171875 636.686523438 c 0,95,96
 26.4296875 652.264648438 26.4296875 652.264648438 28.1572265625 655.228515625 c 128,-1,97
 29.884765625 658.192382812 29.884765625 658.192382812 31.783203125 658.649414062 c 0,98,99
 44.6826171875 663.311523438 44.6826171875 663.311523438 47.3427734375 663.8828125 c 0,100,101
 70.65625 670.869140625 70.65625 670.869140625 96.3828125 691.334960938 c 0,0,1
EndSplineSet
EndChar

StartChar: two
Encoding: 50 50 35
Width: 327
Flags: W
LayerCount: 2
Fore
SplineSet
136.809570312 158.073242188 m 0,0,1
 112.561523438 104.630859375 112.561523438 104.630859375 101.293945312 83.3134765625 c 1,2,3
 116.013671875 75.0107421875 116.013671875 75.0107421875 150.125 75.0107421875 c 0,4,5
 187.357421875 75.0107421875 187.357421875 75.0107421875 214.751953125 86.6513671875 c 0,6,7
 233.360351562 94.5576171875 233.360351562 94.5576171875 238.06640625 106.551757812 c 0,8,9
 253.798828125 151.826171875 253.798828125 151.826171875 264.076171875 185.616210938 c 128,-1,10
 274.353515625 219.405273438 274.353515625 219.405273438 279.981445312 237.099609375 c 0,11,12
 281.991210938 243.418945312 281.991210938 243.418945312 286.932617188 259.215820312 c 0,13,14
 292.03515625 274.840820312 292.03515625 274.840820312 300.213867188 274.840820312 c 0,15,16
 303.587890625 274.840820312 303.587890625 274.840820312 307.01171875 271.98046875 c 0,17,18
 316.6875 263.900390625 316.6875 263.900390625 319.896484375 247.815429688 c 2,19,20
 320.149414062 248.719726562 320.149414062 248.719726562 320.401367188 245.291015625 c 1,21,22
 302.750976562 183.3046875 302.750976562 183.3046875 296.549804688 136.057617188 c 0,23,24
 287.41015625 66.4248046875 287.41015625 66.4248046875 285.111328125 10.0947265625 c 0,25,26
 284.223632812 -11.625 284.223632812 -11.625 275.078125 -11.625 c 0,27,28
 274.319335938 -11.625 274.319335938 -11.625 273.544921875 -11.4326171875 c 0,29,30
 254.151367188 -8.3701171875 254.151367188 -8.3701171875 225.149414062 1.328125 c 0,31,32
 194.893554688 11.0263671875 194.893554688 11.0263671875 148.940429688 14 c 0,33,34
 129.802734375 14 129.802734375 14 106.963867188 13.2607421875 c 0,35,36
 85.5009765625 12.521484375 85.5009765625 12.521484375 68.03125 12.5009765625 c 0,37,38
 66.4462890625 9.7158203125 66.4462890625 9.7158203125 64.33203125 3.431640625 c 0,39,40
 59.6201171875 -10.5712890625 59.6201171875 -10.5712890625 54.1953125 -10.5712890625 c 0,41,42
 53.060546875 -10.5712890625 53.060546875 -10.5712890625 51.9453125 -9.95703125 c 0,43,44
 43.9765625 -9.390625 43.9765625 -9.390625 39.1484375 -1.595703125 c 128,-1,45
 34.3203125 6.19921875 34.3203125 6.19921875 34.3203125 28.091796875 c 0,46,47
 34.3203125 37.5576171875 34.3203125 37.5576171875 38.384765625 46.6552734375 c 0,48,49
 73.888671875 133.638671875 73.888671875 133.638671875 111.659179688 255.293945312 c 0,50,51
 146.447265625 358.732421875 146.447265625 358.732421875 165.358398438 449.02734375 c 0,52,53
 180.604492188 528.528320312 180.604492188 528.528320312 165.954101562 573.513671875 c 128,-1,54
 151.302734375 618.5 151.302734375 618.5 117.57421875 618.5 c 0,55,56
 97.6787109375 618.5 97.6787109375 618.5 86.86328125 606.208984375 c 128,-1,57
 76.0478515625 593.918945312 76.0478515625 593.918945312 69.818359375 577.639648438 c 128,-1,58
 63.5908203125 561.361328125 63.5908203125 561.361328125 59.7890625 544.8671875 c 0,59,60
 53.84375 519.071289062 53.84375 519.071289062 44.4560546875 519.071289062 c 0,61,62
 40.1435546875 519.071289062 40.1435546875 519.071289062 36.4306640625 524.697265625 c 0,63,64
 31.01953125 532.895507812 31.01953125 532.895507812 31.01953125 546.5 c 0,65,66
 31.01953125 553.577148438 31.01953125 553.577148438 33.5 566.458984375 c 128,-1,67
 35.9794921875 579.340820312 35.9794921875 579.340820312 40.017578125 590.8125 c 128,-1,68
 44.056640625 602.28515625 44.056640625 602.28515625 47.3759765625 613.6015625 c 128,-1,69
 50.6953125 624.918945312 50.6953125 624.918945312 52.87890625 629.947265625 c 0,70,71
 66.37109375 665.176757812 66.37109375 665.176757812 78.4482421875 683.212890625 c 0,72,73
 99.9541015625 715.33203125 99.9541015625 715.33203125 124.908203125 718.962890625 c 0,74,75
 135.912109375 720.5 135.912109375 720.5 146.918945312 720.5 c 0,76,77
 203.258789062 720.5 203.258789062 720.5 228.69921875 647.975585938 c 0,78,79
 243.600585938 604.462890625 243.600585938 604.462890625 243.600585938 543.8359375 c 0,80,81
 243.600585938 506.235351562 243.600585938 506.235351562 238.092773438 462.001953125 c 0,82,83
 231.354492188 406.727539062 231.354492188 406.727539062 198.2890625 311.659179688 c 0,84,85
 171.348632812 234.197265625 171.348632812 234.197265625 136.809570312 158.073242188 c 0,0,1
EndSplineSet
EndChar

StartChar: three
Encoding: 51 51 36
Width: 294
Flags: W
LayerCount: 2
Fore
SplineSet
27.537109375 585.400390625 m 4,0,1
 22.60546875 592.125976562 22.60546875 592.125976562 22.60546875 602.375 c 4,2,3
 22.60546875 617.276367188 22.60546875 617.276367188 31.6318359375 634.635742188 c 132,-1,4
 40.6591796875 651.99609375 40.6591796875 651.99609375 54.7783203125 667.126953125 c 132,-1,5
 68.7861328125 682.138671875 68.7861328125 682.138671875 85.99609375 692.569335938 c 132,-1,6
 103.20703125 703 103.20703125 703 122.099609375 703 c 132,-1,7
 141.0625 703 141.0625 703 159.252929688 696.69140625 c 132,-1,8
 177.444335938 690.506835938 177.444335938 690.506835938 191.295898438 675.8984375 c 4,9,10
 219.993164062 643.637695312 219.993164062 643.637695312 219.993164062 582.770507812 c 4,11,12
 219.993164062 559.375976562 219.993164062 559.375976562 210.364257812 532.299804688 c 4,13,14
 191.984375 480.618164062 191.984375 480.618164062 155.935546875 433.3828125 c 4,15,16
 148.439453125 423.838867188 148.439453125 423.838867188 142.017578125 416.61328125 c 5,17,18
 166.532226562 416.537109375 166.532226562 416.537109375 187.16015625 407.91015625 c 4,19,20
 212.3515625 396.119140625 212.3515625 396.119140625 229.689453125 371.392578125 c 132,-1,21
 246.96875 346.750976562 246.96875 346.750976562 256.275390625 311.931640625 c 132,-1,22
 265.532226562 277.295898438 265.532226562 277.295898438 265.532226562 237.6484375 c 4,23,24
 265.532226562 178.7890625 265.532226562 178.7890625 244.522460938 125.426757812 c 132,-1,25
 223.512695312 72.0654296875 223.512695312 72.0654296875 191.84765625 32.0322265625 c 4,26,27
 156.853515625 -7.935546875 156.853515625 -7.935546875 113.451171875 -31.4638671875 c 4,28,29
 74.1767578125 -54.9921875 74.1767578125 -54.9921875 37.595703125 -55.9990234375 c 5,30,-1
 37.5029296875 -55.9990234375 l 6,31,32
 30.99609375 -55.9990234375 30.99609375 -55.9990234375 28.2822265625 -50.2421875 c 132,-1,33
 25.568359375 -44.5986328125 25.568359375 -44.5986328125 25.568359375 -38.3642578125 c 4,34,35
 25.568359375 -30.3154296875 25.568359375 -30.3154296875 28.462890625 -24.2958984375 c 132,-1,36
 31.357421875 -18.2763671875 31.357421875 -18.2763671875 36.046875 -17.7041015625 c 4,37,38
 66.34375 -5.1826171875 66.34375 -5.1826171875 94.0751953125 14.9326171875 c 4,39,40
 158.461914062 56.7646484375 158.461914062 56.7646484375 185.544921875 126.819335938 c 4,41,42
 197.552734375 162.021484375 197.552734375 162.021484375 197.552734375 206.336914062 c 4,43,44
 197.552734375 255.37109375 197.552734375 255.37109375 179.591796875 295.495117188 c 4,45,46
 170.014648438 314.979492188 170.014648438 314.979492188 155.834960938 328.423828125 c 4,47,48
 141.802734375 341.948242188 141.802734375 341.948242188 125.2421875 346.256835938 c 4,49,50
 100.51171875 352.807617188 100.51171875 352.807617188 89.2646484375 352.807617188 c 4,51,52
 78.8955078125 352.807617188 78.8955078125 352.807617188 66.5087890625 344.102539062 c 4,53,54
 62.3876953125 341.426757812 62.3876953125 341.426757812 53.712890625 331.963867188 c 132,-1,55
 45.0380859375 322.5 45.0380859375 322.5 39.482421875 322.5 c 4,56,57
 31.333984375 322.5 31.333984375 322.5 27.416015625 331.198242188 c 4,58,59
 24.6328125 337.379882812 24.6328125 337.379882812 24.6328125 347.413085938 c 4,60,61
 24.6328125 360.883789062 24.6328125 360.883789062 36.7431640625 369.20703125 c 4,62,63
 45.87109375 375.48046875 45.87109375 375.48046875 49.775390625 378.368164062 c 4,64,65
 64.5693359375 389.801757812 64.5693359375 389.801757812 82.033203125 409.4296875 c 132,-1,66
 99.54296875 429.108398438 99.54296875 429.108398438 116.6171875 452.997070312 c 4,67,68
 134.275390625 476.884765625 134.275390625 476.884765625 145.767578125 503.005859375 c 132,-1,69
 157.260742188 529.125976562 157.260742188 529.125976562 157.260742188 554.536132812 c 4,70,71
 157.260742188 599.2421875 157.260742188 599.2421875 140.158203125 620.12109375 c 132,-1,72
 123.055664062 641 123.055664062 641 101.1015625 641 c 4,73,74
 81.51953125 641 81.51953125 641 69.134765625 625.51953125 c 132,-1,75
 56.7509765625 610.0390625 56.7509765625 610.0390625 41.072265625 584.3046875 c 4,76,77
 38.3095703125 580.1171875 38.3095703125 580.1171875 34.8720703125 580.1171875 c 132,-1,78
 31.412109375 580.1171875 31.412109375 580.1171875 27.537109375 585.400390625 c 4,0,1
EndSplineSet
EndChar

StartChar: four
Encoding: 52 52 37
Width: 409
Flags: W
LayerCount: 2
Fore
SplineSet
225.970703125 325 m 6,0,-1
 225.970703125 383 l 5,1,-1
 225.28125 539 l 5,2,-1
 225.28125 593.62890625 l 5,3,4
 201.5703125 548.376953125 201.5703125 548.376953125 168.473632812 488.453125 c 132,-1,5
 135.377929688 428.529296875 135.377929688 428.529296875 97.591796875 350.764648438 c 4,6,7
 93.296875 341.431640625 93.296875 341.431640625 86.517578125 329.342773438 c 132,-1,8
 79.7666015625 317.254882812 79.7666015625 317.254882812 79.7666015625 309 c 4,9,10
 79.7666015625 306.079101562 79.7666015625 306.079101562 81.6025390625 304.966796875 c 4,11,12
 85.671875 302.5 85.671875 302.5 90.4267578125 302.5 c 132,-1,13
 95.294921875 302.5 95.294921875 302.5 113.536132812 303.499023438 c 132,-1,14
 131.778320312 304.498046875 131.778320312 304.498046875 152.499023438 304.999023438 c 132,-1,15
 173.106445312 305.497070312 173.106445312 305.497070312 190.010742188 306.499023438 c 132,-1,16
 206.9140625 307.5 206.9140625 307.5 214.205078125 307.5 c 132,-1,17
 221.49609375 307.5 221.49609375 307.5 223.856445312 310.436523438 c 4,18,19
 225.970703125 314.498046875 225.970703125 314.498046875 225.970703125 325 c 6,0,-1
300.85546875 304.5 m 6,20,-1
 334.196289062 304.5 l 5,21,-1
 380.396484375 305.5 l 6,22,23
 391.615234375 305.5 391.615234375 305.5 399.978515625 293.430664062 c 132,-1,24
 408.446289062 281.211914062 408.446289062 281.211914062 408.446289062 264 c 4,25,26
 408.446289062 251.592773438 408.446289062 251.592773438 404.495117188 244.110351562 c 4,27,28
 399.420898438 234.5 399.420898438 234.5 390.138671875 234.5 c 132,-1,29
 380.856445312 234.5 380.856445312 234.5 372.606445312 235.5 c 132,-1,30
 364.356445312 236.5 364.356445312 236.5 355.9765625 236.5 c 6,31,-1
 342.776367188 236.5 l 5,32,-1
 315.247070312 237.125 l 6,33,34
 299.26171875 237.125 299.26171875 237.125 294.392578125 231.388671875 c 4,35,36
 292.12109375 228.712890625 292.12109375 228.712890625 292.12109375 221.41796875 c 6,37,38
 292.12109375 125.0390625 292.12109375 125.0390625 292.12109375 22.7001953125 c 6,39,40
 292.12109375 14.447265625 292.12109375 14.447265625 291.708007812 9.771484375 c 132,-1,41
 291.293945312 5.095703125 291.293945312 5.095703125 291.293945312 2.29296875 c 132,-1,42
 291.293945312 -0.5107421875 291.293945312 -0.5107421875 293.653320312 -7.1826171875 c 5,43,44
 293.556640625 -1.9287109375 293.556640625 -1.9287109375 293.458007812 -9.384765625 c 6,45,46
 291.721679688 -29.029296875 291.721679688 -29.029296875 278.395507812 -37.537109375 c 4,47,48
 266.706054688 -45 266.706054688 -45 254.615234375 -45 c 132,-1,49
 242.5234375 -45 242.5234375 -45 234.008789062 -39.9453125 c 4,50,51
 223.21484375 -33.705078125 223.21484375 -33.705078125 223.21484375 -22.958984375 c 6,52,53
 223.232421875 -15.68359375 223.232421875 -15.68359375 223.25 -22.09765625 c 6,54,55
 225.28125 2.302734375 225.28125 2.302734375 225.28125 75.384765625 c 6,56,57
 225.28125 123.741210938 225.28125 123.741210938 225.28125 165.939453125 c 5,58,59
 225.626953125 184.419921875 225.626953125 184.419921875 225.970703125 200.018554688 c 6,60,61
 225.970703125 218.907226562 225.970703125 218.907226562 221.913085938 226.170898438 c 132,-1,62
 217.782226562 233.563476562 217.782226562 233.563476562 212.59765625 235.657226562 c 132,-1,63
 207.4140625 237.75 207.4140625 237.75 201.74609375 237.75 c 6,64,-1
 180.837890625 236.5 l 6,65,66
 141.053710938 236.5 141.053710938 236.5 102.12109375 232.5 c 4,67,68
 64.4306640625 228.5 64.4306640625 228.5 25.9765625 228.5 c 4,69,70
 17.7158203125 228.5 17.7158203125 228.5 13.3486328125 240.806640625 c 4,71,72
 11.50390625 246.005859375 11.50390625 246.005859375 11.50390625 252.331054688 c 132,-1,73
 11.50390625 258.657226562 11.50390625 258.657226562 14.5947265625 265.57421875 c 4,74,75
 31.6171875 303.66796875 31.6171875 303.66796875 63.89453125 369.240234375 c 6,76,77
 79.8984375 399.069335938 79.8984375 399.069335938 96.0458984375 434.21875 c 6,78,79
 146.982421875 533.54296875 146.982421875 533.54296875 159.793945312 557.798828125 c 132,-1,80
 172.604492188 582.055664062 172.604492188 582.055664062 181.61328125 597.90234375 c 4,81,82
 195.740234375 623.862304688 195.740234375 623.862304688 202.740234375 643.870117188 c 4,83,84
 211.8828125 669.99609375 211.8828125 669.99609375 222.767578125 693.049804688 c 4,85,86
 228.646484375 705.051757812 228.646484375 705.051757812 239.520507812 709.491210938 c 132,-1,87
 250.393554688 714 250.393554688 714 261.360351562 714 c 132,-1,88
 272.325195312 714 272.325195312 714 280.875976562 707.794921875 c 132,-1,89
 289.427734375 701.704101562 289.427734375 701.704101562 289.427734375 690.255859375 c 4,90,91
 289.427734375 685.32421875 289.427734375 685.32421875 290.0859375 675.484375 c 132,-1,92
 290.743164062 665.64453125 290.743164062 665.64453125 290.743164062 629.947265625 c 6,93,94
 290.743164062 467.8671875 290.743164062 467.8671875 290.743164062 311.86328125 c 6,95,96
 290.743164062 305.184570312 290.743164062 305.184570312 300.85546875 304.5 c 6,20,-1
EndSplineSet
EndChar

StartChar: five
Encoding: 53 53 38
Width: 348
Flags: W
LayerCount: 2
Fore
SplineSet
97.140625 709.359375 m 4,0,1
 101.702148438 709.853515625 101.702148438 709.853515625 109.439453125 710.016601562 c 6,2,3
 142.860351562 703.91796875 142.860351562 703.91796875 176.33984375 708.627929688 c 6,4,5
 216.963867188 708.627929688 216.963867188 708.627929688 251.459960938 712 c 5,6,7
 267.96875 750.013671875 267.96875 750.013671875 284.478515625 800.668945312 c 6,8,9
 288.1328125 809.275390625 288.1328125 809.275390625 294.40234375 809.275390625 c 4,10,11
 297.192382812 809.275390625 297.192382812 809.275390625 308.75 802.270507812 c 5,12,13
 312.407226562 796.838867188 312.407226562 796.838867188 312.407226562 788.004882812 c 4,14,15
 312.407226562 778.217773438 312.407226562 778.217773438 309.600585938 762.13671875 c 132,-1,16
 306.793945312 746.056640625 306.793945312 746.056640625 303.515625 728.526367188 c 132,-1,17
 300.237304688 710.99609375 300.237304688 710.99609375 297.587890625 690.3359375 c 5,18,19
 295.494140625 679.971679688 295.494140625 679.971679688 292.733398438 668.696289062 c 132,-1,20
 289.973632812 657.421875 289.973632812 657.421875 285.1875 646.484375 c 132,-1,21
 280.400390625 635.545898438 280.400390625 635.545898438 272.038085938 628.770507812 c 132,-1,22
 263.674804688 621.995117188 263.674804688 621.995117188 251.852539062 621.995117188 c 6,23,-1
 178.826171875 621.995117188 l 6,24,25
 156.256835938 621.995117188 156.256835938 621.995117188 138.875976562 620.583984375 c 132,-1,26
 121.495117188 619.172851562 121.495117188 619.172851562 119.060546875 617.15625 c 6,27,28
 118.430664062 612.9375 118.430664062 612.9375 117.80078125 616.11328125 c 5,29,30
 117.09375 612.399414062 117.09375 612.399414062 116.385742188 616.05859375 c 5,31,32
 113.517578125 613.8359375 113.517578125 613.8359375 108.678710938 597.337890625 c 4,33,34
 102.66796875 575.80859375 102.66796875 575.80859375 89.646484375 505.350585938 c 4,35,36
 87.8505859375 495.634765625 87.8505859375 495.634765625 86.2314453125 488.438476562 c 5,37,38
 90.818359375 492.288085938 90.818359375 492.288085938 95.794921875 496.8828125 c 4,39,40
 123.98828125 522.013671875 123.98828125 522.013671875 165.331054688 533.620117188 c 4,41,42
 176.33203125 536.708007812 176.33203125 536.708007812 188.6796875 536.708007812 c 132,-1,43
 200.919921875 536.708007812 200.919921875 536.708007812 214.451171875 533.6796875 c 4,44,45
 247.504882812 526.583007812 247.504882812 526.583007812 270.344726562 505.173828125 c 4,46,47
 315.958007812 462.060546875 315.958007812 462.060546875 327.641601562 381.41015625 c 4,48,49
 331.284179688 356.265625 331.284179688 356.265625 331.284179688 334.911132812 c 132,-1,50
 331.284179688 313.556640625 331.284179688 313.556640625 330.029296875 297.147460938 c 4,51,52
 324.609375 227.7109375 324.609375 227.7109375 298.284179688 170.564453125 c 132,-1,53
 271.9609375 113.41796875 271.9609375 113.41796875 233.154296875 72.52734375 c 4,54,55
 217.158203125 55.96875 217.158203125 55.96875 209.365234375 55.375 c 4,56,57
 200.374023438 55.375 200.374023438 55.375 189.618164062 74.734375 c 4,58,59
 185.896484375 80.84375 185.896484375 80.84375 190.512695312 89.6015625 c 4,60,61
 192.67578125 93.703125 192.67578125 93.703125 199.434570312 102.31640625 c 132,-1,62
 206.194335938 110.928710938 206.194335938 110.928710938 219.0390625 132.497070312 c 132,-1,63
 231.884765625 154.065429688 231.884765625 154.065429688 244.334960938 187.009765625 c 4,64,65
 256.319335938 219.954101562 256.319335938 219.954101562 261.473632812 266.758789062 c 4,66,67
 263.921875 306.776367188 263.921875 306.776367188 263.94140625 316.763671875 c 132,-1,68
 263.9609375 326.75 263.9609375 326.75 263.73828125 333.467773438 c 4,69,70
 262.799804688 361.833007812 262.799804688 361.833007812 255.671875 383.009765625 c 132,-1,71
 248.451171875 404.102539062 248.451171875 404.102539062 233.590820312 420.419921875 c 132,-1,72
 218.732421875 436.73828125 218.732421875 436.73828125 193.896484375 451.03515625 c 4,73,74
 185.7578125 455.318359375 185.7578125 455.318359375 170.602539062 453.922851562 c 132,-1,75
 155.448242188 452.528320312 155.448242188 452.528320312 138.447265625 447.259765625 c 132,-1,76
 121.458984375 441.995117188 121.458984375 441.995117188 106.177734375 433.387695312 c 4,77,78
 91.720703125 424.795898438 91.720703125 424.795898438 83.0947265625 416.91015625 c 5,79,80
 78.9072265625 414.577148438 78.9072265625 414.577148438 76.294921875 408.541015625 c 132,-1,81
 73.68359375 402.504882812 73.68359375 402.504882812 69.44140625 395.05859375 c 132,-1,82
 65.2001953125 387.611328125 65.2001953125 387.611328125 57.423828125 384.571289062 c 4,83,84
 54.962890625 383.609375 54.962890625 383.609375 50.494140625 383.609375 c 132,-1,85
 46.025390625 383.609375 46.025390625 383.609375 37.509765625 388.668945312 c 5,86,87
 29.1025390625 398.383789062 29.1025390625 398.383789062 29.1025390625 412.764648438 c 4,88,89
 29.1025390625 431.506835938 29.1025390625 431.506835938 35.6123046875 447.28515625 c 132,-1,90
 42.1220703125 463.063476562 42.1220703125 463.063476562 43.92578125 470.2109375 c 4,91,92
 58.5625 529.23046875 58.5625 529.23046875 66.0234375 568.026367188 c 4,93,94
 82.44921875 653.4296875 82.44921875 653.4296875 84.5634765625 687.974609375 c 4,95,96
 85.0634765625 693.109375 85.0634765625 693.109375 86.8740234375 699.833984375 c 4,97,98
 89.3798828125 709.13671875 89.3798828125 709.13671875 97.140625 709.359375 c 4,0,1
EndSplineSet
EndChar

StartChar: six
Encoding: 54 54 39
Width: 405
Flags: W
LayerCount: 2
Fore
SplineSet
290.703125 432.649414062 m 0,0,1
 315.470703125 416.751953125 315.470703125 416.751953125 332.703125 387.975585938 c 128,-1,2
 349.87109375 359.307617188 349.87109375 359.307617188 358.74609375 320.633789062 c 128,-1,3
 367.620117188 281.959960938 367.620117188 281.959960938 367.620117188 235.434570312 c 128,-1,4
 367.620117188 188.909179688 367.620117188 188.909179688 356.76953125 143.91796875 c 128,-1,5
 345.904296875 98.861328125 345.904296875 98.861328125 325.84375 63.8837890625 c 128,-1,6
 305.717773438 28.79296875 305.717773438 28.79296875 277.217773438 8.14453125 c 0,7,8
 247.517578125 -12.50390625 247.517578125 -12.50390625 211.590820312 -12.75 c 128,-1,9
 175.663085938 -12.9951171875 175.663085938 -12.9951171875 140.283203125 7.2119140625 c 0,10,11
 111.71484375 24.4375 111.71484375 24.4375 92.5625 52.4013671875 c 128,-1,12
 73.5322265625 80.1884765625 73.5322265625 80.1884765625 61.2919921875 114.559570312 c 0,13,14
 36.9599609375 182.887695312 36.9599609375 182.887695312 36.9599609375 266.377929688 c 128,-1,15
 36.9599609375 349.8671875 36.9599609375 349.8671875 54.7177734375 423.087890625 c 128,-1,16
 72.474609375 496.30859375 72.474609375 496.30859375 103.260742188 558.495117188 c 0,17,18
 135.000976562 620.595703125 135.000976562 620.595703125 178.661132812 669.76953125 c 0,19,20
 232.098632812 729.954101562 232.098632812 729.954101562 290.21484375 762.612304688 c 0,21,22
 300.780273438 768.895507812 300.780273438 768.895507812 310.37109375 770.19140625 c 1,23,24
 315.380859375 765.740234375 315.380859375 765.740234375 320.380859375 759.571289062 c 128,-1,25
 325.379882812 753.40234375 325.379882812 753.40234375 325.379882812 744.080078125 c 128,-1,26
 325.379882812 734.7578125 325.379882812 734.7578125 318.993164062 727.07421875 c 0,27,28
 307.235351562 712.9296875 307.235351562 712.9296875 282.799804688 698.421875 c 1,29,30
 262.063476562 681.358398438 262.063476562 681.358398438 239.0078125 653.51171875 c 0,31,32
 192.032226562 597.673828125 192.032226562 597.673828125 161.987304688 524.040039062 c 0,33,34
 135.893554688 459.426757812 135.893554688 459.426757812 123.063476562 387.131835938 c 1,35,36
 176.681640625 448.5 176.681640625 448.5 232.79296875 448.5 c 0,37,38
 264.731445312 448.5 264.731445312 448.5 290.703125 432.649414062 c 0,0,1
152.491210938 361.114257812 m 128,-1,40
 126.040039062 334.729492188 126.040039062 334.729492188 114.0078125 312.705078125 c 1,41,42
 112.780273438 295.329101562 112.780273438 295.329101562 111.830078125 280.764648438 c 128,-1,43
 110.879882812 266.19921875 110.879882812 266.19921875 110.879882812 239.751953125 c 128,-1,44
 110.879882812 213.3046875 110.879882812 213.3046875 115.079101562 175.442382812 c 128,-1,45
 119.354492188 137.581054688 119.354492188 137.581054688 130.48828125 105.540039062 c 128,-1,46
 141.622070312 73.5 141.622070312 73.5 160.40625 53.25 c 128,-1,47
 179.189453125 33 179.189453125 33 208.25 33 c 0,48,49
 233.216796875 33 233.216796875 33 250.2890625 49.96484375 c 128,-1,50
 267.362304688 66.9306640625 267.362304688 66.9306640625 278.438476562 94.1171875 c 0,51,52
 289.338867188 121.3046875 289.338867188 121.3046875 293.829101562 153.668945312 c 128,-1,53
 298.3203125 186.032226562 298.3203125 186.032226562 298.3203125 217.5234375 c 128,-1,54
 298.3203125 249.014648438 298.3203125 249.014648438 293.211914062 279.805664062 c 128,-1,55
 288.103515625 310.59765625 288.103515625 310.59765625 276.874023438 334.794921875 c 128,-1,56
 265.544921875 358.993164062 265.544921875 358.993164062 247.709960938 373.291015625 c 128,-1,57
 229.987304688 387.5 229.987304688 387.5 204.46484375 387.5 c 128,-1,39
 178.94140625 387.5 178.94140625 387.5 152.491210938 361.114257812 c 128,-1,40
EndSplineSet
EndChar

StartChar: seven
Encoding: 55 55 40
Width: 345
Flags: W
LayerCount: 2
Fore
SplineSet
73.7353515625 762.568359375 m 6,0,1
 73.302734375 750.325195312 73.302734375 750.325195312 73.302734375 739.391601562 c 6,2,3
 73.4130859375 722.259765625 73.4130859375 722.259765625 73.5234375 718.004882812 c 6,4,5
 73.5234375 710.771484375 73.5234375 710.771484375 73.326171875 703.356445312 c 5,6,7
 83.9609375 696.984375 83.9609375 696.984375 94.595703125 702.565429688 c 5,8,-1
 181.00390625 702.565429688 l 6,9,10
 196.341796875 702.565429688 196.341796875 702.565429688 210.272460938 703.538085938 c 6,11,12
 210.325195312 697.553710938 210.325195312 697.553710938 210.377929688 703.543945312 c 6,13,14
 233.54296875 704.524414062 233.54296875 704.524414062 256.740234375 706 c 4,15,16
 278.557617188 707.475585938 278.557617188 707.475585938 300.453125 707.475585938 c 6,17,-1
 309.033203125 707.475585938 l 6,18,19
 317.098632812 707.475585938 317.098632812 707.475585938 325.77734375 703.170898438 c 4,20,21
 337.083007812 697.563476562 337.083007812 697.563476562 337.083007812 681.451171875 c 4,22,23
 337.083007812 672.462890625 337.083007812 672.462890625 323.055664062 629.620117188 c 4,24,25
 316.83203125 610.61328125 316.83203125 610.61328125 310.227539062 588.0078125 c 132,-1,26
 303.622070312 565.403320312 303.622070312 565.403320312 296.682617188 544.75390625 c 132,-1,27
 289.744140625 524.103515625 289.744140625 524.103515625 284.83203125 508.0234375 c 132,-1,28
 279.89453125 491.86328125 279.89453125 491.86328125 277.8671875 485.8125 c 4,29,30
 236.416992188 353.279296875 236.416992188 353.279296875 193.828125 224.006835938 c 132,-1,31
 151.240234375 94.7333984375 151.240234375 94.7333984375 99.060546875 -32.2919921875 c 4,32,33
 95.5771484375 -40.40234375 95.5771484375 -40.40234375 88.205078125 -40.40234375 c 4,34,35
 81.6494140625 -40.40234375 81.6494140625 -40.40234375 74.6162109375 -35.38671875 c 132,-1,36
 67.58203125 -30.4619140625 67.58203125 -30.4619140625 63.8740234375 -23.2890625 c 132,-1,37
 60.166015625 -16.1162109375 60.166015625 -16.1162109375 60.166015625 -11.48828125 c 4,38,39
 60.166015625 -6.59375 60.166015625 -6.59375 61.0419921875 -3.65234375 c 6,40,41
 93.056640625 98.865234375 93.056640625 98.865234375 127.046875 191.302734375 c 5,42,43
 161.490234375 290.2578125 161.490234375 290.2578125 195.93359375 386.149414062 c 5,44,45
 212.623046875 435.315429688 212.623046875 435.315429688 229.313476562 486.733398438 c 6,46,47
 245.6796875 535.84375 245.6796875 535.84375 260.048828125 586.408203125 c 5,48,49
 261.842773438 599.752929688 261.842773438 599.752929688 261.842773438 603.73046875 c 132,-1,50
 261.842773438 607.708984375 261.842773438 607.708984375 259.217773438 608.490234375 c 4,51,52
 252.909179688 610.310546875 252.909179688 610.310546875 248.513671875 610.310546875 c 6,53,-1
 33.8125 610.310546875 l 6,54,55
 27.1142578125 610.310546875 27.1142578125 610.310546875 21.1162109375 613.099609375 c 4,56,57
 13.802734375 616.5 13.802734375 616.5 13.802734375 626.55859375 c 4,58,59
 13.802734375 629.63671875 13.802734375 629.63671875 17.16015625 643.447265625 c 4,60,61
 21.9228515625 663.032226562 21.9228515625 663.032226562 30.1376953125 706.828125 c 132,-1,62
 38.3515625 750.624023438 38.3515625 750.624023438 42.0732421875 764.719726562 c 4,63,64
 46.9375 783.143554688 46.9375 783.143554688 54.2724609375 783.143554688 c 4,65,66
 58.2890625 783.143554688 58.2890625 783.143554688 64.580078125 780.33984375 c 4,67,68
 73.7431640625 776.330078125 73.7431640625 776.330078125 73.7431640625 762.9609375 c 6,69,70
 73.7392578125 755.71484375 73.7392578125 755.71484375 73.7353515625 762.568359375 c 6,0,1
EndSplineSet
EndChar

StartChar: eight
Encoding: 56 56 41
Width: 354
Flags: W
LayerCount: 2
Fore
SplineSet
287.000976562 45.5595703125 m 128,-1,1
 268.458007812 17.5126953125 268.458007812 17.5126953125 242.932617188 2.2373046875 c 0,2,3
 215.564453125 -13 215.564453125 -13 185.842773438 -13 c 128,-1,4
 156.12109375 -13 156.12109375 -13 127.888671875 -4.439453125 c 0,5,6
 100.688476562 4.1201171875 100.688476562 4.1201171875 80.0185546875 24.0732421875 c 128,-1,7
 59.3486328125 44.025390625 59.3486328125 44.025390625 46.2138671875 77.390625 c 0,8,9
 32.283203125 112.776367188 32.283203125 112.776367188 32.2822265625 164.426757812 c 0,10,11
 32.2822265625 220.291015625 32.2822265625 220.291015625 58.5029296875 268.96484375 c 0,12,13
 80.5498046875 309.890625 80.5498046875 309.890625 123.10546875 343.765625 c 0,14,15
 125.622070312 345.650390625 125.622070312 345.650390625 129.420898438 348.49609375 c 1,16,17
 128.96484375 348.921875 128.96484375 348.921875 126.646484375 350.947265625 c 128,-1,18
 124.329101562 352.97265625 124.329101562 352.97265625 120.541015625 358.05859375 c 0,19,20
 82.517578125 392.967773438 82.517578125 392.967773438 61.91015625 428.669921875 c 0,21,22
 49.619140625 449.965820312 49.619140625 449.965820312 41.328125 475.104492188 c 0,23,24
 32.3037109375 502.465820312 32.3037109375 502.465820312 32.3037109375 540.817382812 c 128,-1,25
 32.3037109375 579.16796875 32.3037109375 579.16796875 43.677734375 613.944335938 c 128,-1,26
 55.0517578125 648.721679688 55.0517578125 648.721679688 74.6181640625 674.209960938 c 128,-1,27
 94.142578125 699.64453125 94.142578125 699.64453125 120.662109375 713.346679688 c 0,28,29
 148.646484375 727 148.646484375 727 177.328125 727 c 128,-1,30
 206.008789062 727 206.008789062 727 232.516601562 716.381835938 c 0,31,32
 284.8515625 694.120117188 284.8515625 694.120117188 308.890625 631.645507812 c 0,33,34
 322.127929688 597.244140625 322.127929688 597.244140625 322.12890625 552.608398438 c 0,35,36
 322.12890625 488.05859375 322.12890625 488.05859375 290.841796875 443.809570312 c 0,37,38
 276.55859375 423.607421875 276.55859375 423.607421875 259.87890625 409.1953125 c 0,39,40
 243.0546875 394.783203125 243.0546875 394.783203125 226.459960938 383.356445312 c 1,41,42
 227.260742188 382.723632812 227.260742188 382.723632812 230.384765625 380.435546875 c 0,43,44
 252.165039062 364.0546875 252.165039062 364.0546875 269.293945312 342.48828125 c 0,45,46
 302.594726562 300.55859375 302.594726562 300.55859375 318.04296875 247.6953125 c 0,47,48
 326.080078125 220.194335938 326.080078125 220.194335938 326.080078125 182.384765625 c 128,-1,49
 326.080078125 144.575195312 326.080078125 144.575195312 315.776367188 109.037109375 c 128,-1,0
 305.47265625 73.4990234375 305.47265625 73.4990234375 287.000976562 45.5595703125 c 128,-1,1
109.450195312 271.791992188 m 0,50,51
 92.970703125 231.38671875 92.970703125 231.38671875 92.970703125 184.647460938 c 0,52,53
 92.970703125 153.11328125 92.970703125 153.11328125 97.4638671875 124.830078125 c 0,54,55
 106.388671875 68.6650390625 106.388671875 68.6650390625 134.447265625 44.9619140625 c 0,56,57
 148.895507812 33 148.895507812 33 170.26953125 33 c 0,58,59
 184.158203125 33 184.158203125 33 196.061523438 35.3828125 c 128,-1,60
 207.963867188 37.7646484375 207.963867188 37.7646484375 220.795898438 46.2822265625 c 0,61,62
 244.727539062 62.1162109375 244.727539062 62.1162109375 253.561523438 91.1298828125 c 0,63,64
 261.51953125 117.327148438 261.51953125 117.327148438 261.51953125 149.155273438 c 0,65,66
 261.51953125 153.572265625 261.51953125 153.572265625 261.366210938 158.110351562 c 2,67,68
 261.364257812 165.69921875 261.364257812 165.69921875 261.362304688 158.288085938 c 2,69,70
 260.193359375 222.036132812 260.193359375 222.036132812 230.271484375 267.826171875 c 0,71,72
 205.59375 304.08984375 205.59375 304.08984375 159.528320312 330.4296875 c 1,73,74
 126.951171875 312.197265625 126.951171875 312.197265625 109.450195312 271.791992188 c 0,50,51
209.833007812 672.654296875 m 128,-1,76
 193.38671875 683 193.38671875 683 172.41015625 683 c 0,77,78
 136.200195312 683 136.200195312 683 113.814453125 649.291992188 c 0,79,80
 93.0791015625 615.583984375 93.0791015625 615.583984375 93.0595703125 563.598632812 c 0,81,82
 93.7001953125 526.944335938 93.7001953125 526.944335938 109.30078125 493.852539062 c 0,83,84
 114.401367188 483.384765625 114.401367188 483.384765625 124.809570312 468.802734375 c 0,85,86
 148.724609375 435.29296875 148.724609375 435.29296875 172.9609375 415.483398438 c 0,87,88
 184.2734375 406.237304688 184.2734375 406.237304688 193.135742188 402.321289062 c 1,89,90
 208.958007812 408.9609375 208.958007812 408.9609375 221.8359375 424.229492188 c 128,-1,91
 234.713867188 439.497070312 234.713867188 439.497070312 243.913085938 459.547851562 c 0,92,93
 252.509765625 479.619140625 252.509765625 479.619140625 256.9296875 503.061523438 c 128,-1,94
 261.346679688 526.48828125 261.346679688 526.48828125 261.360351562 549.368164062 c 0,95,96
 260.716796875 577.038085938 260.716796875 577.038085938 254.427734375 601.811523438 c 128,-1,97
 248.139648438 626.583984375 248.139648438 626.583984375 237.319335938 644.458007812 c 0,98,75
 226.240234375 662.33203125 226.240234375 662.33203125 209.833007812 672.654296875 c 128,-1,76
EndSplineSet
EndChar

StartChar: nine
Encoding: 57 57 42
Width: 405
Flags: W
LayerCount: 2
Fore
SplineSet
201.586914062 318.5 m 128,-1,1
 226.51953125 318.5 226.51953125 318.5 254.958984375 346.081054688 c 0,2,3
 267.267578125 358.018554688 267.267578125 358.018554688 277.104492188 370.83984375 c 128,-1,4
 286.940429688 383.66015625 286.940429688 383.66015625 292.563476562 393.456054688 c 1,5,6
 293.784179688 410.737304688 293.784179688 410.737304688 294.732421875 425.268554688 c 128,-1,7
 295.6796875 439.80078125 295.6796875 439.80078125 295.6796875 466.248046875 c 128,-1,8
 295.6796875 492.6953125 295.6796875 492.6953125 291.48046875 530.557617188 c 128,-1,9
 287.247070312 568.418945312 287.247070312 568.418945312 276.11328125 600.459960938 c 128,-1,10
 264.979492188 632.5 264.979492188 632.5 246.1953125 652.75 c 128,-1,11
 227.411132812 673 227.411132812 673 198.350585938 673 c 0,12,13
 173.383789062 673 173.383789062 673 156.302734375 656.026367188 c 128,-1,14
 139.221679688 639.052734375 139.221679688 639.052734375 128.145507812 612.33203125 c 0,15,16
 117.203125 585.611328125 117.203125 585.611328125 112.391601562 552.768554688 c 128,-1,17
 107.580078125 519.926757812 107.580078125 519.926757812 107.580078125 488.483398438 c 128,-1,18
 107.580078125 457.0390625 107.580078125 457.0390625 113.005859375 426.259765625 c 0,19,20
 124.7421875 361.459960938 124.7421875 361.459960938 158.954101562 333.147460938 c 0,21,0
 176.65234375 318.5 176.65234375 318.5 201.586914062 318.5 c 128,-1,1
252.470703125 192.388671875 m 0,22,23
 271.010742188 249.172851562 271.010742188 249.172851562 283.3828125 319.494140625 c 1,24,25
 230.392578125 257.5 230.392578125 257.5 173.80859375 257.5 c 0,26,27
 141.122070312 257.5 141.122070312 257.5 115.450195312 273.892578125 c 0,28,29
 66.154296875 307.018554688 66.154296875 307.018554688 47.474609375 385.416992188 c 0,30,31
 38.2802734375 424.002929688 38.2802734375 424.002929688 38.2802734375 470.571289062 c 128,-1,32
 38.2802734375 517.139648438 38.2802734375 517.139648438 49.4765625 562.1640625 c 128,-1,33
 60.6591796875 607.126953125 60.6591796875 607.126953125 80.40234375 642.654296875 c 128,-1,34
 100.145507812 678.182617188 100.145507812 678.182617188 128.688476562 699.052734375 c 0,35,36
 158.541992188 720 158.541992188 720 194.763671875 720 c 128,-1,37
 230.986328125 720 230.986328125 720 266.318359375 698.834960938 c 0,38,39
 294.845703125 681.62890625 294.845703125 681.62890625 313.998046875 653.6953125 c 0,40,41
 351.419921875 599.115234375 351.419921875 599.115234375 363.21875 517.688476562 c 0,42,43
 368.940429688 478.209960938 368.940429688 478.209960938 368.940429688 437.23828125 c 0,44,45
 368.940429688 356.66796875 368.940429688 356.66796875 353.513671875 286.947265625 c 128,-1,46
 338.116210938 217.358398438 338.116210938 217.358398438 312.313476562 161.125 c 128,-1,47
 286.411132812 104.857421875 286.411132812 104.857421875 250.049804688 63.501953125 c 128,-1,48
 213.716796875 22.177734375 213.716796875 22.177734375 174.46875 0.2041015625 c 0,49,50
 166.748046875 -4.69921875 166.748046875 -4.69921875 155.861328125 -11.29296875 c 128,-1,51
 144.974609375 -17.88671875 144.974609375 -17.88671875 134.709960938 -19.19140625 c 1,52,53
 129.280273438 -14.6669921875 129.280273438 -14.6669921875 124.021484375 -7.974609375 c 128,-1,54
 118.799804688 -1.283203125 118.799804688 -1.283203125 118.799804688 8.7431640625 c 0,55,56
 118.799804688 13.1962890625 118.799804688 13.1962890625 121.719726562 17.0546875 c 128,-1,57
 124.67578125 20.9130859375 124.67578125 20.9130859375 131.727539062 27.1787109375 c 0,58,59
 144.956054688 38.935546875 144.956054688 38.935546875 164.49609375 55.0439453125 c 128,-1,60
 184.036132812 71.15234375 184.036132812 71.15234375 189.294921875 77.541015625 c 0,61,62
 231.20703125 128.103515625 231.20703125 128.103515625 252.470703125 192.388671875 c 0,22,23
EndSplineSet
EndChar

StartChar: colon
Encoding: 58 58 43
Width: 173
Flags: W
LayerCount: 2
Fore
SplineSet
46.943359375 457.23046875 m 0,0,1
 60.6123046875 478.5 60.6123046875 478.5 79.4560546875 478.5 c 0,2,3
 98.2998046875 478.5 98.2998046875 478.5 113.334960938 457.38671875 c 0,4,5
 128.370117188 436.272460938 128.370117188 436.272460938 128.370117188 405.556640625 c 0,6,7
 128.370117188 374.83984375 128.370117188 374.83984375 113.674804688 353.130859375 c 0,8,9
 99.0322265625 331.5 99.0322265625 331.5 79.2001953125 331.5 c 0,10,11
 75.5595703125 331.5 75.5595703125 331.5 74.0615234375 332.765625 c 0,12,13
 66.3671875 334.310546875 66.3671875 334.310546875 58.875 341.338867188 c 0,14,15
 45.1640625 354.19921875 45.1640625 354.19921875 37.0380859375 382.515625 c 0,16,17
 33.330078125 395.4375 33.330078125 395.4375 33.330078125 409 c 0,18,19
 33.330078125 436.045898438 33.330078125 436.045898438 46.943359375 457.23046875 c 0,0,1
46.7568359375 101.444335938 m 0,20,21
 60.728515625 121.5 60.728515625 121.5 79.8427734375 121.5 c 0,22,23
 98.95703125 121.5 98.95703125 121.5 113.663085938 100.888671875 c 0,24,25
 128.370117188 80.27734375 128.370117188 80.27734375 128.370117188 50.6669921875 c 0,26,27
 128.370117188 21.056640625 128.370117188 21.056640625 114.103515625 -2.2216796875 c 0,28,29
 99.8369140625 -25.5 99.8369140625 -25.5 79.8603515625 -25.5 c 0,30,31
 70.1103515625 -25.5 70.1103515625 -25.5 61.1513671875 -18.712890625 c 0,32,33
 45.1630859375 -6.6005859375 45.1630859375 -6.6005859375 36.716796875 22.4853515625 c 0,34,35
 32.669921875 36.419921875 32.669921875 36.419921875 32.669921875 51 c 0,36,37
 32.669921875 81.2236328125 32.669921875 81.2236328125 46.7568359375 101.444335938 c 0,20,21
EndSplineSet
EndChar

StartChar: semicolon
Encoding: 59 59 44
Width: 174
Flags: W
LayerCount: 2
Fore
SplineSet
85.7998046875 331.5 m 1,0,-1
 81.4638671875 332.701171875 l 1,1,2
 62.904296875 335.599609375 62.904296875 335.599609375 53.0673828125 357.12890625 c 128,-1,3
 43.23046875 378.658203125 43.23046875 378.658203125 43.23046875 404 c 0,4,5
 43.23046875 435.915039062 43.23046875 435.915039062 55.5068359375 456.208007812 c 128,-1,6
 67.7841796875 476.5 67.7841796875 476.5 87.7744140625 476.5 c 128,-1,7
 107.765625 476.5 107.765625 476.5 121.038085938 454.71484375 c 128,-1,8
 134.309570312 432.930664062 134.309570312 432.930664062 134.309570312 403.94140625 c 128,-1,9
 134.309570312 374.952148438 134.309570312 374.952148438 120.365234375 353.267578125 c 128,-1,10
 106.3671875 331.5 106.3671875 331.5 85.7998046875 331.5 c 1,0,-1
148.169921875 -12 m 0,11,12
 148.169921875 -87.69921875 148.169921875 -87.69921875 108.88671875 -140.606445312 c 0,13,14
 106.487304688 -143.672851562 106.487304688 -143.672851562 97.5341796875 -153.439453125 c 0,15,16
 77.044921875 -175.791992188 77.044921875 -175.791992188 64.5380859375 -185.646484375 c 128,-1,17
 52.03125 -195.5 52.03125 -195.5 46.8603515625 -195.5 c 0,18,19
 45.341796875 -195.5 45.341796875 -195.5 36.958984375 -186.186523438 c 0,20,21
 33 -181 33 -181 32.669921875 -172 c 0,22,23
 32.669921875 -168.8203125 32.669921875 -168.8203125 33.9599609375 -166.499023438 c 128,-1,24
 35.25 -164.177734375 35.25 -164.177734375 40.1572265625 -157.671875 c 0,25,26
 48.6484375 -146.415039062 48.6484375 -146.415039062 52.2705078125 -143.521484375 c 0,27,28
 61.8505859375 -133.82421875 61.8505859375 -133.82421875 70.0498046875 -123.7890625 c 0,29,30
 86.150390625 -104.0859375 86.150390625 -104.0859375 92.7197265625 -77.84375 c 0,31,32
 96.0302734375 -64.6220703125 96.0302734375 -64.6220703125 96.0302734375 -47.2353515625 c 128,-1,33
 96.0302734375 -29.849609375 96.0302734375 -29.849609375 91.771484375 -22.5908203125 c 128,-1,34
 87.5126953125 -15.3310546875 87.5126953125 -15.3310546875 80.65234375 -11.2646484375 c 128,-1,35
 73.7919921875 -7.197265625 73.7919921875 -7.197265625 64.6708984375 -4.1259765625 c 128,-1,36
 55.548828125 -1.0546875 55.548828125 -1.0546875 47.5888671875 6.58984375 c 0,37,38
 29.3642578125 22.712890625 29.3642578125 22.712890625 29.3642578125 50.990234375 c 0,39,40
 29.3642578125 51.4931640625 29.3642578125 51.4931640625 29.3701171875 52 c 0,41,42
 29.3701171875 84.037109375 29.3701171875 84.037109375 46.6123046875 101.268554688 c 128,-1,43
 63.85546875 118.5 63.85546875 118.5 81.83984375 118.5 c 128,-1,44
 99.8564453125 118.5 99.8564453125 118.5 112.107421875 105.943359375 c 128,-1,45
 124.359375 93.3857421875 124.359375 93.3857421875 132.821289062 74.15234375 c 0,46,47
 148.169921875 39.26953125 148.169921875 39.26953125 148.169921875 -12 c 0,11,12
EndSplineSet
EndChar

StartChar: less
Encoding: 60 60 45
Width: 308
Flags: W
LayerCount: 2
Fore
SplineSet
289.41015625 16 m 2,0,1
 289.41015625 5.6357421875 289.41015625 5.6357421875 288.193359375 0.72265625 c 0,2,3
 286.977539062 -4.19140625 286.977539062 -4.19140625 285.657226562 -7.69140625 c 0,4,5
 284.337890625 -11.19140625 284.337890625 -11.19140625 283.57421875 -14.27734375 c 0,6,7
 282.809570312 -17.3642578125 282.809570312 -17.3642578125 282.809570312 -26 c 2,8,-1
 282.809570312 -38.4130859375 l 1,9,10
 236.534179688 -1.5732421875 236.534179688 -1.5732421875 209.057617188 22.5029296875 c 0,11,12
 181.603515625 46.55859375 181.603515625 46.55859375 155.465820312 71.1220703125 c 0,13,14
 129.337890625 95.6767578125 129.337890625 95.6767578125 100.58203125 124.221679688 c 0,15,16
 71.92578125 152.668945312 71.92578125 152.668945312 28.0498046875 193.822265625 c 1,17,-1
 28.0498046875 265.315429688 l 1,18,19
 83.2138671875 313.909179688 83.2138671875 313.909179688 109.841796875 340.551757812 c 0,20,21
 136.469726562 367.1953125 136.469726562 367.1953125 152.31640625 384.202148438 c 0,22,23
 168.163085938 401.209960938 168.163085938 401.209960938 185.396484375 418.282226562 c 0,24,25
 228.133789062 460.62109375 228.133789062 460.62109375 279.509765625 501.395507812 c 1,26,-1
 279.509765625 489 l 2,27,28
 279.509765625 479.221679688 279.509765625 479.221679688 280.720703125 473.719726562 c 0,29,30
 281.930664062 468.216796875 281.930664062 468.216796875 282.700195312 464.13671875 c 0,31,32
 283.469726562 460.055664062 283.469726562 460.055664062 283.469726562 450 c 2,33,-1
 283.469726562 446.235351562 l 1,34,35
 223.049804688 378.0625 223.049804688 378.0625 191.586914062 340.07421875 c 0,36,37
 160.124023438 302.0859375 160.124023438 302.0859375 138.961914062 277.538085938 c 2,38,-1
 97.875 229.958984375 l 1,39,40
 158.500976562 158.819335938 158.500976562 158.819335938 185.608398438 129.483398438 c 0,41,42
 207.545898438 105.7421875 207.545898438 105.7421875 289.41015625 19.9306640625 c 1,43,-1
 289.41015625 16 l 2,0,1
EndSplineSet
EndChar

StartChar: equal
Encoding: 61 61 46
Width: 345
Flags: W
LayerCount: 2
Fore
SplineSet
216.48046875 299.5 m 1,0,-1
 40.259765625 298.5 l 1,1,-1
 37.5673828125 298.5 l 1,2,3
 27.3427734375 322.44140625 27.3427734375 322.44140625 27.3427734375 337.529296875 c 0,4,5
 27.3427734375 352.616210938 27.3427734375 352.616210938 37.3720703125 379.5 c 1,6,-1
 40.259765625 379.5 l 2,7,8
 102.327148438 379.5 102.327148438 379.5 159.118164062 378.499023438 c 0,9,10
 215.857421875 377.5 215.857421875 377.5 256.740234375 377.5 c 2,11,-1
 308.318359375 377.5 l 1,12,13
 310.530273438 360.749023438 310.530273438 360.749023438 310.530273438 354 c 2,14,-1
 310.530273438 340 l 2,15,16
 310.530273438 331.809570312 310.530273438 331.809570312 310.155273438 320.467773438 c 0,17,18
 309.78125 309.125976562 309.78125 309.125976562 305.423828125 301.203125 c 2,19,-1
 303.7578125 298.173828125 l 1,20,21
 294.1328125 299.5 294.1328125 299.5 285.120117188 299.5 c 2,22,-1
 216.48046875 299.5 l 1,0,-1
37.6201171875 215.5 m 1,23,-1
 118.799804688 216.5 l 1,24,-1
 304.810546875 216.5 l 1,25,-1
 306.295898438 213.384765625 l 2,26,27
 314.42578125 196.327148438 314.42578125 196.327148438 314.42578125 180.916992188 c 0,28,29
 314.42578125 165.938476562 314.42578125 165.938476562 305.561523438 135.717773438 c 1,30,31
 287.874023438 134.5 287.874023438 134.5 271.919921875 134.5 c 2,32,-1
 163.01953125 134.5 l 2,33,34
 81.765625 134.5 81.765625 134.5 32.009765625 136.717773438 c 1,35,-1
 32.009765625 144 l 2,36,37
 32.009765625 151.778320312 32.009765625 151.778320312 30.3603515625 159.278320312 c 0,38,39
 28.7099609375 166.778320312 28.7099609375 166.778320312 28.7099609375 175.376953125 c 0,40,41
 28.7099609375 183.975585938 28.7099609375 183.975585938 30.412109375 193.77734375 c 0,42,43
 32.115234375 203.579101562 32.115234375 203.579101562 33.42578125 215.5 c 1,44,-1
 37.6201171875 215.5 l 1,23,-1
EndSplineSet
EndChar

StartChar: greater
Encoding: 62 62 47
Width: 308
Flags: W
LayerCount: 2
Fore
SplineSet
33.330078125 -26 m 2,0,1
 33.330078125 -15.2421875 33.330078125 -15.2421875 31.24609375 -9.716796875 c 0,2,3
 29.162109375 -4.19140625 29.162109375 -4.19140625 27.9462890625 0.72265625 c 0,4,5
 26.73046875 5.6357421875 26.73046875 5.6357421875 26.73046875 16 c 2,6,-1
 26.73046875 19.91796875 l 1,7,8
 91.509765625 88.197265625 91.509765625 88.197265625 168.65234375 175.024414062 c 0,9,10
 189.7734375 198.796875 189.7734375 198.796875 218.041992188 230.065429688 c 1,11,12
 195.466796875 255.63671875 195.466796875 255.63671875 176.073242188 278.859375 c 0,13,14
 156.680664062 302.081054688 156.680664062 302.081054688 135.255859375 327.051757812 c 0,15,16
 113.790039062 352.071289062 113.790039062 352.071289062 89.6875 380.5859375 c 0,17,18
 65.642578125 409.032226562 65.642578125 409.032226562 32.669921875 446.235351562 c 1,19,-1
 32.669921875 450 l 2,20,21
 32.669921875 460.055664062 32.669921875 460.055664062 33.439453125 464.13671875 c 0,22,23
 34.208984375 468.216796875 34.208984375 468.216796875 34.8564453125 471.158203125 c 0,24,25
 36.6298828125 479.221679688 36.6298828125 479.221679688 36.6298828125 489 c 2,26,-1
 36.6298828125 501.666992188 l 1,27,28
 85.0009765625 461.4765625 85.0009765625 461.4765625 112.512695312 435.360351562 c 0,29,30
 139.98828125 409.279296875 139.98828125 409.279296875 164.096679688 384.260742188 c 0,31,32
 188.204101562 359.2421875 188.204101562 359.2421875 215.88671875 331.779296875 c 0,33,34
 243.491210938 304.393554688 243.491210938 304.393554688 288.08984375 265.327148438 c 1,35,-1
 288.08984375 193.822265625 l 1,36,37
 258.060546875 165.65625 258.060546875 165.65625 236.651367188 144.696289062 c 0,38,39
 212.95703125 121.499023438 212.95703125 121.499023438 195.739257812 105.073242188 c 0,40,41
 144.802734375 56.4814453125 144.802734375 56.4814453125 126.430664062 39.9853515625 c 0,42,43
 94.8994140625 11.6748046875 94.8994140625 11.6748046875 33.330078125 -38.556640625 c 1,44,-1
 33.330078125 -26 l 2,0,1
EndSplineSet
EndChar

StartChar: question
Encoding: 63 63 48
Width: 242
Flags: W
LayerCount: 2
Fore
SplineSet
71.2421875 -22.4375 m 0,0,1
 53.37890625 -20.0263671875 53.37890625 -20.0263671875 43.6845703125 -0.2529296875 c 0,2,3
 33.990234375 19.5205078125 33.990234375 19.5205078125 33.990234375 46.244140625 c 0,4,5
 33.990234375 72.9677734375 33.990234375 72.9677734375 45.625 91.734375 c 0,6,7
 57.259765625 110.5 57.259765625 110.5 77.013671875 110.5 c 0,8,9
 96.767578125 110.5 96.767578125 110.5 108.279296875 88.5576171875 c 0,10,11
 119.790039062 66.6162109375 119.790039062 66.6162109375 119.790039062 38.57421875 c 0,12,13
 119.790039062 10.533203125 119.790039062 10.533203125 104.842773438 -8.716796875 c 0,14,15
 93.2578125 -23.63671875 93.2578125 -23.63671875 79.26953125 -23.63671875 c 0,16,17
 75.3291015625 -23.63671875 75.3291015625 -23.63671875 71.2421875 -22.4375 c 0,0,1
55.76953125 237 m 1,18,-1
 56.4296875 284 l 2,19,20
 56.4296875 302.728515625 56.4296875 302.728515625 55.8798828125 314.395507812 c 0,21,22
 55.330078125 326.061523438 55.330078125 326.061523438 55.330078125 331.958984375 c 0,23,24
 55.330078125 337.857421875 55.330078125 337.857421875 55.5712890625 345.170898438 c 0,25,26
 56.251953125 365.809570312 56.251953125 365.809570312 66.265625 376.645507812 c 1,27,28
 85.1240234375 387.87109375 85.1240234375 387.87109375 103.631835938 401.646484375 c 0,29,30
 122.138671875 415.420898438 122.138671875 415.420898438 137.701171875 433.225585938 c 0,31,32
 153.263671875 451.030273438 153.263671875 451.030273438 162.266601562 475.490234375 c 0,33,34
 171.26953125 499.950195312 171.26953125 499.950195312 171.26953125 534 c 0,35,36
 171.26953125 581.4921875 171.26953125 581.4921875 150.932617188 619.263671875 c 0,37,38
 141.303710938 637.147460938 141.303710938 637.147460938 128.087890625 648.323242188 c 0,39,40
 114.872070312 659.5 114.872070312 659.5 99.66015625 659.5 c 0,41,42
 89.30859375 659.5 89.30859375 659.5 77.4287109375 653 c 0,43,44
 65.548828125 646.5 65.548828125 646.5 52.98828125 646.5 c 0,45,46
 40.427734375 646.5 40.427734375 646.5 30.279296875 659.51171875 c 0,47,48
 20.1298828125 672.5234375 20.1298828125 672.5234375 20.1298828125 691.346679688 c 0,49,50
 20.1298828125 710.169921875 20.1298828125 710.169921875 24.8515625 721.497070312 c 0,51,52
 29.525390625 732.709960938 29.525390625 732.709960938 37.44140625 738.9921875 c 0,53,54
 45.357421875 745.274414062 45.357421875 745.274414062 53.873046875 746.88671875 c 0,55,56
 62.388671875 748.5 62.388671875 748.5 71.2802734375 748.5 c 0,57,58
 101.142578125 748.5 101.142578125 748.5 128.162109375 721.552734375 c 0,59,60
 155.181640625 694.606445312 155.181640625 694.606445312 176.13671875 654.661132812 c 0,61,62
 197.060546875 614.776367188 197.060546875 614.776367188 209.245117188 567.59765625 c 0,63,64
 221.4296875 520.418945312 221.4296875 520.418945312 221.4296875 479.30859375 c 0,65,66
 221.4296875 438.198242188 221.4296875 438.198242188 212.05859375 410.326171875 c 0,67,68
 194.787109375 358.958007812 194.787109375 358.958007812 158.778320312 329.405273438 c 0,69,70
 158.772460938 329.400390625 158.772460938 329.400390625 128.424804688 304.411132812 c 0,71,72
 114.271484375 292.713867188 114.271484375 292.713867188 104.184570312 280.672851562 c 0,73,74
 94.09765625 268.630859375 94.09765625 268.630859375 91.23046875 252.991210938 c 2,75,-1
 90.7802734375 250.53515625 l 1,76,-1
 89.63671875 249.236328125 l 1,77,78
 88.76953125 246.354492188 88.76953125 246.354492188 88.76953125 239 c 2,79,-1
 88.76953125 212 l 2,80,81
 88.76953125 197.922851562 88.76953125 197.922851562 86.2626953125 184.899414062 c 0,82,83
 83.0087890625 167.993164062 83.0087890625 167.993164062 71.5966796875 166.421875 c 1,84,-1
 70.82421875 166.69140625 l 2,85,86
 59.1201171875 170.784179688 59.1201171875 170.784179688 57.1845703125 188.500976562 c 0,87,88
 55.76953125 197.30078125 55.76953125 197.30078125 55.76953125 210 c 2,89,-1
 55.76953125 237 l 1,18,-1
EndSplineSet
EndChar

StartChar: at
Encoding: 64 64 49
Width: 592
Flags: W
LayerCount: 2
Fore
SplineSet
295.90625 192.87109375 m 0,0,1
 278.369140625 183.345703125 278.369140625 183.345703125 264.749023438 165.4609375 c 0,2,3
 251.129882812 147.577148438 251.129882812 147.577148438 251.129882812 120.057617188 c 0,4,5
 251.129882812 92.537109375 251.129882812 92.537109375 258.458007812 78.0185546875 c 0,6,7
 265.78515625 63.5 265.78515625 63.5 285.120117188 63.5 c 0,8,9
 298.470703125 63.5 298.470703125 63.5 312.04296875 73.7822265625 c 0,10,11
 325.615234375 84.064453125 325.615234375 84.064453125 334.228515625 97.998046875 c 0,12,13
 337.979492188 104.65625 337.979492188 104.65625 343.481445312 117.16015625 c 0,14,15
 348.983398438 129.665039062 348.983398438 129.665039062 350.828125 139.24609375 c 1,16,-1
 352.110351562 174.211914062 l 1,17,-1
 352.110351562 203 l 2,18,19
 352.110351562 213.006835938 352.110351562 213.006835938 351.607421875 220.801757812 c 1,20,21
 331.9921875 213.34375 331.9921875 213.34375 317.318359375 204.643554688 c 0,22,23
 302.645507812 195.944335938 302.645507812 195.944335938 295.90625 192.87109375 c 0,0,1
314.8203125 -109.5 m 0,24,25
 354.939453125 -109.5 354.939453125 -109.5 399.34375 -86.404296875 c 0,26,27
 421.005859375 -75.1376953125 421.005859375 -75.1376953125 439.93359375 -58.611328125 c 0,28,29
 458.860351562 -42.0849609375 458.860351562 -42.0849609375 471.537109375 -20.9580078125 c 2,30,-1
 473.579101562 -17.5546875 l 1,31,32
 495.438476562 -26.587890625 495.438476562 -26.587890625 515.217773438 -32.0361328125 c 1,33,-1
 509.225585938 -42.0380859375 l 2,34,35
 469.57421875 -108.225585938 469.57421875 -108.225585938 419.109375 -141.868164062 c 0,36,37
 368.662109375 -175.5 368.662109375 -175.5 310.200195312 -175.5 c 0,38,39
 267.884765625 -175.5 267.884765625 -175.5 227.916015625 -157.1796875 c 0,40,41
 187.96484375 -138.868164062 187.96484375 -138.868164062 153.70703125 -104.7734375 c 0,42,43
 119.403320312 -70.6318359375 119.403320312 -70.6318359375 93.1767578125 -21.724609375 c 0,44,45
 66.9384765625 27.2041015625 66.9384765625 27.2041015625 51.4580078125 88.3916015625 c 0,46,47
 35.3095703125 154.263671875 35.3095703125 154.263671875 35.3095703125 236.452148438 c 0,48,49
 35.3095703125 318.640625 35.3095703125 318.640625 57.8681640625 393.122070312 c 0,50,51
 80.3779296875 467.439453125 80.3779296875 467.439453125 119.35546875 523.442382812 c 0,52,53
 158.3671875 579.494140625 158.3671875 579.494140625 207.817382812 607.52734375 c 0,54,55
 257.162109375 635.5 257.162109375 635.5 310.860351562 635.5 c 0,56,57
 344.484375 635.5 344.484375 635.5 378.745117188 622.268554688 c 0,58,59
 413.053710938 609.017578125 413.053710938 609.017578125 443.005859375 583.01171875 c 0,60,61
 472.98046875 556.987304688 472.98046875 556.987304688 497.227539062 519.228515625 c 0,62,63
 522.21484375 480.31640625 522.21484375 480.31640625 536.497070312 432 c 0,64,65
 557.370117188 359.713867188 557.370117188 359.713867188 557.370117188 296 c 0,66,67
 557.370117188 249.890625 557.370117188 249.890625 547.920898438 202.336914062 c 0,68,69
 538.495117188 154.90234375 538.495117188 154.90234375 521.59765625 113.426757812 c 0,70,71
 504.700195312 71.9521484375 504.700195312 71.9521484375 479.46875 41.470703125 c 0,72,73
 454.236328125 10.990234375 454.236328125 10.990234375 422.71484375 1.6455078125 c 0,74,75
 415.633789062 -0.5 415.633789062 -0.5 406.559570312 -0.5 c 0,76,77
 381.889648438 -0.5 381.889648438 -0.5 367.870117188 23.537109375 c 0,78,79
 357.268554688 41.712890625 357.268554688 41.712890625 351.559570312 66.205078125 c 1,80,81
 336.900390625 41.126953125 336.900390625 41.126953125 312.081054688 18.564453125 c 0,82,83
 298.330078125 6.0625 298.330078125 6.0625 282.864257812 -0.70703125 c 0,84,85
 267.34375 -7.5 267.34375 -7.5 253.440429688 -7.5 c 0,86,87
 216.619140625 -7.5 216.619140625 -7.5 201.53515625 23.5185546875 c 0,88,89
 186.450195312 54.537109375 186.450195312 54.537109375 186.450195312 103 c 0,90,91
 186.450195312 147.631835938 186.450195312 147.631835938 215.232421875 185.184570312 c 0,92,93
 236.53515625 212.978515625 236.53515625 212.978515625 268.920898438 231.056640625 c 0,94,95
 292.70703125 244.071289062 292.70703125 244.071289062 311.229492188 253.748046875 c 0,96,97
 329.750976562 263.42578125 329.750976562 263.42578125 352.110351562 271.877929688 c 1,98,-1
 352.110351562 341 l 2,99,100
 352.110351562 381.911132812 352.110351562 381.911132812 342.259765625 406.631835938 c 0,101,102
 333.146484375 429.5 333.146484375 429.5 305.580078125 429.5 c 0,103,104
 286.317382812 429.5 286.317382812 429.5 275.166015625 420.82421875 c 0,105,106
 263.93359375 412.083984375 263.93359375 412.083984375 257.620117188 399.78515625 c 0,107,108
 251.306640625 387.486328125 251.306640625 387.486328125 248.818359375 375.235351562 c 0,109,110
 248.170898438 372.046875 248.170898438 372.046875 244.965820312 354.762695312 c 0,111,112
 241.177734375 336.396484375 241.177734375 336.396484375 228.95703125 322.930664062 c 0,113,114
 216.768554688 309.5 216.768554688 309.5 201.959960938 309.5 c 0,115,116
 190.641601562 309.5 190.641601562 309.5 188.526367188 325.5234375 c 0,117,118
 187.110351562 336.250976562 187.110351562 336.250976562 187.110351562 345 c 0,119,120
 187.110351562 372.6796875 187.110351562 372.6796875 201.411132812 399.104492188 c 0,121,122
 215.712890625 425.530273438 215.712890625 425.530273438 235.723632812 447.114257812 c 0,123,124
 255.727539062 468.689453125 255.727539062 468.689453125 279.547851562 482.094726562 c 0,125,126
 303.368164062 495.5 303.368164062 495.5 322.740234375 495.5 c 0,127,128
 330.928710938 495.5 330.928710938 495.5 344.565429688 491.90625 c 0,129,130
 366.719726562 486.068359375 366.719726562 486.068359375 376.428710938 478.712890625 c 0,131,132
 400.834960938 460.223632812 400.834960938 460.223632812 406.501953125 429.630859375 c 0,133,134
 412.169921875 399.038085938 412.169921875 399.038085938 412.169921875 359.974609375 c 0,135,136
 412.169921875 320.911132812 412.169921875 320.911132812 411.508789062 278.3203125 c 0,137,138
 410.849609375 235.911132812 410.849609375 235.911132812 410.849609375 193 c 2,139,-1
 410.849609375 163 l 2,140,141
 410.849609375 97.498046875 410.849609375 97.498046875 415.802734375 87.494140625 c 2,142,-1
 416.140625 86.712890625 l 2,143,144
 419.23828125 78.5 419.23828125 78.5 430.3203125 78.5 c 0,145,146
 448.701171875 78.5 448.701171875 78.5 463.534179688 101.442382812 c 0,147,148
 478.3671875 124.385742188 478.3671875 124.385742188 489.28515625 157.95703125 c 0,149,150
 500.203125 191.529296875 500.203125 191.529296875 505.685546875 227.68359375 c 0,151,152
 511.169921875 263.856445312 511.169921875 263.856445312 511.169921875 288 c 0,153,154
 511.169921875 351.345703125 511.169921875 351.345703125 495.125 403.85546875 c 0,155,156
 479.047851562 456.47265625 479.047851562 456.47265625 451.416015625 494.443359375 c 0,157,158
 423.724609375 532.498046875 423.724609375 532.498046875 387.627929688 553.495117188 c 0,159,160
 351.520507812 574.5 351.520507812 574.5 310.860351562 574.5 c 0,161,162
 261.834960938 574.5 261.834960938 574.5 222.590820312 545.744140625 c 0,163,164
 183.235351562 516.907226562 183.235351562 516.907226562 155.521484375 469.056640625 c 0,165,166
 127.775390625 421.151367188 127.775390625 421.151367188 112.912109375 357.017578125 c 0,167,168
 98.009765625 292.716796875 98.009765625 292.716796875 98.009765625 222.5625 c 0,169,170
 98.009765625 88.3984375 98.009765625 88.3984375 153.471679688 -5.9384765625 c 0,171,172
 183.790039062 -54.77734375 183.790039062 -54.77734375 224.426757812 -82.142578125 c 0,173,174
 265.051757812 -109.5 265.051757812 -109.5 314.8203125 -109.5 c 0,24,25
EndSplineSet
EndChar

StartChar: A
Encoding: 65 65 50
Width: 545
Flags: W
LayerCount: 2
Fore
SplineSet
281.396484375 319.5 m 2,0,-1
 267.833007812 319.5 l 1,1,-1
 217.649414062 320.5 l 2,2,3
 185.9921875 320.5 185.9921875 320.5 171.807617188 316.56640625 c 1,4,5
 136.212890625 193.53125 136.212890625 193.53125 119.1328125 104.561523438 c 0,6,7
 114.908203125 82.5546875 114.908203125 82.5546875 114.908203125 78.669921875 c 0,8,9
 114.908203125 62.25390625 114.908203125 62.25390625 122.456054688 58.17578125 c 0,10,11
 132.690429688 52.6455078125 132.690429688 52.6455078125 146.063476562 50.71875 c 128,-1,12
 159.4375 48.7919921875 159.4375 48.7919921875 170.8984375 45.2890625 c 0,13,14
 186.115234375 40.638671875 186.115234375 40.638671875 186.115234375 19.0673828125 c 0,15,16
 186.115234375 8.0283203125 186.115234375 8.0283203125 180.491210938 0.6015625 c 128,-1,17
 174.868164062 -7 174.868164062 -7 167.465820312 -7 c 0,18,19
 144.822265625 -7 144.822265625 -7 121.764648438 -3.5 c 128,-1,20
 98.7080078125 0 98.7080078125 0 80.2255859375 0 c 0,21,22
 62.0380859375 0 62.0380859375 0 49.498046875 -2.5 c 128,-1,23
 36.9580078125 -5 36.9580078125 -5 21.4501953125 -5 c 0,24,25
 14.4521484375 -5 14.4521484375 -5 10.525390625 2.435546875 c 128,-1,26
 6.599609375 9.7236328125 6.599609375 9.7236328125 6.599609375 18.1806640625 c 0,27,28
 6.599609375 35.349609375 6.599609375 35.349609375 14.849609375 41.8349609375 c 0,29,30
 21.1494140625 46.7880859375 21.1494140625 46.7880859375 28.9697265625 48.80859375 c 128,-1,31
 36.791015625 50.828125 36.791015625 50.828125 44.3583984375 54.2861328125 c 128,-1,32
 51.92578125 57.744140625 51.92578125 57.744140625 56.8828125 69.1962890625 c 0,33,34
 58.90234375 73.509765625 58.90234375 73.509765625 62.6591796875 86.529296875 c 128,-1,35
 66.416015625 99.548828125 66.416015625 99.548828125 71.009765625 114.651367188 c 128,-1,36
 75.6025390625 129.754882812 75.6025390625 129.754882812 79.2138671875 144.381835938 c 128,-1,37
 82.8251953125 159.008789062 82.8251953125 159.008789062 91.1904296875 189.473632812 c 0,38,39
 99.689453125 219.938476562 99.689453125 219.938476562 114.603515625 272.848632812 c 0,40,41
 157.322265625 424.997070312 157.322265625 424.997070312 189.524414062 538.044921875 c 128,-1,42
 221.7265625 651.092773438 221.7265625 651.092773438 247.459960938 743.096679688 c 0,43,44
 249.037109375 750 249.037109375 750 251.145507812 754.352539062 c 0,45,46
 254.366210938 761 254.366210938 761 262.0546875 761 c 128,-1,47
 269.744140625 761 269.744140625 761 273.983398438 752.404296875 c 0,48,49
 277.099609375 746.0859375 277.099609375 746.0859375 278.703125 739.130859375 c 0,50,51
 294.955078125 682.361328125 294.955078125 682.361328125 311.543945312 623.154296875 c 2,52,53
 328.005859375 561.11328125 328.005859375 561.11328125 344.467773438 506.877929688 c 1,54,55
 404.099609375 282.383789062 404.099609375 282.383789062 472.0859375 77.0830078125 c 0,56,57
 477.173828125 61.1337890625 477.173828125 61.1337890625 487.250976562 55.4111328125 c 128,-1,58
 497.329101562 49.6884765625 497.329101562 49.6884765625 508.120117188 46.7744140625 c 128,-1,59
 518.911132812 43.8603515625 518.911132812 43.8603515625 527.076171875 40.3232421875 c 0,60,61
 538.559570312 35.349609375 538.559570312 35.349609375 538.559570312 16.111328125 c 0,62,63
 538.559570312 1.9892578125 538.559570312 1.9892578125 528.244140625 -3.1171875 c 0,64,65
 520.556640625 -7 520.556640625 -7 513.150390625 -7 c 2,66,-1
 505.23046875 -7 l 2,67,68
 488.41796875 -7 488.41796875 -7 472.578125 -4 c 128,-1,69
 456.717773438 -1 456.717773438 -1 436.305664062 -1 c 128,-1,70
 415.891601562 -1 415.891601562 -1 392.15625 -4 c 128,-1,71
 368.420898438 -7 368.420898438 -7 343.786132812 -7 c 0,72,73
 335.900390625 -7 335.900390625 -7 329.162109375 0.9482421875 c 128,-1,74
 322.424804688 8.7138671875 322.424804688 8.7138671875 322.424804688 21.02734375 c 0,75,76
 322.424804688 37.947265625 322.424804688 37.947265625 336.475585938 41.4375 c 0,77,78
 346.596679688 43.9521484375 346.596679688 43.9521484375 358.666992188 44.91796875 c 128,-1,79
 370.736328125 45.8837890625 370.736328125 45.8837890625 379.6875 49.5673828125 c 0,80,81
 385.493164062 51.9580078125 385.493164062 51.9580078125 385.493164062 63.0380859375 c 0,82,83
 385.493164062 72.4423828125 385.493164062 72.4423828125 358.81640625 168.145507812 c 0,84,85
 335.87890625 250.434570312 335.87890625 250.434570312 325.608398438 284.659179688 c 1,86,87
 321.37109375 297.802734375 321.37109375 297.802734375 317.1328125 309.922851562 c 1,88,89
 312.951171875 315.948242188 312.951171875 315.948242188 302.782226562 317.724609375 c 128,-1,90
 292.614257812 319.5 292.614257812 319.5 281.396484375 319.5 c 2,0,-1
188.739257812 377.5 m 1,91,-1
 200.017578125 377.5 l 2,92,93
 211.509765625 377.5 211.509765625 377.5 235.336914062 377.995117188 c 128,-1,94
 259.165039062 378.490234375 259.165039062 378.490234375 301.325195312 378.5 c 0,95,96
 302.196289062 379.174804688 302.196289062 379.174804688 303.12109375 379.4921875 c 1,97,98
 274.521484375 496.041015625 274.521484375 496.041015625 263.428710938 542.8046875 c 128,-1,99
 252.3359375 589.568359375 252.3359375 589.568359375 250.9375 595.077148438 c 1,100,101
 244.259765625 572.100585938 244.259765625 572.100585938 238.043945312 551.584960938 c 128,-1,102
 231.827148438 531.0703125 231.827148438 531.0703125 224.741210938 505.196289062 c 0,103,104
 207.407226562 441.903320312 207.407226562 441.903320312 188.739257812 377.5 c 1,91,-1
EndSplineSet
Substitution2: "'c2sc' Versalien in Kapit+AOQA-lchen in Lateinisch Nachschlagetabelle 0 Subtabelle" uni1D00
EndChar

StartChar: B
Encoding: 66 66 51
Width: 485
Flags: W
LayerCount: 2
Fore
SplineSet
41.3916015625 735.64453125 m 0,0,1
 53.470703125 741.5 53.470703125 741.5 74.4970703125 741.5 c 2,2,3
 91.2041015625 733.25 91.2041015625 733.25 108.02734375 740 c 2,4,5
 139.30078125 740 139.30078125 740 170.487304688 744.5 c 128,-1,6
 201.674804688 749 201.674804688 749 232.573242188 749 c 128,-1,7
 263.470703125 749 263.470703125 749 295.287109375 739.30859375 c 128,-1,8
 327.102539062 729.807617188 327.102539062 729.807617188 354.35546875 708.548828125 c 0,9,10
 381.23828125 687.290039062 381.23828125 687.290039062 398.189453125 651.32421875 c 128,-1,11
 415.139648438 615.357421875 415.139648438 615.357421875 415.139648438 564.02734375 c 0,12,13
 415.139648438 504.215820312 415.139648438 504.215820312 390.000976562 465.322265625 c 0,14,15
 369.359375 433.518554688 369.359375 433.518554688 340.0859375 416.2265625 c 1,16,17
 341.174804688 415.6875 341.174804688 415.6875 347.111328125 412.948242188 c 0,18,19
 397.083007812 389.442382812 397.083007812 389.442382812 426.564453125 335.860351562 c 0,20,21
 452.759765625 288.250976562 452.759765625 288.250976562 452.759765625 218.97265625 c 0,22,23
 452.759765625 161.341796875 452.759765625 161.341796875 438.369140625 119.103515625 c 0,24,25
 410.287109375 36.6767578125 410.287109375 36.6767578125 343.180664062 8.4990234375 c 0,26,27
 310.516601562 -4.9189453125 310.516601562 -4.9189453125 273.08203125 -5.986328125 c 0,28,29
 267.858398438 -7.0009765625 267.858398438 -7.0009765625 266.36328125 -7 c 2,30,-1
 55.1103515625 -7 l 2,31,32
 47.4228515625 -7 47.4228515625 -7 37.4345703125 -4.390625 c 0,33,34
 23.759765625 -0.8896484375 23.759765625 -0.8896484375 23.759765625 20.005859375 c 0,35,36
 23.759765625 35.9091796875 23.759765625 35.9091796875 38.353515625 39.97265625 c 0,37,38
 48.9833984375 42.931640625 48.9833984375 42.931640625 61.28515625 45.81640625 c 128,-1,39
 73.587890625 48.701171875 73.587890625 48.701171875 84.6240234375 55.2578125 c 0,40,41
 93.5849609375 60.580078125 93.5849609375 60.580078125 95.228515625 75.23046875 c 0,42,43
 96.6357421875 79.41015625 96.6357421875 79.41015625 97.158203125 154.654296875 c 128,-1,44
 97.6806640625 229.8984375 97.6806640625 229.8984375 98.6708984375 289.725585938 c 0,45,46
 100.3203125 389.282226562 100.3203125 389.282226562 100.3203125 533.595703125 c 2,47,48
 100.3203125 581.173828125 100.3203125 581.173828125 100.3203125 637.489257812 c 2,49,50
 100.3203125 669.344726562 100.3203125 669.344726562 91.083984375 679.631835938 c 0,51,52
 86.716796875 684.49609375 86.716796875 684.49609375 78.7880859375 686.760742188 c 128,-1,53
 70.8603515625 689.024414062 70.8603515625 689.024414062 59.921875 691.89453125 c 0,54,55
 52.8408203125 692.129882812 52.8408203125 692.129882812 46.0322265625 695.241210938 c 128,-1,56
 39.22265625 698.352539062 39.22265625 698.352539062 35.408203125 701.750976562 c 0,57,58
 29.7001953125 706.837890625 29.7001953125 706.837890625 29.7001953125 714.919921875 c 0,59,60
 29.7001953125 730.088867188 29.7001953125 730.088867188 41.3916015625 735.64453125 c 0,0,1
342.50390625 94.1650390625 m 128,-1,62
 372.240234375 138.465820312 372.240234375 138.465820312 372.240234375 209.806640625 c 0,63,64
 372.240234375 253.368164062 372.240234375 253.368164062 357.154296875 290.27734375 c 0,65,66
 345.416992188 320.032226562 345.416992188 320.032226562 328.420898438 336.344726562 c 0,67,68
 294.891601562 368.525390625 294.891601562 368.525390625 248.2265625 372.55859375 c 0,69,70
 225.762695312 374.5 225.762695312 374.5 203.302734375 374.5 c 2,71,-1
 191.650390625 374.5 l 2,72,73
 185.325195312 374.5 185.325195312 374.5 179.549804688 370.3828125 c 0,74,75
 175.54296875 367.525390625 175.54296875 367.525390625 175.54296875 356.41796875 c 2,76,77
 175.54296875 256.994140625 175.54296875 256.994140625 175.54296875 152.139648438 c 2,78,79
 175.54296875 129.197265625 175.54296875 129.197265625 177.7890625 106.315429688 c 128,-1,80
 180.03515625 83.4326171875 180.03515625 83.4326171875 191.681640625 67.640625 c 0,81,82
 201.424804688 55.5556640625 201.424804688 55.5556640625 218.958007812 52.7783203125 c 128,-1,83
 236.4921875 50 236.4921875 50 250.59765625 50 c 0,84,61
 312.8359375 50 312.8359375 50 342.50390625 94.1650390625 c 128,-1,62
329.635742188 499.791992188 m 128,-1,86
 339.361328125 526.951171875 339.361328125 526.951171875 339.361328125 566.076171875 c 0,87,88
 339.361328125 629.846679688 339.361328125 629.846679688 311.859375 662.922851562 c 128,-1,89
 284.356445312 696 284.356445312 696 241.001953125 696 c 2,90,-1
 231.405273438 696 l 2,91,92
 223.962890625 696 223.962890625 696 215.095703125 695.534179688 c 0,93,94
 195.895507812 694.524414062 195.895507812 694.524414062 184.521484375 681.962890625 c 0,95,96
 180.08203125 677.060546875 180.08203125 677.060546875 178.88671875 666.951171875 c 0,97,98
 176.9140625 651.541015625 176.9140625 651.541015625 176.9140625 623.495117188 c 2,99,100
 176.9140625 525.383789062 176.9140625 525.383789062 176.9140625 432.879882812 c 2,101,102
 177.5 430.903320312 177.5 430.903320312 180.975585938 427.201171875 c 128,-1,103
 184.452148438 423.5 184.452148438 423.5 195.078125 423.5 c 2,104,-1
 218.3828125 423.5 l 2,105,106
 273.153320312 423.5 273.153320312 423.5 303.75 455.647460938 c 0,107,85
 319.905273438 472.622070312 319.905273438 472.622070312 329.635742188 499.791992188 c 128,-1,86
EndSplineSet
Substitution2: "'c2sc' Versalien in Kapit+AOQA-lchen in Lateinisch Nachschlagetabelle 0 Subtabelle" uni0299
EndChar

StartChar: C
Encoding: 67 67 52
Width: 510
Flags: W
LayerCount: 2
Fore
SplineSet
445.790039062 765.043945312 m 128,-1,1
 453.021484375 776 453.021484375 776 464.969726562 776 c 0,2,3
 473.6484375 776 473.6484375 776 475.763671875 759.9765625 c 0,4,5
 477.1796875 749.249023438 477.1796875 749.249023438 477.1796875 734.190429688 c 128,-1,6
 477.1796875 719.1328125 477.1796875 719.1328125 476.190429688 703.6328125 c 128,-1,7
 475.200195312 688.1328125 475.200195312 688.1328125 475.200195312 669.24609375 c 0,8,9
 475.200195312 623.209960938 475.200195312 623.209960938 472.544921875 570.91796875 c 0,10,11
 471.490234375 560.170898438 471.490234375 560.170898438 468.069335938 554.123046875 c 128,-1,12
 464.60546875 548 464.60546875 548 460.479492188 548 c 128,-1,13
 456.353515625 548 456.353515625 548 454.04296875 549 c 128,-1,14
 451.733398438 550 451.733398438 550 449.790039062 550 c 0,15,16
 442.541992188 550 442.541992188 550 438.625 564.094726562 c 0,17,18
 435.830078125 574.155273438 435.830078125 574.155273438 433.806640625 586.931640625 c 128,-1,19
 431.782226562 599.708007812 431.782226562 599.708007812 429.6015625 612.92578125 c 128,-1,20
 427.419921875 626.143554688 427.419921875 626.143554688 424.012695312 635.008789062 c 0,21,22
 402.786132812 669.319335938 402.786132812 669.319335938 371.458007812 687.659179688 c 128,-1,23
 340.12890625 706 340.12890625 706 306.270507812 706 c 0,24,25
 259.07421875 706 259.07421875 706 226.057617188 680.000976562 c 128,-1,26
 192.979492188 653.952148438 192.979492188 653.952148438 172.05859375 609.736328125 c 128,-1,27
 151.138671875 565.521484375 151.138671875 565.521484375 141.07421875 507.3984375 c 128,-1,28
 131.008789062 449.274414062 131.008789062 449.274414062 131.008789062 383.124023438 c 128,-1,29
 131.008789062 316.973632812 131.008789062 316.973632812 141.096679688 252.939453125 c 128,-1,30
 151.184570312 188.90625 151.184570312 188.90625 173.172851562 139.775390625 c 128,-1,31
 195.162109375 90.6435546875 195.162109375 90.6435546875 229.576171875 60.322265625 c 128,-1,32
 263.990234375 30 263.990234375 30 313.786132812 30 c 0,33,34
 346.525390625 30 346.525390625 30 382.18359375 51.91796875 c 0,35,36
 417.54296875 73.775390625 417.54296875 73.775390625 437.256835938 111.017578125 c 0,37,38
 440.37890625 117.672851562 440.37890625 117.672851562 449.5703125 142.541015625 c 128,-1,39
 458.76171875 167.41015625 458.76171875 167.41015625 463.51171875 178.205078125 c 128,-1,40
 468.260742188 189 468.260742188 189 474.209960938 189 c 0,41,42
 483.205078125 189 483.205078125 189 488.112304688 183.051757812 c 128,-1,43
 493.01953125 177.103515625 493.01953125 177.103515625 493.01953125 162.5 c 0,44,45
 493.01953125 153.990234375 493.01953125 153.990234375 491.325195312 134.98828125 c 0,46,47
 487.963867188 97.3056640625 487.963867188 97.3056640625 480.267578125 58.82421875 c 0,48,49
 476.502929688 39.9951171875 476.502929688 39.9951171875 472.203125 33.875 c 0,50,51
 450.604492188 5 450.604492188 5 398.5703125 -11.83203125 c 0,52,53
 376.086914062 -18.9189453125 376.086914062 -18.9189453125 352.23046875 -22.4619140625 c 128,-1,54
 328.3984375 -26 328.3984375 -26 309.686523438 -26 c 0,55,56
 247.063476562 -26 247.063476562 -26 196.5078125 7.544921875 c 128,-1,57
 146.005859375 41.0556640625 146.005859375 41.0556640625 111.1484375 97.63671875 c 0,58,59
 77.189453125 154.12109375 77.189453125 154.12109375 58.71484375 228.530273438 c 128,-1,60
 40.259765625 302.856445312 40.259765625 302.856445312 40.259765625 388.139648438 c 128,-1,61
 40.259765625 473.423828125 40.259765625 473.423828125 59.4423828125 542.467773438 c 128,-1,62
 78.64453125 611.581054688 78.64453125 611.581054688 112.0546875 659.747070312 c 0,63,64
 146.357421875 707.969726562 146.357421875 707.969726562 194.78515625 732.485351562 c 128,-1,65
 243.211914062 757 243.211914062 757 300.803710938 757 c 0,66,67
 350.694335938 757 350.694335938 757 397.025390625 740.776367188 c 0,68,69
 402.680664062 738.70703125 402.680664062 738.70703125 409.87890625 735.196289062 c 0,70,71
 416.905273438 731.682617188 416.905273438 731.682617188 425.102539062 728.294921875 c 1,72,73
 426.448242188 726.546875 426.448242188 726.546875 426.82421875 726.25 c 0,74,75
 429.307617188 729.556640625 429.307617188 729.556640625 433.93359375 741.822265625 c 128,-1,0
 438.55859375 754.087890625 438.55859375 754.087890625 445.790039062 765.043945312 c 128,-1,1
EndSplineSet
Substitution2: "'c2sc' Versalien in Kapit+AOQA-lchen in Lateinisch Nachschlagetabelle 0 Subtabelle" uni1D04
EndChar

StartChar: D
Encoding: 68 68 53
Width: 582
Flags: W
LayerCount: 2
Fore
SplineSet
179.323242188 675.588867188 m 0,0,1
 176.21875 660.481445312 176.21875 660.481445312 176.21875 638.951171875 c 2,2,3
 176.55859375 581.403320312 176.55859375 581.403320312 176.897460938 533.34375 c 2,4,5
 176.897460938 445.296875 176.897460938 445.296875 176.21875 358.2265625 c 128,-1,6
 175.540039062 271.240234375 175.540039062 271.240234375 175.540039062 183.276367188 c 0,7,8
 175.540039062 139.95703125 175.540039062 139.95703125 179.123046875 112.272460938 c 0,9,10
 185.868164062 60.1640625 185.868164062 60.1640625 210.522460938 47.416015625 c 0,11,12
 222.930664062 41 222.930664062 41 240.37109375 41 c 0,13,14
 288.171875 41 288.171875 41 327.926757812 66.291015625 c 128,-1,15
 367.677734375 91.5810546875 367.677734375 91.5810546875 395.802734375 135.90625 c 128,-1,16
 423.991210938 180.329101562 423.991210938 180.329101562 439.599609375 240.124023438 c 128,-1,17
 455.228515625 299.999023438 455.228515625 299.999023438 455.228515625 368.088867188 c 0,18,19
 455.228515625 486.9765625 455.228515625 486.9765625 413.416992188 570.624023438 c 128,-1,20
 371.69140625 654.1015625 371.69140625 654.1015625 291.264648438 687.626953125 c 0,21,22
 276.46484375 693.439453125 276.46484375 693.439453125 261.530273438 698.219726562 c 128,-1,23
 246.596679688 703 246.596679688 703 231.545898438 703 c 2,24,-1
 212.393554688 703 l 2,25,26
 211.916992188 702.909179688 211.916992188 702.909179688 208.32421875 702.510742188 c 0,27,28
 198.299804688 701.400390625 198.299804688 701.400390625 187.620117188 690.631835938 c 0,29,30
 182.140625 685.108398438 182.140625 685.108398438 179.323242188 675.588867188 c 0,0,1
82.0986328125 683.0859375 m 128,-1,32
 73.6767578125 686 73.6767578125 686 64.349609375 686 c 2,33,34
 53.4599609375 678 53.4599609375 678 42.5703125 685 c 2,35,36
 34.9814453125 685 34.9814453125 685 28.322265625 692.567382812 c 0,37,38
 23.8623046875 697.973632812 23.8623046875 697.973632812 23.8623046875 707.020507812 c 0,39,40
 23.8623046875 709.357421875 23.8623046875 709.357421875 24.1748046875 711.888671875 c 0,41,42
 25.4453125 722.159179688 25.4453125 722.159179688 28.3095703125 726.497070312 c 128,-1,43
 31.1728515625 730.8359375 31.1728515625 730.8359375 35.603515625 733.07421875 c 0,44,45
 47.509765625 739.086914062 47.509765625 739.086914062 73.8974609375 742.534179688 c 128,-1,46
 100.28515625 745.98046875 100.28515625 745.98046875 122.9609375 747.986328125 c 128,-1,47
 145.767578125 749.9921875 145.767578125 749.9921875 166.887695312 750.99609375 c 0,48,49
 209.059570312 753 209.059570312 753 228.830078125 753 c 0,50,51
 298.870117188 753 298.870117188 753 357.08203125 726.129882812 c 128,-1,52
 415.293945312 699.260742188 415.293945312 699.260742188 457.129882812 648.813476562 c 0,53,54
 498.0546875 598.203125 498.0546875 598.203125 520.302734375 525.076171875 c 128,-1,55
 542.51953125 452.05078125 542.51953125 452.05078125 542.51953125 362.06640625 c 128,-1,56
 542.51953125 272.08203125 542.51953125 272.08203125 517.555664062 203.409179688 c 128,-1,57
 492.591796875 134.735351562 492.591796875 134.735351562 451.559570312 87.6875 c 0,58,59
 409.764648438 40.7841796875 409.764648438 40.7841796875 355.943359375 16.36328125 c 128,-1,60
 302.251953125 -8 302.251953125 -8 246.48046875 -8 c 0,61,62
 228.997070312 -8 228.997070312 -8 218.731445312 -6.9921875 c 2,63,64
 198.327148438 2.51171875 198.327148438 2.51171875 177.923828125 -2.984375 c 2,65,66
 167.567382812 -2 167.567382812 -2 144.64453125 -2 c 128,-1,67
 121.72265625 -2 121.72265625 -2 95.1865234375 -4.5009765625 c 0,68,69
 69.1162109375 -7.0009765625 69.1162109375 -7.0009765625 40.58984375 -7 c 0,70,71
 36.21484375 -7 36.21484375 -7 32.95703125 -3.0517578125 c 128,-1,72
 29.7001953125 0.8125 29.7001953125 0.8125 29.7001953125 11.435546875 c 128,-1,73
 29.7001953125 22.0576171875 29.7001953125 22.0576171875 34.435546875 29.080078125 c 0,74,75
 42.70703125 41.345703125 42.70703125 41.345703125 57.4970703125 43.92578125 c 0,76,77
 61.509765625 44.6259765625 61.509765625 44.6259765625 67.279296875 46.7529296875 c 0,78,79
 86.7294921875 52.87109375 86.7294921875 52.87109375 90.609375 64.37890625 c 0,80,81
 96.1650390625 80.8564453125 96.1650390625 80.8564453125 97.3544921875 128.450195312 c 0,82,83
 97.68359375 140.345703125 97.68359375 140.345703125 98.3427734375 163.466796875 c 0,84,85
 99.66015625 209.702148438 99.66015625 209.702148438 99.66015625 316.54296875 c 2,86,87
 99.66015625 431.536132812 99.66015625 431.536132812 99.66015625 550.451171875 c 2,88,89
 99.66015625 592.224609375 99.66015625 592.224609375 98.3505859375 615.516601562 c 0,90,91
 95.708984375 662.529296875 95.708984375 662.529296875 94.1142578125 668.924804688 c 0,92,31
 90.5205078125 680.171875 90.5205078125 680.171875 82.0986328125 683.0859375 c 128,-1,32
EndSplineSet
Substitution2: "'c2sc' Versalien in Kapit+AOQA-lchen in Lateinisch Nachschlagetabelle 0 Subtabelle" uni1D05
EndChar

